<svg width="3000" height="2000" viewBox="0 0 3000 2000" fill="none" xmlns="http://www.w3.org/2000/svg">
<g opacity="0.2">
<path d="M2703.8 1844.4C2626.6 1855 230 1792.9 230 1792.9C26.4 1682.7 -59 1412.6 46.2 1192C127.9 1020.7 356.1 1065.3 245.8 766.2C135.6 467.4 302.5 211.1 554.5 195.5C814.9 179.5 975.7 322 1261.1 141C1828.4 -218.8 1873 295.3 2394.5 314.1C3036.6 337.3 2548.9 1028.9 2752.7 1231.9C2983.7 1462.2 2926.8 1813.8 2703.8 1844.4Z" fill="#37BCF5"/>
</g>
<path d="M2831.6 1846.9C2831.6 1923.7 2223.9 1986.4 1468.8 1986.4C710 1986.4 106 1923.3 106 1846.9C106 1770.2 712.6 1707.4 1468.8 1707.4C2228.3 1707.4 2831.6 1770.6 2831.6 1846.9Z" fill="#37BCF5"/>
<path d="M585 1486C585.1 1485.9 585.3 1485.9 585.4 1485.8C586.4 1485.1 586.7 1483.8 586 1482.7C412.8 1216.1 272.8 1033.2 191.8 967.8C190 966.3 188.7 965.3 188.2 964.7C187.4 963.8 186 963.8 185.1 964.7C184.2 965.6 184.2 967 185.1 967.8C185.8 968.6 187.1 969.6 189.1 971.2C269.7 1036.3 409.4 1218.8 582.4 1485.1C582.9 1486.1 584 1486.4 585 1486Z" fill="#09D0C4"/>
<path d="M147.9 964.8C157.3 972 196.1 978.8 198.1 976.1C200.1 973.4 183.1 937.4 173.7 930.1C164.3 922.9 150.8 924.8 143.7 934.3C136.6 943.9 138.4 957.5 147.9 964.8Z" fill="#09D0C4"/>
<path d="M221.4 973.2C221.4 985.5 239.8 1021.8 243.3 1021.8C246.8 1021.8 265.3 985.5 265.3 973.3C265.3 961 255.5 951.1 243.4 951C231.2 950.9 221.4 960.9 221.4 973.2Z" fill="#09D0C4"/>
<path d="M200.9 1052.6C212.7 1049.8 243.4 1023.5 242.6 1020C241.8 1016.6 202.8 1006.5 191 1009.2C179.2 1012 171.8 1023.9 174.6 1035.9C177.4 1047.9 189.2 1055.4 200.9 1052.6Z" fill="#09D0C4"/>
<path d="M377.8 1137.2C375.6 1157.7 399.9 1221.7 405.6 1222.3C411.4 1222.9 448.7 1165.8 450.9 1145.3C453.1 1124.8 438.5 1106.4 418.3 1104.1C398.2 1101.9 380 1116.7 377.8 1137.2Z" fill="#09D0C4"/>
<path d="M329.6 1266.1C349.8 1263.7 405.7 1225.3 405.1 1219.4C404.4 1213.6 341.2 1189.5 321 1192C300.8 1194.4 286.4 1213 288.8 1233.5C291.1 1253.9 309.4 1268.5 329.6 1266.1Z" fill="#09D0C4"/>
<path d="M450 1195.1C441.9 1219 453.9 1302 460.6 1304.3C467.3 1306.6 527 1248.6 535.1 1224.8C543.2 1200.9 530.7 1175 507.2 1166.8C483.7 1158.6 458.1 1171.3 450 1195.1Z" fill="#09D0C4"/>
<path d="M377.3 1366.7C401.6 1361.2 464.9 1307.3 463.4 1300.2C461.8 1293.2 381.9 1272 357.6 1277.5C333.3 1283 318.1 1307.5 323.6 1332.1C328.9 1356.8 353 1372.3 377.3 1366.7Z" fill="#09D0C4"/>
<path d="M509.5 1281.2C501.4 1305.1 513.4 1388.1 520.1 1390.4C526.8 1392.7 586.5 1334.7 594.6 1310.9C602.7 1287 590.2 1261.1 566.7 1252.9C543.2 1244.6 517.6 1257.3 509.5 1281.2Z" fill="#09D0C4"/>
<path d="M436.8 1452.8C461.1 1447.3 524.4 1393.4 522.9 1386.3C521.3 1379.3 441.4 1358.1 417.1 1363.6C392.8 1369.1 377.6 1393.6 383.1 1418.2C388.4 1442.8 412.5 1458.3 436.8 1452.8Z" fill="#09D0C4"/>
<path d="M613.5 1380.4C597.1 1399.3 577 1480.7 582.3 1485.5C587.6 1490.3 664.6 1459.7 681.1 1440.8C697.5 1421.9 695.7 1393 677 1376.3C658.4 1359.6 630 1361.4 613.5 1380.4Z" fill="#09D0C4"/>
<path d="M492.3 1538.8C517 1536.4 586.5 1490.9 585.9 1483.8C585.2 1476.6 508.5 1445.5 483.7 1447.9C459 1450.3 440.8 1472.6 443.2 1497.7C445.6 1522.9 467.6 1541.3 492.3 1538.8Z" fill="#09D0C4"/>
<path d="M269.8 1024.3C269.8 1036.8 288.5 1073.7 292 1073.7C295.5 1073.7 314.3 1036.9 314.3 1024.4C314.3 1011.9 304.4 1001.8 292.1 1001.8C279.8 1001.8 269.8 1011.9 269.8 1024.3Z" fill="#09D0C4"/>
<path d="M250.8 1105.3C262.8 1102.5 294 1075.7 293.2 1072.2C292.4 1068.7 252.8 1058.5 240.8 1061.3C228.8 1064.1 221.3 1076.2 224.1 1088.4C226.8 1100.6 238.8 1108.1 250.8 1105.3Z" fill="#09D0C4"/>
<path d="M321.2 1069.9C319.7 1087.6 342 1142 347 1142.4C352 1142.8 382.8 1092.9 384.3 1075.2C385.8 1057.5 372.8 1042 355.4 1040.6C338 1039.1 322.7 1052.2 321.2 1069.9Z" fill="#09D0C4"/>
<path d="M286.7 1187.4C303.7 1183.4 348.1 1145.3 346.9 1140.4C345.8 1135.5 289.5 1120.9 272.5 1124.8C255.5 1128.8 244.8 1146 248.8 1163.3C252.7 1180.5 269.7 1191.3 286.7 1187.4Z" fill="#09D0C4"/>
<g opacity="0.5">
<path d="M2191.8 1137.1C2191.7 1137 2191.5 1137 2191.4 1136.9C2190.4 1136.2 2190.1 1134.9 2190.8 1133.9C2362.8 869.2 2501.7 687.7 2582.1 622.8C2583.9 621.4 2585.2 620.3 2585.7 619.8C2586.5 618.9 2587.9 618.9 2588.8 619.8C2589.7 620.6 2589.7 622 2588.8 622.9C2588.1 623.7 2586.8 624.7 2584.8 626.3C2504.8 691 2366.1 872.1 2194.4 1136.4C2193.9 1137.2 2192.8 1137.5 2191.8 1137.1Z" fill="#09D0C4"/>
<path d="M2625.7 619.7C2616.3 626.9 2577.8 633.6 2575.8 630.9C2573.8 628.2 2590.7 592.5 2600 585.3C2609.4 578.1 2622.7 580 2629.8 589.5C2636.9 599 2635.1 612.5 2625.7 619.7Z" fill="#09D0C4"/>
<path d="M2552.8 628.1C2552.8 640.3 2534.5 676.3 2531.1 676.3C2527.7 676.3 2509.3 640.3 2509.3 628.1C2509.3 615.9 2519 606 2531 606C2543 606 2552.8 615.9 2552.8 628.1Z" fill="#09D0C4"/>
<path d="M2573 707C2561.3 704.3 2530.8 678.1 2531.6 674.7C2532.4 671.3 2571.1 661.3 2582.8 664C2594.5 666.7 2601.8 678.6 2599.1 690.5C2596.4 702.3 2584.7 709.7 2573 707Z" fill="#09D0C4"/>
<path d="M2397.5 790.9C2399.7 811.2 2375.6 874.7 2369.9 875.4C2364.2 876 2327.1 819.3 2324.9 799C2322.7 778.7 2337.2 760.4 2357.2 758.1C2377.3 755.9 2395.3 770.6 2397.5 790.9Z" fill="#09D0C4"/>
<path d="M2445.4 918.9C2425.4 916.5 2369.8 878.4 2370.5 872.6C2371.2 866.8 2434 842.9 2454 845.4C2474 847.8 2488.3 866.2 2486 886.6C2483.6 906.8 2465.4 921.3 2445.4 918.9Z" fill="#09D0C4"/>
<path d="M2325.8 848.4C2333.8 872.1 2321.9 954.5 2315.3 956.8C2308.6 959.1 2249.3 901.5 2241.3 877.9C2233.3 854.2 2245.7 828.4 2269 820.3C2292.4 812.1 2317.8 824.7 2325.8 848.4Z" fill="#09D0C4"/>
<path d="M2398 1018.7C2373.9 1013.2 2311 959.7 2312.6 952.7C2314.1 945.7 2393.5 924.7 2417.6 930.2C2441.7 935.7 2456.8 960 2451.4 984.4C2446 1008.9 2422.1 1024.2 2398 1018.7Z" fill="#09D0C4"/>
<path d="M2266.8 933.8C2274.8 957.5 2262.9 1039.9 2256.3 1042.2C2249.6 1044.5 2190.3 986.9 2182.3 963.3C2174.3 939.6 2186.7 913.8 2210 905.7C2233.3 897.5 2258.7 910.1 2266.8 933.8Z" fill="#09D0C4"/>
<path d="M2338.9 1104.1C2314.8 1098.6 2251.9 1045.1 2253.5 1038.1C2255 1031.1 2334.4 1010.1 2358.5 1015.6C2382.6 1021.1 2397.7 1045.4 2392.3 1069.8C2386.9 1094.3 2363 1109.6 2338.9 1104.1Z" fill="#09D0C4"/>
<path d="M2163.5 1032.3C2179.8 1051.1 2199.7 1131.9 2194.4 1136.6C2189.1 1141.3 2112.7 1111 2096.4 1092.2C2080.1 1073.4 2081.9 1044.8 2100.4 1028.2C2118.9 1011.6 2147.2 1013.5 2163.5 1032.3Z" fill="#09D0C4"/>
<path d="M2283.8 1189.6C2259.2 1187.2 2190.2 1142.1 2190.9 1135C2191.6 1127.9 2267.8 1097 2292.3 1099.4C2316.9 1101.8 2334.9 1123.9 2332.5 1148.9C2330.2 1173.7 2308.4 1192 2283.8 1189.6Z" fill="#09D0C4"/>
<path d="M2504.7 678.9C2504.7 691.3 2486.1 727.9 2482.6 727.9C2479.1 727.9 2460.5 691.3 2460.4 678.9C2460.4 666.5 2470.3 656.5 2482.5 656.5C2494.8 656.4 2504.7 666.5 2504.7 678.9Z" fill="#09D0C4"/>
<path d="M2523.6 759.3C2511.7 756.5 2480.7 729.9 2481.5 726.5C2482.3 723.1 2521.6 712.9 2533.5 715.6C2545.4 718.4 2552.8 730.4 2550.1 742.5C2547.3 754.5 2535.5 762.1 2523.6 759.3Z" fill="#09D0C4"/>
<path d="M2453.6 724.1C2455 741.6 2432.9 795.7 2428 796.1C2423.1 796.5 2392.4 746.9 2391 729.4C2389.6 711.9 2402.4 696.5 2419.7 695C2437 693.5 2452.2 706.5 2453.6 724.1Z" fill="#09D0C4"/>
<path d="M2487.9 840.7C2471 836.8 2427 798.9 2428.1 794C2429.2 789.1 2485.1 774.6 2502 778.6C2518.9 782.6 2529.5 799.6 2525.6 816.8C2521.7 833.9 2504.8 844.6 2487.9 840.7Z" fill="#09D0C4"/>
</g>
<path d="M1558.9 1536.9H1359.9V1811.4H1558.9V1536.9Z" fill="#222638"/>
<path d="M1643.9 1795.8H1275V1837.4H1643.9V1795.8Z" fill="#222638"/>
<path d="M2301.3 358.1H487.6V1611.1H2301.3V358.1Z" fill="#171067"/>
<path d="M2271.5 389.3H517.3V1580H2271.5V389.3Z" fill="white"/>
<path d="M1307.5 1476.1C1340.3 1475.7 1385.6 1469.3 1436.1 1458.9C1395 1469.8 1351.9 1475.8 1307.5 1476.1Z" fill="#2F61C7"/>
<path d="M1814 966.1C1814 1077.6 1778.2 1180.7 1717.6 1264.6L1473.2 1110.3C1507.8 1070.8 1528.7 1019.1 1528.7 962.5C1528.7 951.9 1528 941.4 1526.5 931.2L1808.6 891.5C1812.2 915.9 1814 940.8 1814 966.1Z" fill="#6D76FF"/>
<path d="M2060.2 1847.8C2059.6 1848 2059 1848.1 2058.4 1848.1C2055.7 1848.1 2053.2 1846.3 2052.4 1843.4L2005.6 1682.4L2001.8 1669.2L1961.2 1529.6L1957.4 1516.4L1937.5 1447.9L1930.9 1425.2L1917.5 1379.2L1913.7 1366L1879.2 1247.2L1875.4 1234L1837.9 1105.2L1834.1 1092L1826.8 1066.8C1825.8 1063.3 1827.7 1059.6 1831 1058.6C1834.4 1057.5 1837.9 1059.5 1838.9 1063L1847.4 1092L1851.2 1105.2L1888.7 1234L1892.5 1247.2L1927.1 1366L1930.9 1379.2L1937.7 1402.5L1944.3 1425.2L1970.8 1516.4L1974.6 1529.6L2015.2 1669.2L2019 1682.4L2064.7 1839.6C2065.4 1843.1 2063.5 1846.7 2060.2 1847.8Z" fill="#180C7A"/>
<path d="M1943.8 1425.2L1937.2 1447.9L1914.1 1527.3L1910.3 1540.5L1875.8 1659.3L1872 1672.5L1834.5 1801.3L1830.7 1814.5L1822.2 1843.5C1821.2 1847 1817.7 1849 1814.3 1847.9C1811 1846.8 1809.1 1843.2 1810.1 1839.7L1817.4 1814.5L1821.2 1801.3L1858.7 1672.5L1862.5 1659.3L1897 1540.5L1900.8 1527.3L1930.5 1425.2L1937.1 1402.5L1943.8 1425.2Z" fill="#180C7A"/>
<path d="M2015.4 1066.9L2022.7 1092.1L2026.5 1105.3L2064 1234.1L2067.8 1247.3L2102.3 1366.1L2106.1 1379.3L2146 1516.5L2149.8 1529.7L2190.4 1669.3L2194.2 1682.5L2241 1843.5C2241.8 1846.3 2244.3 1848.2 2247 1848.2C2247.6 1848.2 2248.2 1848.1 2248.8 1847.9C2252.1 1846.8 2254 1843.2 2253 1839.7L2207.3 1682.5L2203.5 1669.3L2162.9 1529.7L2159.1 1516.5L2119.2 1379.3L2115.4 1366.1L2080.9 1247.3L2077.1 1234.1L2039.6 1105.3L2035.8 1092.1L2027.4 1063.1C2026.4 1059.6 2022.9 1057.6 2019.5 1058.7C2016.3 1059.7 2014.4 1063.4 2015.4 1066.9Z" fill="#180C7A"/>
<path d="M1833.7 1092.1H1846.9H2022.7H2035.9L2039.8 1105.3H2026.6H1850.8H1837.6L1833.7 1092.1Z" fill="#180C7A"/>
<path d="M1875 1234.1H1888.2H2064H2077.2L2081.1 1247.3H2067.9H1892.1H1878.9L1875 1234.1Z" fill="#180C7A"/>
<path d="M1913.4 1366H1926.6H2102.4H2115.6L2119.5 1379.2H2106.3H1930.5H1917.2L1913.4 1366Z" fill="#180C7A"/>
<path d="M1957.2 1516.4H1970.4H2146.2H2159.4L2163.2 1529.6H2150H1974.2H1961L1957.2 1516.4Z" fill="#180C7A"/>
<path d="M2001.6 1669.2L2005.4 1682.4H2207.7L2203.8 1669.2H2001.6Z" fill="#180C7A"/>
<path d="M1772.9 656.4C1772.9 656.4 1762.8 642.9 1758.1 638.9C1753.4 634.8 1749.8 640.799 1749.8 640.799C1749.8 640.799 1738.1 638.499 1734.4 636.999C1730.7 635.499 1723.4 634.4 1722 636.9C1720.6 639.4 1738.9 645.499 1738.9 645.499C1738.9 645.499 1723 641.8 1721.2 643.9C1719.4 646 1738.9 653.499 1738.9 653.499C1738.9 653.499 1722.1 648.799 1720.5 649.499C1718.9 650.199 1719.8 652.3 1725.3 655.4C1730.8 658.5 1737.3 660.199 1737.3 660.199C1737.3 660.199 1725.3 657.7 1723.7 657.9C1722.1 658.1 1720.2 659.499 1728.8 663.199C1737.5 666.899 1757.5 671.999 1768.6 670.499L1772.9 656.4Z" fill="#EEAC9C"/>
<path d="M2146.4 825C2146.4 825 2145.8 841.8 2147 847.9C2148.2 854.1 2144.7 860.7 2148.3 861.4C2151.9 862.1 2154.7 851.6 2154.7 851.6C2154.7 851.6 2162.4 860.7 2164.3 864.2C2166.2 867.7 2171.3 873.1 2173.9 872C2176.6 870.9 2166.1 854.7 2166.1 854.7C2166.1 854.7 2176.2 867.5 2178.9 867C2181.6 866.5 2171.1 848.4 2171.1 848.4C2171.1 848.4 2181.2 862.6 2183 863C2184.8 863.5 2185.3 861.3 2183 855.4C2180.6 849.6 2176.7 844.2 2176.7 844.2C2176.7 844.2 2184.5 853.6 2185.9 854.5C2187.2 855.3 2189.6 855.5 2185.2 847.2C2180.8 838.9 2168.3 822.4 2158.7 816.6L2146.4 825Z" fill="#EEAC9C"/>
<path d="M1949.4 1203.4C1949.4 1203.4 1940.3 1207 1926.2 1204.1C1926.2 1204.1 1885.1 1219.1 1885.8 1231.3C1885.8 1231.3 1883.8 1234.8 1902.3 1235C1920.8 1235.2 1949.5 1235.9 1950.3 1235.5C1951.1 1235.1 1958.4 1230.7 1949.4 1203.4Z" fill="#FF6760"/>
<path d="M1926.3 1204L1920 1164L1949.9 1161.1L1950.3 1205.6C1950.2 1205.7 1931.9 1209.9 1926.3 1204Z" fill="white"/>
<path d="M2047.8 1197.9L2032.3 1160.5L2060.7 1150.7L2070.9 1194.9C2070.9 1194.9 2054.7 1202.2 2047.8 1197.9Z" fill="white"/>
<path d="M2070.2 1191.8C2070.2 1191.8 2062.2 1197.5 2047.8 1197.9C2047.8 1197.9 2011.4 1222.1 2014.9 1233.8C2014.9 1233.8 2013.8 1237.7 2031.8 1233.6C2049.8 1229.5 2077.9 1223.5 2078.6 1222.9C2079.3 1222.3 2085.3 1216.3 2070.2 1191.8Z" fill="#FF6760"/>
<path d="M1964.7 891.6C1964.7 891.6 1921.8 991.6 1917.1 1038C1912.4 1084.4 1916.1 1186.4 1916.1 1186.4L1958.2 1187.9C1958.2 1187.9 1959.6 1068.5 1968 1035.1C1976.4 1001.7 2014.6 946.1 2016.7 946.2C2018.8 946.3 1994 1100.7 2029.3 1186.9C2029.3 1186.9 2073.8 1179.1 2071.8 1176C2069.8 1172.8 2054.7 1100.8 2064 1044.2C2073.2 987.6 2096.6 875 2094.7 867.6C2092.9 860.3 1964.7 891.6 1964.7 891.6Z" fill="#080435"/>
<path d="M1950.5 677.3C1950.5 677.3 1985.4 656.2 2019.8 663.6C2067.7 673.8 2094.8 831.4 2102.6 874.3C2102.6 874.3 2022.3 907.2 1954.1 898.6C1954.1 898.6 1922 754.2 1920.8 748.1C1917.2 729.7 1901.6 707.8 1950.5 677.3Z" fill="#222638"/>
<path d="M2015.6 662.8C2015.6 662.8 2137 669.1 2173.7 822L2147.4 829.7C2147.4 829.7 2108.3 743.6 2033.2 716.8L2015.6 662.8Z" fill="#222638"/>
<path d="M1957.2 722.6C1957.2 722.6 1881.6 772.2 1759.1 673.6L1775.2 651.4C1775.2 651.4 1885.4 696.7 1961.2 671.9L1957.2 722.6Z" fill="#222638"/>
<path d="M1935.8 616.5C1935.8 616.5 1932.6 612.6 1930.6 614.6C1925.5 619.6 1931.7 624.5 1935.6 625.3L1935.8 616.5Z" fill="#E08370"/>
<path d="M1932.9 601.2C1932.9 600.8 1932.8 600.3 1932.8 599.9C1930.6 580.3 1945.3 562.8 1965.3 561.8C1981.9 561 1997 572.6 2000.4 588.9C2001.7 595 2001.3 600.9 1999.5 606.3C1997.3 614.6 1995.3 621.7 1993 627.7C1989.2 637.6 1988.9 648.5 1991.8 658.7L1993.7 665.4C1974.1 678.9 1963.7 670.9 1963.7 670.9L1961.6 655.9C1961.3 653.9 1959.6 652.5 1957.6 652.6C1931.4 654.1 1934.2 612.9 1932.9 601.2Z" fill="#EEAC9C"/>
<path d="M1969.9 615.1C1969.7 613.4 1971 611.8 1972.7 611.6C1974.4 611.4 1976 612.7 1976.2 614.4C1976.4 616.1 1975.1 617.7 1973.4 617.9C1971.7 618.1 1970.1 616.9 1969.9 615.1Z" fill="#01011C"/>
<path d="M1941.1 612.7C1940.9 611 1942.2 609.4 1943.9 609.2C1945.6 609 1947.2 610.3 1947.4 612C1947.6 613.7 1946.3 615.3 1944.6 615.5C1942.9 615.7 1941.3 614.4 1941.1 612.7Z" fill="#01011C"/>
<path d="M1980.7 608.9C1981 608.9 1981.3 608.7 1981.6 608.5C1982.4 607.9 1982.6 606.7 1981.9 605.9C1980 603.4 1974.7 599.9 1968 604.3C1967.1 604.9 1966.9 606 1967.5 606.9C1968.1 607.8 1969.2 608 1970.1 607.4C1975.6 603.8 1978.9 608 1979 608.2C1979.4 608.7 1980.1 609 1980.7 608.9Z" fill="#8B6C59"/>
<path d="M1950.5 607.3C1950.8 607.3 1951.1 607.1 1951.4 606.9C1952.2 606.3 1952.4 605.1 1951.7 604.3C1949.8 601.8 1944.5 598.3 1937.8 602.7C1936.9 603.3 1936.7 604.4 1937.3 605.3C1937.9 606.2 1939 606.4 1939.9 605.8C1945.4 602.2 1948.7 606.4 1948.8 606.6C1949.2 607.1 1949.8 607.4 1950.5 607.3Z" fill="#8B6C59"/>
<path d="M1990.1 617.1C1990.5 615.9 1991.4 615 1992.5 614.4C1994.7 613.2 1998.8 611.7 2001.9 614.2C2006.6 617.9 1999.4 629.9 1990.5 625.4C1990.5 625.4 1987.8 623.3 1990.1 617.1Z" fill="#EEAC9C"/>
<path d="M1950.4 636.3C1950.4 636.3 1959.5 637.7 1965.4 635.2C1965.4 635.2 1963.7 642.2 1958.4 642.5C1953 643 1950.4 636.3 1950.4 636.3Z" fill="white"/>
<path d="M1974.8 634.6C1973.6 635.4 1972 636.1 1970.9 635.3C1970.1 634.7 1969.7 632.7 1969.2 631.8C1968.6 630.5 1967.1 629.9 1965.7 629.9C1964.3 629.9 1962.9 630.4 1961.6 630.9C1960.3 631.4 1958.9 631.9 1957.5 631.8C1955.7 631.7 1954.2 630.6 1952.5 630C1950.8 629.4 1948.7 629.3 1947.5 630.6C1946.5 631.7 1946.6 633.4 1946.5 634.9C1946.4 636.4 1945.5 638.2 1944 638.1C1942.7 638.1 1941 637 1940.2 636.1C1936.4 632.1 1936.7 626.8 1934.4 622.5L1934.6 624.1C1935.3 628.8 1935.9 632.1 1937.3 636.6C1939.6 643.4 1941.7 649.1 1946.8 653C1950.8 656 1956 656.4 1960.7 655.5C1965.4 654.5 1969.6 652 1973.3 649C1981.7 642.2 1990 634.9 1989.9 618.7C1989.8 618.7 1989.2 618.5 1989.2 618.6C1988 625.1 1980.3 631 1974.8 634.6ZM1966.4 637.5C1966.3 639.9 1965.8 640.9 1963.6 641.8C1959.1 643.9 1960.5 641.8 1957.3 642C1954.5 642.2 1955.2 643.8 1951.9 643.2C1950.2 642.9 1949.5 640.7 1949.3 639C1949.1 637.3 1948.4 633.2 1949.9 633.9C1955.2 636.5 1959.1 635.3 1963.2 633.8C1964.1 633.5 1965 632.8 1965.8 633.3C1967 634.1 1966.4 636.3 1966.4 637.5Z" fill="#725D46"/>
<path d="M1955 628.4C1958.2 629.5 1960.7 627.6 1960.8 627.6C1961 627.4 1961.1 627.1 1960.9 626.8C1960.7 626.6 1960.4 626.5 1960.1 626.7C1960 626.8 1957.2 628.9 1953.8 626.5C1953.3 626.1 1953 625.8 1952.9 625.5C1952.8 625.1 1953.2 624.6 1953.8 623.8C1955.1 622.1 1957.2 619.2 1957.3 613.3C1957.3 613 1957.1 612.7 1956.8 612.7C1956.5 612.7 1956.2 612.9 1956.2 613.2C1956.1 618.8 1954.2 621.4 1953 623.1C1952.3 624 1951.8 624.8 1951.9 625.6C1952 626.2 1952.4 626.7 1953.2 627.3C1953.8 627.9 1954.4 628.2 1955 628.4Z" fill="#E08370"/>
<path d="M2015.5 710.6C2017.4 711.8 2019.9 711.2 2021 709.3C2022.2 707.4 2021.6 704.9 2019.7 703.8C2017.8 702.6 2015.3 703.2 2014.2 705.1C2013 707 2013.6 709.4 2015.5 710.6Z" fill="#E40D74"/>
<path d="M2020.7 720.3C2021 719.9 2021.3 719.5 2021.4 719C2022.2 717.9 2023.6 716.7 2026 718.3C2026.1 718.4 2026.2 718.5 2026.3 718.5C2028.7 720 2031.7 719.2 2033.2 716.9C2034.5 714.9 2034.1 712.3 2032.4 710.6C2032.2 710.5 2032.1 710.3 2031.9 710.2C2030.9 709.3 2030 708.3 2029.8 706.3C2029.6 704 2031.8 702.4 2031.8 702.4C2033.6 701.3 2034.1 699 2033 697.2C2031.9 695.4 2029.6 694.9 2027.8 696C2026 697.1 2025.5 699.4 2026.6 701.2C2026.7 701.3 2026.7 701.4 2026.8 701.5C2027 701.7 2027.1 701.9 2027.3 702C2028 702.8 2029 704.3 2028.8 706.2C2028.6 707.7 2027.6 709 2026.7 709.7C2026.2 709.9 2025.8 710.3 2025.4 710.7C2024.6 711.5 2024.1 712.6 2024 713.7C2024 713.7 2023.4 717.1 2020.2 716C2020.2 716 2020.1 716 2020.1 715.9C2018.8 715.1 2017.1 715.5 2016.3 716.8C2015.5 718.1 2015.9 719.8 2017.2 720.6C2018.3 721.5 2019.8 721.3 2020.7 720.3Z" fill="#E40D74"/>
<path d="M1838 867.6L1555.8 906.8C1553.2 888.3 1548.3 870.5 1541.5 853.7C1529.3 823.8 1510.9 797.2 1487.8 775.4C1448 737.7 1394.5 714.4 1335.6 713.9C1334.9 713.9 1334.1 713.9 1333.4 713.9V432C1499.6 432 1647.2 511.5 1740.3 634.5C1775.5 681 1802.9 733.7 1820.6 790.6C1828.3 815.5 1834.2 841.2 1838 867.6Z" fill="#4C9EFB"/>
<path d="M1748.4 634.2C1743.6 633 1728.3 633.8 1727.2 636.9C1726.1 640 1748.9 644.4 1748.9 644.4L1758 639C1758 639.1 1754.1 635.6 1748.4 634.2Z" fill="#EEAC9C"/>
<path d="M1819.4 446H1580.2C1568.4 446 1558.9 455.5 1558.9 467.3V573C1558.9 584.8 1568.4 594.3 1580.2 594.3H1603.6V635.3L1628.9 594.3H1819.4C1831.2 594.3 1840.7 584.8 1840.7 573V467.3C1840.7 455.5 1831.1 446 1819.4 446Z" fill="#3D55F7"/>
<path d="M1735.2 493.4H1598.3V501.2H1735.2V493.4Z" fill="#DAE6FF"/>
<path d="M1752.2 513.1H1598.3V520.9H1752.2V513.1Z" fill="#DAE6FF"/>
<path d="M1683.2 532.9H1598.3V540.7H1683.2V532.9Z" fill="#DAE6FF"/>
<g opacity="0.5">
<path d="M1473.2 1110.3C1469.3 1114.7 1465.2 1119 1461 1123.2C1420.8 1162.5 1366 1186.8 1305.4 1187.1C1304.9 1187.1 1304.4 1187.1 1304 1187.1C1286.7 1187.1 1269.8 1185.1 1253.6 1181.4C1229.8 1175.9 1207.4 1166.6 1187.2 1154.2C1122.8 1114.7 1079.8 1043.6 1079.8 962.6C1079.8 838.5 1180.4 738 1304.4 738V456.2C1022.7 456.2 794.4 684.5 794.4 966.2C794.4 1172.8 917.2 1350.7 1093.8 1430.8C1112.3 1439.2 1131.4 1446.5 1151 1452.7C1199.3 1467.9 1250.7 1476.1 1304 1476.1C1305.2 1476.1 1306.3 1476.1 1307.4 1476.1C1340.2 1475.7 1385.5 1469.3 1436 1458.9C1504 1440.7 1566.5 1408.8 1620.2 1366.4C1657.1 1337.2 1690 1302.9 1717.6 1264.7L1473.2 1110.3Z" fill="#7798F8"/>
</g>
<path d="M1248 1683.6C1248 1683.6 1204.2 1667.7 1197.7 1670.6C1194 1672.2 1168.9 1722.8 1175.3 1726.9C1181.7 1731 1206 1694.5 1219.9 1696.4C1233.8 1698.3 1245.3 1704.3 1245.3 1704.3L1248 1683.6Z" fill="#B48473"/>
<path d="M1215.8 1673.2C1192.3 1695 1193.6 1705.8 1196.9 1710.4C1187.5 1719.4 1178.8 1729 1175.4 1726.8C1169 1722.7 1194.1 1672.1 1197.8 1670.5C1200.1 1669.5 1207.4 1671 1215.8 1673.2Z" fill="#080435"/>
<path d="M1445.9 1883.6C1445.9 1883.6 1440.5 1931.9 1444.9 1937.8C1447.4 1941.2 1503.8 1954.9 1506.3 1947.4C1508.9 1939.9 1466.7 1923.8 1465.2 1909.2C1463.8 1894.6 1467 1881.4 1467 1881.4L1445.9 1883.6Z" fill="#B48473"/>
<path d="M1443.2 1918.8C1470.6 1937.6 1481 1933.7 1484.8 1929.4C1496 1936.9 1507.7 1943.4 1506.3 1947.5C1503.7 1955 1447.4 1941.3 1444.9 1937.9C1443.2 1935.7 1443 1927.8 1443.2 1918.8Z" fill="#080435"/>
<path d="M1336.5 1374.3C1336.5 1374.3 1276 1321.6 1290.8 1248.6L1304.3 1252.8C1304.3 1252.8 1307.1 1316.5 1362.7 1354.2L1336.5 1374.3Z" fill="#B48473"/>
<path d="M1473.5 1363.9C1476.3 1362.8 1521.8 1333.5 1519.8 1231.4L1535.6 1232.7C1535.6 1232.7 1550.4 1368.4 1502.4 1394.2L1473.5 1363.9Z" fill="#B48473"/>
<path d="M1417.8 1360.6C1376.8 1356.6 1347.3 1335.5 1347.3 1335.5L1330.7 1381.7C1330.7 1381.7 1373.3 1416.7 1371.7 1425.1C1370.1 1433.5 1368.2 1501.9 1385.4 1507.7H1460.4C1460.4 1507.7 1485.8 1502.5 1485.8 1470.3C1485.8 1438 1492.9 1420.9 1498.3 1412.9C1505 1403 1532.7 1374.3 1532.7 1374.3L1495.2 1332.5C1495.2 1332.5 1479.9 1355.6 1462.3 1360C1449.9 1363.1 1428.9 1361.7 1417.8 1360.6Z" fill="#1E30C6"/>
<path d="M1455.6 1397.4C1457 1398.6 1459 1398.4 1460.2 1397.1C1461.4 1395.7 1461.2 1393.7 1459.9 1392.5C1458.5 1391.3 1456.5 1391.5 1455.3 1392.8C1454.1 1394.2 1454.2 1396.2 1455.6 1397.4Z" fill="white"/>
<path d="M1458.5 1405.8C1458.8 1405.6 1459 1405.2 1459.2 1404.9C1460 1404.1 1461.3 1403.3 1463 1404.9C1463.1 1405 1463.2 1405.1 1463.2 1405.1C1464.9 1406.6 1467.5 1406.4 1468.9 1404.7C1470.2 1403.2 1470.2 1401.1 1469 1399.6C1468.9 1399.5 1468.8 1399.3 1468.7 1399.2C1468 1398.4 1467.4 1397.4 1467.5 1395.8C1467.6 1393.9 1469.6 1392.9 1469.6 1392.9C1471.1 1392.2 1471.9 1390.4 1471.2 1388.9C1470.5 1387.3 1468.7 1386.6 1467.2 1387.3C1465.7 1388 1464.9 1389.8 1465.6 1391.3C1465.6 1391.4 1465.7 1391.5 1465.7 1391.6C1465.8 1391.8 1465.9 1391.9 1466 1392.1C1466.4 1392.8 1467.1 1394.2 1466.6 1395.7C1466.3 1396.9 1465.3 1397.8 1464.4 1398.3C1464 1398.4 1463.6 1398.6 1463.2 1398.9C1462.5 1399.5 1461.9 1400.2 1461.7 1401.1C1461.7 1401.1 1460.8 1403.8 1458.4 1402.5C1458.4 1402.5 1458.4 1402.5 1458.3 1402.4C1457.4 1401.6 1455.9 1401.7 1455.1 1402.6C1454.3 1403.5 1454.4 1405 1455.3 1405.8C1456.5 1406.5 1457.7 1406.5 1458.5 1405.8Z" fill="white"/>
<path d="M1385.4 1507.7C1385.4 1507.7 1367.8 1544 1361.9 1565.5C1356 1587 1350 1679.9 1343.2 1688.5C1336.4 1697.1 1240.6 1679 1240.6 1679L1233 1702.2C1233 1702.2 1332.2 1759.8 1363.6 1749.5C1395 1739.2 1431.8 1618.7 1431.8 1618.7C1431.8 1618.7 1448.3 1735.7 1444.9 1761.5C1441.5 1787.3 1438.1 1896.6 1438.1 1896.6H1472C1472 1896.6 1489 1810.6 1499.1 1694.4C1509.3 1578.3 1460.3 1507.5 1460.3 1507.5H1385.4V1507.7Z" fill="#080435"/>
<path d="M1304.3 1252.8C1304.3 1252.8 1315.8 1242.5 1319.1 1237.8C1322.4 1233.1 1329.1 1231.1 1327.2 1228.4C1325.3 1225.6 1316 1231.3 1316 1231.3C1316 1231.3 1317.8 1219.7 1318.8 1216.2C1319.9 1212.7 1320.2 1206 1317.8 1205C1315.4 1204 1311.3 1221.1 1311.3 1221.1C1311.3 1221.1 1313.3 1206.4 1311.2 1205C1309.1 1203.6 1303.9 1221.9 1303.9 1221.9C1303.9 1221.9 1306.8 1206.3 1306 1204.9C1305.2 1203.5 1303.3 1204.5 1301 1209.8C1298.7 1215.1 1297.6 1221.1 1297.6 1221.1C1297.6 1221.1 1298.8 1210 1298.5 1208.6C1298.2 1207.2 1296.8 1205.5 1294.1 1213.7C1291.4 1221.9 1288.6 1240.5 1290.8 1250.4L1304.3 1252.8Z" fill="#B48473"/>
<path d="M1521.3 1233.6C1521.3 1233.6 1512.5 1220.9 1510.3 1215.5C1508.1 1210.2 1502.1 1206.7 1504.5 1204.4C1506.9 1202.2 1514.8 1209.9 1514.8 1209.9C1514.8 1209.9 1515.7 1198.2 1515.4 1194.6C1515.1 1191 1516.3 1184.3 1518.9 1183.9C1521.5 1183.5 1521.6 1201.1 1521.6 1201.1C1521.6 1201.1 1523 1186.3 1525.3 1185.4C1527.6 1184.5 1528.6 1203.6 1528.6 1203.6C1528.6 1203.6 1529.3 1187.8 1530.4 1186.6C1531.5 1185.4 1533.1 1186.8 1534.2 1192.5C1535.3 1198.2 1535 1204.2 1535 1204.2C1535 1204.2 1536.3 1193.1 1536.9 1191.8C1537.5 1190.5 1539.3 1189.2 1540 1197.8C1540.7 1206.4 1539.3 1225.2 1534.9 1234.3L1521.3 1233.6Z" fill="#B48473"/>
<path d="M1394.6 1341.7C1391.4 1342.8 1387.7 1342.1 1384.8 1340.4C1381.9 1338.7 1379.6 1335.9 1378 1332.9C1375.7 1328.5 1375 1322.6 1378.2 1318.8C1380.5 1316 1384.5 1315 1388.1 1315.7C1391.7 1316.4 1394.8 1318.6 1397.1 1321.4C1399.4 1324.2 1401.6 1326.7 1401.8 1330.3C1402 1333.7 1399 1340.3 1394.6 1341.7Z" fill="#4F413D"/>
<path d="M1450.4 1303.7C1453.4 1305.2 1455.6 1308.3 1456.5 1311.6C1457.4 1314.9 1457 1318.4 1456 1321.7C1454.5 1326.5 1450.9 1331.1 1445.9 1331.5C1442.3 1331.8 1438.7 1329.7 1436.7 1326.7C1434.7 1323.7 1434.1 1319.9 1434.4 1316.3C1434.7 1312.7 1435 1309.4 1437.3 1306.7C1439.5 1304.2 1446.4 1301.7 1450.4 1303.7Z" fill="#4F413D"/>
<path d="M1402.4 1257.8C1385.5 1262.2 1374.3 1278.9 1376.7 1296.2C1377.5 1301.9 1379.6 1307.1 1382.6 1311.4C1389.6 1322.4 1395.3 1331.3 1401.5 1337.4C1407.8 1343.6 1411.7 1351.7 1412.1 1360.5L1412.3 1364C1412.5 1367.3 1414.9 1370.1 1418.2 1370.6C1428.4 1372.3 1434.5 1369.7 1437.8 1367.2C1439.9 1365.6 1441 1363 1440.5 1360.4L1437.4 1343.9C1458.5 1337.2 1448 1298 1445.7 1286.2C1445.6 1285.8 1445.6 1285.3 1445.5 1284.9C1441.7 1265.3 1422.1 1252.7 1402.4 1257.8Z" fill="#B48473"/>
<path d="M1441.9 1303.5C1441.7 1301.8 1440.3 1300.6 1438.6 1300.7C1436.9 1300.9 1435.7 1302.3 1435.8 1304C1436 1305.7 1437.4 1306.9 1439.1 1306.7C1440.8 1306.6 1442 1305.1 1441.9 1303.5Z" fill="#050521"/>
<path d="M1414.3 1312C1414.1 1310.3 1412.7 1309.1 1411 1309.2C1409.3 1309.4 1408.1 1310.8 1408.2 1312.5C1408.4 1314.2 1409.8 1315.4 1411.5 1315.3C1413.2 1315.2 1414.4 1313.7 1414.3 1312Z" fill="#050521"/>
<path d="M1439.5 1326.3C1439.5 1326.3 1436.5 1325.1 1435.1 1325.9C1433.7 1326.7 1433.3 1328.7 1433.3 1328.7C1433.3 1328.7 1431.9 1327.1 1430.1 1327.5C1428.3 1327.9 1423.5 1330.6 1423.5 1330.6C1423.5 1330.6 1430.2 1337.2 1435.3 1334.5C1440.4 1331.8 1439.4 1326.5 1439.4 1326.5L1439.5 1326.3Z" fill="#DD4E4E"/>
<path d="M1403.6 1309.6C1403.2 1309.6 1402.9 1309.5 1402.6 1309.3C1402.1 1308.8 1402 1308 1402.5 1307.5C1402.6 1307.3 1406.1 1303.7 1411.7 1303.2C1412.4 1303.1 1413 1303.6 1413.1 1304.3C1413.2 1305 1412.6 1305.6 1412 1305.7C1407.3 1306.1 1404.5 1309.2 1404.4 1309.2C1404.2 1309.4 1403.9 1309.6 1403.6 1309.6Z" fill="#7A574F"/>
<path d="M1433 1298.6C1432.6 1298.6 1432.3 1298.4 1432 1298.1C1431.6 1297.5 1431.7 1296.8 1432.2 1296.3C1432.4 1296.2 1436.3 1293.2 1442 1293.7C1442.7 1293.8 1443.2 1294.4 1443.1 1295.1C1443 1295.8 1442.4 1296.3 1441.7 1296.2C1437 1295.8 1433.7 1298.3 1433.6 1298.3C1433.6 1298.6 1433.3 1298.6 1433 1298.6Z" fill="#7A574F"/>
<path d="M1430.9 1319.7C1430.2 1320.1 1429.2 1320.5 1428 1320.7C1427.8 1320.7 1427.5 1320.6 1427.5 1320.3C1427.5 1320.1 1427.6 1319.8 1427.9 1319.8C1432.2 1319.2 1432.4 1316.3 1432.4 1315.6C1428.1 1311.9 1427.4 1306 1427.3 1305.7C1427.3 1305.5 1427.4 1305.2 1427.7 1305.2C1427.9 1305.2 1428.2 1305.3 1428.2 1305.6C1428.2 1305.7 1429 1311.6 1433.1 1315C1433.2 1315.1 1433.2 1315.2 1433.3 1315.3C1433.2 1315.3 1433.5 1318.1 1430.9 1319.7Z" fill="#996F62"/>
<path d="M1393.1 1320.2C1395.6 1320.4 1394.1 1316.2 1393.9 1313.7C1393.7 1311.2 1388.1 1292.6 1392.8 1284.2C1397.5 1275.8 1406.7 1270.1 1416.3 1269.9C1425.6 1269.6 1434.7 1274.3 1440.7 1281.4C1446.7 1288.5 1446.8 1293.9 1448.8 1302.6C1448.3 1295.2 1446.9 1285.9 1444.9 1278.7C1443 1271.6 1437.8 1266.8 1432.2 1262C1425.7 1256.4 1418 1255 1409.5 1255.3C1403.1 1255.6 1397.1 1256.6 1392.1 1260.6C1388.3 1263.6 1389.8 1263.9 1387 1266.1C1383.3 1269 1381.3 1268.1 1379.1 1272.3C1373.5 1283 1374.4 1296.2 1378.7 1307.5C1379.8 1310.5 1381.4 1316.2 1383.8 1318.4C1386.3 1320.6 1393.1 1320.2 1393.1 1320.2Z" fill="#4F413D"/>
<path d="M1394.9 1319.1C1394.1 1318.1 1393 1317.4 1391.8 1317.2C1389.3 1316.7 1384.9 1316.5 1382.6 1319.9C1379.2 1324.9 1389.8 1334.4 1397.1 1327.3C1397.1 1327.2 1399 1324.4 1394.9 1319.1Z" fill="#B48473"/>
<path d="M1423.7 1330.8C1423.7 1330.8 1432.5 1330 1439.1 1326.6C1439.1 1326.6 1438.7 1332.7 1434.4 1333.8C1430.1 1334.9 1424.1 1331 1424.1 1331L1423.7 1330.8Z" fill="white"/>
<path d="M1601.3 1128.8C1608.6 1004.1 1455.2 1028.9 1455.2 1028.9C1455.2 1028.9 1458.8 871.4 1338.1 895.4C1217.3 919.5 1282.4 1229.6 1282.4 1229.6C1282.4 1229.6 1594 1253.5 1601.3 1128.8Z" fill="#E31368"/>
<path d="M1320.7 1236C1320.7 1236 1329.3 1230.7 1328.8 1228.6C1328.3 1226.5 1324.5 1226.1 1319.6 1228.6C1314.7 1231.1 1309.3 1233 1309.3 1233L1320.7 1236Z" fill="#B48473"/>
<path d="M1510.3 1215.5C1510.3 1215.5 1497.7 1205.5 1500.2 1203.9C1502.7 1202.3 1516.9 1211.2 1516.9 1211.2L1510.3 1215.5Z" fill="#B48473"/>
<path d="M1083 1051H705.7C679.8 1051 658.8 1072 658.8 1097.9V1770.5C658.8 1807.8 689 1838 726.3 1838H1070.1C1097.5 1838 1119.8 1815.8 1119.8 1788.3V1087.8C1119.7 1067.4 1103.3 1051 1083 1051Z" fill="#6D76FF"/>
<path d="M1075.5 1844.4H703.1C675.1 1844.4 652.4 1821.4 652.4 1793V1095.9C652.4 1067.5 675.1 1044.5 703.1 1044.5H1075.4C1103.4 1044.5 1126.1 1067.5 1126.1 1095.9V1793C1126.2 1821.4 1103.5 1844.4 1075.5 1844.4ZM703.1 1057.5C682.2 1057.5 665.3 1074.7 665.3 1095.9V1793C665.3 1814.2 682.2 1831.4 703.1 1831.4H1075.4C1096.3 1831.4 1113.2 1814.2 1113.2 1793V1095.9C1113.2 1074.7 1096.3 1057.5 1075.4 1057.5H703.1Z" fill="#060423"/>
<path d="M1088.2 1837.9H699.5C677.1 1837.9 658.9 1819.7 658.9 1797.3V1783.7H1119.8V1806.4C1119.7 1823.7 1105.6 1837.9 1088.2 1837.9Z" fill="#060423"/>
<path d="M1089 910.3C1089 910.3 1092.2 906.5 1097.2 904.8C1102.2 903 1117.6 899.8 1119.9 898.7C1122.2 897.6 1132.9 889.3 1135.4 889.1C1137.9 888.9 1126.6 901.5 1126.6 901.5C1126.6 901.5 1137.7 892.1 1140 893.6C1142.3 895.1 1131.2 906.2 1131.2 906.2C1131.2 906.2 1142.2 896.3 1143.7 898.3C1145.3 900.2 1134.7 910 1134.7 910C1134.7 910 1143.3 902.5 1144.6 904C1145.8 905.6 1133.3 919.4 1125.9 921.1C1118.5 922.9 1094.9 926.5 1094.9 926.5L1089 910.3Z" fill="#FFA089"/>
<path d="M1000.6 1262.7C1000.6 1262.7 995.4 1291.6 1005.3 1306.5C1015.1 1321.4 1035.8 1342.9 1030.1 1348.2C1024.4 1353.5 964 1320.2 965.6 1313.4C967.2 1306.5 977.9 1278.6 976.4 1261.9L1000.6 1262.7Z" fill="#FFA089"/>
<path d="M969.8 1299.4C967.9 1305.7 966.2 1310.9 965.6 1313.3C964 1320.2 1024.4 1353.5 1030.1 1348.1C1034.4 1344.1 1024.1 1331.3 1014.5 1318.8C1008.6 1322.3 994.1 1325.5 969.8 1299.4Z" fill="#080435"/>
<path d="M1052 1215.8C1052 1215.8 1046.8 1244.7 1056.7 1259.6C1066.5 1274.5 1087.2 1296 1081.5 1301.3C1075.8 1306.6 1015.4 1273.3 1017 1266.5C1018.6 1259.6 1029.3 1231.7 1027.8 1215L1052 1215.8Z" fill="#FFA089"/>
<path d="M1021.2 1252.5C1019.3 1258.8 1017.5 1264 1017 1266.4C1015.4 1273.3 1075.8 1306.6 1081.5 1301.2C1085.8 1297.2 1075.5 1284.4 1065.9 1271.9C1060 1275.4 1045.6 1278.6 1021.2 1252.5Z" fill="#080435"/>
<path d="M863.3 994.6C863.3 994.6 861.8 1037.7 878.1 1061.8C894.4 1086 961.6 1123.8 964.2 1130.4C966.8 1136.9 972.7 1272.2 972.7 1272.2L1009.8 1273.5C1009.8 1273.5 1023.4 1132.5 1015.8 1106.4C1008.2 1080.4 975 1050.2 975 1050.2C975 1050.2 1028.2 1081.1 1030.1 1088.3C1032 1095.5 1020.9 1225.9 1020.9 1225.9L1057.8 1232.9C1057.8 1232.9 1088.5 1096 1088.3 1061C1088.1 1026 964.5 977.9 964.5 977.9L863.3 994.6Z" fill="#180C7A"/>
<path d="M904.7 816.8C904.7 816.8 850.4 819.7 833.6 840.5C816.8 861.3 782.2 922.7 791.9 1015.6L818.1 1016.6C818.1 1016.6 838.9 938.6 854.8 912C854.8 912 856 957.8 864.5 1001C864.5 1001 907.1 1028.3 974.6 982.1L971 963.4L969 942.4C969 942.4 998 965.1 1032.8 961.8C1078.1 957.5 1101.5 926.9 1101.5 926.9L1092.3 903.6C1092.3 903.6 1021.5 935.3 1000 906C978 876.1 981 826.5 904.7 816.8Z" fill="#E31368"/>
<path d="M974.5 982.9H974.7C975.1 982.8 975.3 982.4 975.2 982C969.1 957.6 969 928.7 969 926.5C969.4 925.5 971.5 919.3 973.1 903C974.8 885.1 958.4 874.2 958.2 874.1C957.9 873.9 957.4 874 957.2 874.3C957 874.6 957.1 875.1 957.4 875.3C957.6 875.4 973.2 885.9 971.6 902.8C969.9 920.1 967.6 926 967.6 926C967.6 926.1 967.5 926.2 967.5 926.3C967.5 926.6 967.4 956.9 973.7 982.3C973.9 982.6 974.2 982.9 974.5 982.9Z" fill="#060423"/>
<path d="M897.2 916C904 916.2 911.6 915.3 919.1 911.8C919.5 911.6 919.6 911.2 919.5 910.8C919.3 910.4 918.9 910.3 918.5 910.4C896.6 920.4 874.4 908.9 874.2 908.8C873.8 908.6 873.4 908.7 873.2 909.1C873 909.5 873.1 909.9 873.5 910.1C873.6 910.3 883.8 915.5 897.2 916Z" fill="#060423"/>
<path d="M814.9 1016.5C814.9 1016.5 808.9 1040.8 803.9 1042.5C798.9 1044.2 783.4 1047.1 781.1 1048.2C778.8 1049.3 768 1057.4 765.5 1057.5C763 1057.6 774.5 1045.2 774.5 1045.2C774.5 1045.2 763.2 1054.4 761 1052.9C758.8 1051.4 770.1 1040.5 770.1 1040.5C770.1 1040.5 758.9 1050.2 757.4 1048.2C755.9 1046.2 766.6 1036.7 766.6 1036.7C766.6 1036.7 757.8 1044.1 756.7 1042.5C755.5 1040.9 768.1 1026.4 775.7 1025.7C793.6 1024 799.1 1016 799.1 1016L814.9 1016.5Z" fill="#FFA089"/>
<path d="M810.5 1030.9C810.5 1030.9 804.5 1046.6 800.6 1049.6C796.6 1052.6 789.3 1059.6 788.1 1057.8C786.9 1056.1 796.4 1045.6 796 1044C795.6 1042.4 800.7 1038.7 800.7 1038.7L811 1029.4L810.5 1030.9Z" fill="#FFA089"/>
<path d="M1159.1 728.4L1164.2 791.5C1164.4 793.6 1165.5 795.5 1167.3 796.5L1221.4 827.8C1225.9 830.4 1225.5 837.2 1220.7 839.2L1163.1 863.8C1161.2 864.6 1159.8 866.3 1159.4 868.4L1146.6 930.4C1145.5 935.6 1139.1 937.3 1135.7 933.3L1095 885.4C1093.7 883.8 1091.6 883 1089.6 883.2L1027.6 890.2C1022.4 890.8 1018.9 885.1 1021.6 880.6L1054.1 826.4C1055.2 824.6 1055.3 822.4 1054.5 820.5L1029 762.8C1026.9 758 1031.1 752.8 1036.2 754L1096.9 768.4C1098.9 768.9 1101 768.3 1102.6 766.9L1148.9 724.3C1152.5 720.6 1158.7 723.1 1159.1 728.4Z" fill="#009A8D"/>
<path d="M1093.3 906.5C1093.3 906.5 1100.4 897.2 1104.3 894.1C1108.2 891.1 1115.4 883.9 1116.6 885.6C1117.8 887.3 1108.9 897.9 1108.9 899.5C1109 906.1 1105.6 917.7 1105.6 917.7L1094 908.3L1093.3 906.5Z" fill="#FFA089"/>
<path d="M882.9 710.4C864.9 713.3 851.8 729.5 852.6 747.7C852.9 753.7 854.5 759.2 857.3 764C863.5 776.1 868.6 785.8 874.4 792.7C880.3 799.7 883.6 808.5 883.1 817.6L882.9 821.3C882.7 824.8 885 827.9 888.4 828.7C898.8 831.4 905.4 829.3 909.1 827.1C911.5 825.7 912.8 823 912.5 820.3L910.8 802.9C933.3 798 926.2 756.4 925 744C925 743.5 924.9 743.1 924.9 742.6C922.9 722 903.8 707 882.9 710.4Z" fill="#F1AF8E"/>
<path d="M919.3 761.5C919.3 759.8 917.9 758.3 916.1 758.3C914.4 758.3 912.9 759.7 912.9 761.5C912.9 763.2 914.3 764.7 916.1 764.7C917.9 764.7 919.3 763.2 919.3 761.5Z" fill="#050521"/>
<path d="M889.9 767.7C889.9 766 888.5 764.5 886.7 764.5C885 764.5 883.5 765.9 883.5 767.7C883.5 769.4 884.9 770.9 886.7 770.9C888.5 770.9 889.9 769.4 889.9 767.7Z" fill="#050521"/>
<path d="M914.6 784.9C914.6 784.9 911.6 783.4 910.1 784C908.6 784.7 908 786.7 908 786.7C908 786.7 906.8 784.9 904.8 785.2C902.8 785.5 897.6 787.8 897.6 787.8C897.6 787.8 903.9 795.3 909.5 793C915.1 790.7 914.5 785.2 914.5 785.2L914.6 784.9Z" fill="#D15B57"/>
<path d="M909.7 789.1C903.2 791.5 896 787.6 895.9 787.5C895.7 787.4 895.6 787.1 895.7 786.9C895.8 786.7 896.1 786.6 896.3 786.7C896.8 787 908 793.1 914.4 784.2C914.5 784 914.8 784 915 784.1C915.2 784.2 915.2 784.5 915.1 784.7C913.6 787 911.7 788.4 909.7 789.1Z" fill="#050521"/>
<path d="M879.1 764.2C878.7 764.2 878.3 764.1 878.1 763.8C877.6 763.3 877.7 762.4 878.2 761.9C878.4 761.8 882.2 758.3 888.1 758.3C888.8 758.3 889.4 758.9 889.4 759.6C889.4 760.3 888.8 760.9 888.1 760.9C883.2 760.9 880 763.8 879.9 763.8C879.7 764 879.4 764.2 879.1 764.2Z" fill="#6E3324"/>
<path d="M910.6 755.6C910.2 755.5 909.9 755.3 909.7 755C909.3 754.4 909.5 753.6 910.1 753.2C910.3 753.1 914.7 750.4 920.5 751.5C921.2 751.6 921.7 752.3 921.6 753C921.5 753.7 920.8 754.2 920.1 754.1C915.3 753.2 911.6 755.5 911.6 755.5C911.2 755.6 910.9 755.7 910.6 755.6Z" fill="#6E3324"/>
<path d="M906.4 777.2C905.6 777.6 904.6 777.9 903.3 777.9C903 777.9 902.8 777.7 902.8 777.5C902.8 777.2 903 777 903.2 777C907.7 776.8 908.2 773.8 908.2 773C904.1 768.8 903.9 762.5 903.9 762.3C903.9 762 904.1 761.8 904.4 761.8C904.7 761.8 904.9 762 904.9 762.3C904.9 762.4 905.1 768.6 909.1 772.5C909.2 772.6 909.2 772.7 909.2 772.8C909.2 772.9 909.2 775.8 906.4 777.2Z" fill="#DF8270"/>
<path d="M869.2 773.1C868.5 772 867.4 771.2 866.1 770.8C863.5 770 859 769.4 856.3 772.7C852.3 777.6 862.3 788.5 870.6 781.8C870.6 781.8 872.9 779 869.2 773.1Z" fill="#F1AF8E"/>
<path d="M865 783.6C865.607 783.6 866.1 783.108 866.1 782.5C866.1 781.893 865.607 781.4 865 781.4C864.392 781.4 863.9 781.893 863.9 782.5C863.9 783.108 864.392 783.6 865 783.6Z" fill="#E4E1CF"/>
<path d="M863.1 775C863.321 775 863.5 774.821 863.5 774.6C863.5 774.379 863.321 774.2 863.1 774.2C862.879 774.2 862.7 774.379 862.7 774.6C862.7 774.821 862.879 775 863.1 775Z" fill="#E4E1CF"/>
<path d="M862.3 773.9C862.521 773.9 862.7 773.721 862.7 773.5C862.7 773.279 862.521 773.1 862.3 773.1C862.079 773.1 861.9 773.279 861.9 773.5C861.9 773.721 862.079 773.9 862.3 773.9Z" fill="#E4E1CF"/>
<path d="M861.9 727.6C861.1 723 862.2 719.1 865.2 715.6C868.2 712.1 872.4 709.7 876.8 708.2C891.7 703.1 909.5 707.7 919.9 719.5C930.4 731.3 932.9 749.5 926 763.7C925.6 756.1 925.1 748.2 921.4 741.6C916.7 733.1 907.2 728 897.7 726.3C888.1 724.6 879.9 725.5 871.6 730.9C880.7 724.2 893.5 723.9 903.2 727C912.9 730.2 918.3 734.6 923.6 745.3C909 736.5 894.7 731.6 877.7 732.1C874.4 732.2 868.9 733.2 865.9 731.7C862.9 730.2 859.6 730.7 861.6 728L861.9 727.6Z" fill="#D5B284"/>
<path d="M866.5 724.6C862.3 720.8 853.1 721.5 849.3 725.7C845.5 729.9 844.4 736 844.8 741.7C845.4 752.1 850.3 762.3 858 769.3C860.4 771.5 863.8 773.5 866.7 772.1C869 771.1 870 768.3 869.9 765.9C869.8 763.4 868.9 761.1 868.1 758.7C864.6 748.1 866.6 740.2 870.6 729.8L866.5 724.6Z" fill="#D5B284"/>
<path d="M930.901 858.6C932.301 859.4 934.001 859 934.901 857.7C935.801 856.4 935.301 854.6 934.001 853.7C932.601 852.9 930.901 853.3 930.001 854.6C929.101 856 929.501 857.8 930.901 858.6Z" fill="white"/>
<path d="M934.601 865.6C934.801 865.3 935.001 865 935.101 864.7C935.601 863.9 936.701 863.1 938.401 864.2C938.501 864.3 938.601 864.3 938.601 864.4C940.301 865.4 942.501 864.9 943.501 863.2C944.401 861.8 944.101 859.9 942.901 858.7C942.801 858.6 942.701 858.5 942.601 858.4C941.901 857.8 941.301 857 941.101 855.6C940.901 853.9 942.501 852.8 942.501 852.8C943.801 852 944.101 850.3 943.301 849.1C942.501 847.8 940.801 847.5 939.601 848.3C938.301 849.1 938.001 850.8 938.801 852C938.801 852.1 938.901 852.1 939.001 852.2C939.101 852.3 939.201 852.5 939.401 852.6C939.901 853.2 940.601 854.3 940.401 855.6C940.301 856.7 939.501 857.6 938.901 858.1C938.601 858.3 938.201 858.5 938.001 858.8C937.401 859.4 937.101 860.1 937.001 861C937.001 861 936.601 863.5 934.301 862.7C934.301 862.7 934.301 862.7 934.201 862.7C933.301 862.1 932.001 862.4 931.501 863.3C930.901 864.2 931.201 865.5 932.101 866C932.901 866.4 933.901 866.3 934.601 865.6Z" fill="white"/>
<path d="M774.1 1639.8H736.8V1739H774.1V1639.8Z" fill="#B8D0FC"/>
<path d="M839.7 1571.1H802.4V1739.1H839.7V1571.1Z" fill="#B8D0FC"/>
<path d="M906.6 1513H869.3V1739H906.6V1513Z" fill="#B8D0FC"/>
<path d="M972.2 1476.1H934.9V1739.1H972.2V1476.1Z" fill="#B8D0FC"/>
<path d="M1036.7 1434.7H999.4V1739H1036.7V1434.7Z" fill="#B8D0FC"/>
<path d="M746.9 1568.8L740.5 1562.4L850.5 1454.7H900.1L963.1 1392.7L969.4 1399.1L903.8 1463.8H854.2L746.9 1568.8Z" fill="#E31368"/>
<path d="M969.5 1423.4L960.6 1421.6L966.2 1395.1L939 1404.4L936.1 1395.9L978.3 1381.4L969.5 1423.4Z" fill="#E31368"/>
<path d="M840.3 1352.1C839 1345.5 836.7 1339.2 833.7 1333.3C830.6 1327.2 826.6 1321.5 821.9 1316.5C808 1301.6 788.1 1292.2 765.9 1292.2C764.4 1292.2 763 1292.2 761.5 1292.3C733.2 1293.9 709 1310.8 697.4 1334.7C692.7 1344.4 690.1 1355.3 690.1 1366.7C690.1 1393.8 704.7 1417.4 726.7 1430.5C734.9 1435.4 744.2 1438.8 754.1 1440.3C758 1440.9 762 1441.2 766 1441.2C798.3 1441.2 825.8 1421.4 836.8 1393.5C837.6 1391.3 838.4 1389.1 839 1386.9C840.6 1381.4 841.5 1375.6 841.8 1369.7C841.8 1368.7 841.9 1367.7 841.9 1366.7C841.8 1361.8 841.3 1356.8 840.3 1352.1ZM807.2 1368.4C807.1 1370.8 806.8 1373.1 806.3 1375.4C805.9 1377.4 805.2 1379.4 804.5 1381.4C798.5 1396.6 783.6 1407.4 766 1407.4C763.1 1407.4 760.2 1407.1 757.4 1406.5C752.6 1405.5 748.1 1403.7 744.1 1401.2C732.5 1394 724.7 1381.3 724.7 1366.8C724.7 1360.4 726.2 1354.4 728.9 1349C735 1336.7 747.2 1327.9 761.6 1326.4C763 1326.2 764.5 1326.2 766 1326.2C772.8 1326.2 779.3 1327.8 784.9 1330.7C792.4 1334.5 798.5 1340.5 802.4 1347.8C804.2 1351.2 805.6 1354.9 806.4 1358.8C806.9 1361.4 807.2 1364 807.2 1366.8C807.2 1367.3 807.2 1367.9 807.2 1368.4Z" fill="#B8D0FC"/>
<path d="M757.4 1406.4L754.1 1440.4C744.2 1438.9 735 1435.5 726.7 1430.6C704.8 1417.5 690.1 1393.8 690.1 1366.8C690.1 1355.3 692.7 1344.5 697.4 1334.8L728.8 1349.1C726.1 1354.5 724.6 1360.5 724.6 1366.9C724.6 1381.4 732.3 1394.1 744 1401.3C748.1 1403.6 752.6 1405.5 757.4 1406.4Z" fill="#91B3FF"/>
<path d="M839 1387C838.4 1389.3 837.6 1391.5 836.8 1393.6C825.8 1421.5 798.3 1441.3 766 1441.3C751.6 1441.3 738.2 1437.4 726.7 1430.5C731.7 1421.9 738 1411.4 744.1 1401.1C750.4 1405 757.9 1407.3 765.9 1407.3C783.4 1407.3 798.4 1396.5 804.4 1381.3C805.2 1379.4 805.8 1377.4 806.2 1375.3L831.6 1383.9L839 1387Z" fill="#7798F8"/>
<path d="M841.8 1366.8C841.8 1367.8 841.8 1368.8 841.7 1369.8C841.4 1378.2 839.6 1386.2 836.7 1393.6L804.4 1381.4C806 1377.4 806.9 1373 807.1 1368.4C807.1 1367.9 807.1 1367.3 807.1 1366.8C807.1 1364.1 806.8 1361.4 806.3 1358.8L840.2 1352.1C841.3 1356.8 841.8 1361.8 841.8 1366.8Z" fill="#4C4BF4"/>
<path d="M841.8 1366.8C841.8 1367.8 841.8 1368.8 841.7 1369.8L807.1 1368.4C807.1 1367.9 807.1 1367.3 807.1 1366.8C807.1 1360 805.4 1353.5 802.3 1347.8C798.4 1340.5 792.2 1334.5 784.8 1330.7L790.1 1320.6L821.8 1316.4C826.5 1321.4 830.5 1327.1 833.6 1333.2C838.9 1343.4 841.8 1354.7 841.8 1366.8Z" fill="#6D76FF"/>
<path d="M833.7 1333.3L802.4 1347.8C795.5 1335 781.8 1326.2 765.9 1326.2C764.4 1326.2 762.9 1326.3 761.5 1326.4V1292.3C763 1292.2 764.4 1292.2 765.9 1292.2C795.6 1292.2 821.3 1308.9 833.7 1333.3Z" fill="#FF5150"/>
<path d="M798.9 1327.5C798.9 1324.9 801 1322.8 803.6 1322.8C806.2 1322.8 808.3 1324.9 808.3 1327.5C808.3 1330.1 806.2 1332.2 803.6 1332.2C801 1332.2 798.9 1330.1 798.9 1327.5Z" fill="#B8D0FC"/>
<path d="M911.2 1287.5C911.2 1284.9 913.3 1282.8 915.9 1282.8C918.5 1282.8 920.6 1284.9 920.6 1287.5C920.6 1290.1 918.5 1292.2 915.9 1292.2C913.3 1292.2 911.2 1290.1 911.2 1287.5Z" fill="#B8D0FC"/>
<path d="M804 1327.8L803.2 1327.3L827.5 1287.1H915.9V1288H828L804 1327.8Z" fill="#B8D0FC"/>
<path d="M906.2 1257.7H827.3V1262.2H906.2V1257.7Z" fill="#B8D0FC"/>
<path d="M874.4 1267.9H827.3V1272.4H874.4V1267.9Z" fill="#B8D0FC"/>
<path d="M445.601 1217.1L837.601 1213.2C865.701 1212.9 888.501 1189.7 888.201 1161.6C887.901 1133.5 864.701 1110.8 836.601 1111.1L444.601 1115C416.501 1115.3 393.701 1138.5 394.001 1166.6C394.301 1194.7 417.501 1217.4 445.601 1217.1Z" fill="white"/>
<path d="M445.101 1219.1C416.101 1219.1 392.401 1195.7 392.001 1166.6C391.901 1152.5 397.201 1139.1 407.201 1128.9C417.201 1118.7 430.401 1113.1 444.501 1112.9L836.501 1109C865.701 1108.7 889.801 1132.3 890.101 1161.5C890.201 1175.6 884.901 1189 874.901 1199.2C864.901 1209.4 851.701 1215 837.601 1215.2L445.601 1219.1C445.401 1219.1 445.201 1219.1 445.101 1219.1ZM837.001 1113.1C836.801 1113.1 836.701 1113.1 836.501 1113.1L444.501 1117C431.401 1117.1 419.201 1122.4 410.001 1131.8C400.801 1141.2 395.801 1153.6 395.901 1166.6C396.201 1193.5 418.101 1215.1 445.001 1215.1C445.201 1215.1 445.301 1215.1 445.501 1215.1L837.501 1211.2C850.601 1211.1 862.801 1205.8 872.001 1196.4C881.201 1187 886.201 1174.6 886.101 1161.6C885.801 1134.8 863.901 1113.1 837.001 1113.1Z" fill="#00A295"/>
<path d="M800.201 1152.1L777.302 1155.6L794.102 1171.1L790.401 1193.3L810.802 1182.6L831.401 1192.8L827.201 1170.7L843.602 1154.8L820.602 1151.9L810.201 1131.9L800.201 1152.1Z" fill="#19AB9F"/>
<path d="M713.701 1153L690.901 1156.5L707.601 1171.9L704.001 1194.1L724.401 1183.4L745.001 1193.6L740.801 1171.6L757.201 1155.7L734.201 1152.7L723.701 1132.7L713.701 1153Z" fill="#19AB9F"/>
<path d="M627.301 1153.8L604.501 1157.3L621.201 1172.8L617.601 1195L638.001 1184.3L658.601 1194.5L654.401 1172.4L670.801 1156.5L647.801 1153.6L637.301 1133.6L627.301 1153.8Z" fill="#19AB9F"/>
<path d="M540.901 1154.7L518.001 1158.2L534.801 1173.6L531.201 1195.8L551.501 1185.1L572.201 1195.3L568.001 1173.3L584.401 1157.4L561.401 1154.4L550.901 1134.4L540.901 1154.7Z" fill="#19AB9F"/>
<path d="M454.501 1155.5L431.601 1159L448.401 1174.5L444.801 1196.7L465.101 1186L485.701 1196.2L481.601 1174.1L497.901 1158.3L475.001 1155.3L464.501 1135.3L454.501 1155.5Z" fill="#19AB9F"/>
</svg>
