<svg width="3000" height="2000" viewBox="0 0 3000 2000" fill="none" xmlns="http://www.w3.org/2000/svg">
<path opacity="0.2" d="M2527.03 1939.9C2781.81 1945.01 2985 1755.38 2985 1484.91C2985 1164.01 2782.61 1078.38 2718.32 897.56C2661.32 737.384 2761.01 607.743 2643.42 433.115C2525.23 257.508 2293.34 56.4728 2091.46 130.367C1726.28 263.811 1591.19 8.76776 1262.91 1.16103C1061.02 -3.51168 864.536 94.0718 723.845 220.67C613.152 320.1 608.352 462.781 528.057 580.685C444.963 702.719 290.273 811.712 186.679 916.903C-103.302 1211.28 2.19113 1687.79 293.672 1906.21C293.672 1906.21 2526.13 1939.9 2527.03 1939.9Z" fill="#37BCF5"/>
<path d="M2865.5 1904.1C2865.5 1852.4 2333.7 1811.8 1574.3 1811.8C814.9 1811.8 199.2 1853.7 199.2 1905.4C199.2 1957.1 814.9 1999 1574.3 1999C2333.7 1999 2865.5 1955.8 2865.5 1904.1Z" fill="#37BCF5"/>
<path d="M2779.3 337.6C2819.9 202.6 2734.3 57.6001 2588.1 13.7001C2441.9 -30.1999 2290.6 43.6001 2250 178.5C2230.3 244 2240.3 311.8 2272.5 369.3C2301.7 421.4 2309 482.9 2291.8 540.1C2277.9 586.4 2304.1 635.1 2350.4 649L2436.1 674.8C2482.4 688.7 2531.1 662.5 2545 616.2C2562.2 559 2602.2 511.7 2655.2 484.3C2713.9 454.1 2759.6 403 2779.3 337.6Z" fill="#FBB03B"/>
<path d="M2430.5 706.4C2428.9 705.9 2427.9 704.2 2428.3 702.5C2435 674.8 2604.2 261.6 2611.4 244C2612.1 242.3 2614 241.5 2615.6 242.2C2617.3 242.9 2618.1 244.8 2617.4 246.4C2615.6 250.7 2441.2 676.7 2434.6 703.9C2434.2 705.6 2432.4 706.7 2430.7 706.3C2430.7 706.4 2430.6 706.4 2430.5 706.4Z" fill="#060633"/>
<path d="M2335.3 677.8C2335.2 677.8 2335.2 677.8 2335.1 677.7C2333.4 677.1 2332.5 675.2 2333.1 673.5C2342.6 647.2 2431.9 195.5 2432.8 191C2433.1 189.2 2434.9 188.1 2436.6 188.4C2438.4 188.7 2439.5 190.5 2439.2 192.2C2435.5 210.8 2348.9 648.9 2339.3 675.7C2338.7 677.4 2337 678.2 2335.3 677.8Z" fill="#060633"/>
<path d="M2484.6 324.8C2476.5 322.4 2469 317 2463.7 309.5C2457.6 311.6 2450.9 312 2444.6 309.5C2436 306 2429.3 297.4 2426.7 286.4C2424.4 276.9 2425.3 247.3 2426.1 237.2C2426.2 236.3 2427 235.6 2427.9 235.7C2428.8 235.8 2429.5 236.6 2429.4 237.5C2428.5 247.9 2427.8 276.9 2429.9 285.6C2432.3 295.6 2438.3 303.3 2445.9 306.4C2451.2 308.5 2456.8 308.3 2462 306.7C2462 306.7 2462 306.7 2462 306.6C2453.7 292.7 2453.9 276.8 2455.5 265.9C2457.5 252.2 2462.4 241.8 2470.1 235C2473.7 231.9 2477.4 230.1 2481 229.7C2490.3 228.8 2498.2 237.6 2499.7 246.4C2501.2 255.1 2498.2 263.6 2495 271.7C2491.1 281.7 2486.1 293 2477.5 301.2C2474.6 304 2471 306.4 2467 308.2C2474.4 318.2 2486.1 323.9 2497.2 322.7C2501.9 322.2 2506.4 320.5 2510.6 317.8C2507.4 314.3 2505.2 310 2504.5 305.4C2503.7 300.1 2504.7 294.9 2505.9 290C2509.5 275.4 2515.3 261.5 2523.4 248.7C2523.7 248.2 2524.2 248 2524.7 247.9C2530.1 247.8 2534.1 252.2 2535.6 256.4C2537.2 260.7 2536.9 265.4 2536.4 269.7C2535.4 280.1 2533.3 293.4 2526.8 304.8C2523.8 310.1 2519.9 314.6 2515.6 318.1C2520.2 322 2526.4 324.4 2532.8 324.3C2536.3 324.3 2539.8 323.6 2543.2 322.4C2542 318.5 2541.6 314.6 2541.4 311.5C2540.1 287.1 2548.3 262.4 2563.8 243.6C2564.1 243.2 2564.5 243 2565 243C2572.4 242.7 2578.2 248.9 2580 255.3C2581.9 261.8 2580.7 268.7 2579.4 274.7C2577.1 285.1 2573.5 298.4 2565.3 309.4C2560.3 316.1 2554.1 321.2 2547.3 324.2C2549 328.4 2551.7 332.2 2556.2 333.9C2559.9 335.3 2563.7 334.9 2566.2 334.3C2575 332.2 2582.3 324.1 2583.5 315.1C2583.6 314.2 2584.4 313.6 2585.3 313.7C2586.2 313.8 2586.8 314.6 2586.7 315.5C2585.3 326 2577.2 335 2566.9 337.5C2562.6 338.5 2558.5 338.4 2554.9 337C2549.5 334.9 2546.2 330.4 2544.2 325.5C2540.5 326.8 2536.6 327.5 2532.8 327.6C2525.3 327.7 2518.2 324.7 2512.9 320.1C2508.1 323.3 2502.9 325.3 2497.5 325.9C2493.1 326.6 2488.8 326.1 2484.6 324.8ZM2485.4 233.6C2484.1 233.2 2482.6 233 2481.2 233.2C2478.2 233.5 2475.2 235 2472.1 237.7C2465.1 243.9 2460.4 253.9 2458.5 266.6C2457 277 2456.8 292.1 2464.6 305.1C2464.7 305.3 2464.8 305.5 2464.9 305.7C2468.7 304 2472.3 301.7 2475 299C2483.2 291.2 2487.9 280.3 2491.7 270.7C2494.7 263.1 2497.5 255.1 2496.2 247.2C2495.3 241.2 2491 235.3 2485.4 233.6ZM2525.4 251.4C2517.8 263.6 2512.2 276.9 2508.8 290.9C2507.7 295.5 2506.8 300.3 2507.5 305C2508.1 309.1 2510.1 312.9 2513.1 316C2517.3 312.7 2521 308.4 2523.9 303.3C2530.1 292.4 2532 279.5 2533 269.5C2533.4 265.5 2533.7 261.3 2532.4 257.6C2531.3 254.7 2528.5 251.7 2525.4 251.4ZM2565.7 246.5C2550.9 264.6 2543.2 288.2 2544.5 311.5C2544.6 313.8 2545 317.5 2546.1 321.3C2552.3 318.4 2558 313.7 2562.5 307.6C2570.3 297.1 2573.9 284.2 2576.1 274.2C2577.3 268.7 2578.5 262.3 2576.8 256.4C2575.4 251.7 2571.1 246.7 2565.7 246.5Z" fill="#060633"/>
<path d="M2440.6 822.6L2265.2 769.9C2254.9 766.8 2249 755.9 2252.1 745.6L2264.8 703.5L2477.5 767.4L2464.8 809.5C2461.8 819.8 2450.9 825.7 2440.6 822.6Z" fill="#37BCF5"/>
<path d="M2375.5 768.8C2312.9 750 2262.4 715.4 2259.3 713.1C2249.7 706.4 2247.3 693.2 2254 683.7C2260.7 674.1 2273.9 671.7 2283.4 678.4C2285.1 679.6 2389.7 751 2472.8 736.6C2484.3 734.6 2495.3 742.3 2497.3 753.8C2499.3 765.3 2491.6 776.3 2480.1 778.3C2445.2 784.3 2408.6 778.7 2375.5 768.8Z" fill="#060633"/>
<path d="M2385.3 735.8C2322.7 717 2272.3 682.4 2269.1 680.1C2259.5 673.4 2257.1 660.2 2263.8 650.7C2270.5 641.1 2283.7 638.7 2293.2 645.4C2294.9 646.6 2399.5 718 2482.6 703.6C2494.1 701.6 2505.1 709.3 2507.1 720.8C2509.1 732.3 2501.4 743.3 2489.9 745.3C2455.1 751.3 2418.5 745.8 2385.3 735.8Z" fill="#37BCF5"/>
<path d="M2395.2 702.9C2332.6 684.1 2282.1 649.5 2279 647.2C2269.4 640.5 2267 627.3 2273.7 617.8C2280.4 608.2 2293.6 605.8 2303.1 612.5C2304.8 613.7 2409.4 685.1 2492.5 670.7C2504 668.7 2515 676.4 2517 687.9C2519 699.4 2511.3 710.4 2499.8 712.4C2465 718.4 2428.4 712.9 2395.2 702.9Z" fill="#060633"/>
<path d="M1005.48 524.956C1048.6 481.843 1048.6 411.942 1005.48 368.829C962.37 325.715 892.469 325.715 849.356 368.829C806.242 411.942 806.242 481.843 849.356 524.956C892.469 568.07 962.37 568.07 1005.48 524.956Z" fill="#E31368"/>
<path d="M987.396 508.144C1021.68 473.857 1021.68 418.265 987.396 383.978C953.108 349.69 897.517 349.69 863.229 383.978C828.941 418.265 828.941 473.857 863.229 508.144C897.517 542.432 953.108 542.432 987.396 508.144Z" fill="white"/>
<path d="M935 445.2C935 439.8 930.6 435.4 925.2 435.4C919.8 435.4 915.4 439.8 915.4 445.2C915.4 450.6 919.8 455 925.2 455C930.6 455 935 450.6 935 445.2Z" fill="#7C9AF2"/>
<path d="M925.2 447.1H923.2C922.1 447.1 921.2 446.2 921.2 445.1C921.2 444 922.1 443.1 923.2 443.1L923.3 382.5L920.9 386C920.3 386.9 919.1 387.1 918.2 386.5C917.3 385.9 917.1 384.7 917.7 383.8L923.7 375.1C924.2 374.4 925.1 374.1 925.9 374.3C926.7 374.6 927.3 375.3 927.3 376.2L927.2 445C927.1 446.3 926.2 447.1 925.2 447.1Z" fill="#7C9AF2"/>
<path d="M931.9 386.5C931.3 386.5 930.8 386.3 930.4 385.8L923.8 377.7C923.1 376.9 923.2 375.6 924.1 375C924.9 374.3 926.2 374.4 926.8 375.3L933.4 383.4C934.1 384.2 934 385.5 933.1 386.1C932.8 386.3 932.3 386.5 931.9 386.5Z" fill="#7C9AF2"/>
<path d="M889.801 453.4C889.301 453.4 888.801 453.2 888.401 452.8L882.6 446.8C882.1 446.2 881.901 445.4 882.201 444.7C882.501 444 883.201 443.5 884.001 443.5L929.801 443.6C930.901 443.6 931.701 444.5 931.701 445.6V447.6C931.701 448.7 930.801 449.6 929.701 449.6C928.601 449.6 927.701 448.7 927.701 447.6L888.501 447.5L891.1 450.2C891.9 451 891.8 452.2 891.1 453C890.8 453.3 890.301 453.4 889.801 453.4Z" fill="#7C9AF2"/>
<path d="M884 447.4C883.6 447.4 883.1 447.3 882.8 447C882 446.3 881.8 445.1 882.5 444.3L887.9 437.7C888.6 436.9 889.8 436.7 890.6 437.4C891.4 438.1 891.6 439.3 890.9 440.1L885.5 446.7C885.1 447.2 884.6 447.4 884 447.4Z" fill="#7C9AF2"/>
<path d="M546.249 925.606L495.975 1140.4L724.697 1193.94L774.971 979.139L546.249 925.606Z" fill="#A823E6"/>
<path d="M546.239 925.53L535.96 969.444L764.683 1022.98L774.961 979.064L546.239 925.53Z" fill="#8C15C5"/>
<path d="M671.253 464.807L305.547 556.017L391.24 899.6L756.946 808.39L671.253 464.807Z" fill="#5AD4CD"/>
<path d="M671.25 464.818L305.544 556.027L323.041 626.18L688.747 534.97L671.25 464.818Z" fill="#1BBCB3"/>
<path d="M946.131 621.327L849.894 787.359L1026.65 889.815L1122.89 723.783L946.131 621.327Z" fill="#49C3F8"/>
<path d="M946.067 621.337L926.408 655.252L1103.17 757.709L1122.83 723.793L946.067 621.337Z" fill="#04A5EB"/>
<path d="M1116.4 1797.6C1116.4 1797.6 1111 1850.5 1121.8 1856.5C1141.4 1867.4 1177.4 1877.7 1174.4 1887.1C1171.4 1896.4 1084.9 1896.8 1082.5 1888.3C1080.1 1879.8 1089.8 1853.8 1079.5 1803.1L1116.4 1797.6Z" fill="#CF997A"/>
<path d="M1083.4 1869.2C1082.5 1878.7 1081.7 1885.2 1082.5 1888.2C1084.9 1896.7 1171.4 1896.3 1174.4 1887C1176.6 1880.1 1157.5 1872.3 1139.4 1864.5C1135.2 1871.7 1126.1 1882.9 1083.4 1869.2Z" fill="#0B0755"/>
<path d="M954.2 1796C954.2 1796 939.9 1847.2 949.5 1855C966.9 1869 1000.7 1885.4 996.1 1894.1C991.5 1902.8 906.3 1888.4 905.4 1879.6C904.5 1870.8 918.5 1846.8 917 1795.1L954.2 1796Z" fill="#CF997A"/>
<path d="M909.6 1861C907.1 1870.2 905.2 1876.4 905.5 1879.6C906.4 1888.4 991.7 1902.8 996.2 1894.1C999.6 1887.7 982.1 1876.7 965.6 1866C960.1 1872.3 949.2 1881.8 909.6 1861Z" fill="#0B0755"/>
<path d="M1149.5 1191.3C1149.5 1191.3 1167.7 1215.6 1182.8 1215.6C1197.9 1215.6 1249.4 1151.3 1249.4 1151.3L1261.5 1170.8C1261.5 1170.8 1218.4 1264.8 1179 1265.6C1139.7 1266.4 1110.1 1222.5 1110.9 1220.2C1111.7 1217.9 1136.6 1191.3 1136.6 1191.3H1149.5Z" fill="#CF997A"/>
<path d="M1106.3 1328.7C1106.3 1328.7 1129.8 1357.1 1140.4 1390.4C1151 1423.7 1122.9 1818.2 1122.9 1818.2H1076C1076 1818.2 1051.1 1466.9 1051.1 1463.8C1051.1 1451.5 958.699 1818.2 958.699 1818.2H911.899C911.899 1818.2 937.199 1388.8 996.099 1328.7L1051.2 1332.1L1106.3 1328.7Z" fill="#0B0755"/>
<path d="M1081.9 1010.6C1085.2 1013.6 1117.5 1089.9 1106.4 1113.7C1095.3 1137.4 1102.3 1172.2 1074.5 1171C1046.7 1169.8 999.999 1150.9 1002.6 1133C1005.3 1115.1 993.299 1058.6 1002.4 1041C1011.5 1023.4 1018 995.7 1039.2 995.5C1060.4 995.3 1081.9 1010.6 1081.9 1010.6Z" fill="#1C1B1C"/>
<path d="M1106.3 1313.9V1328.7C1106.3 1328.7 1078.3 1355.9 996 1328.7L995.8 1313.9L1068.1 1309.4L1106.3 1313.9Z" fill="#060633"/>
<path d="M1077 1131.7C1077 1131.7 1107.5 1134.9 1122.3 1145.1C1132.9 1152.4 1156.3 1193.6 1156.3 1193.6L1129.5 1216.4C1129.5 1216.4 1135.9 1241.3 1110.9 1253.8L1106.4 1314C1106.4 1314 1059.5 1341.2 995.9 1314C995.9 1314 983.8 1201.3 972.4 1211.1C961.1 1220.9 954.2 1229.6 954.2 1229.6L911.8 1187.6C911.8 1187.6 958 1141.3 973.3 1134.1C1009.2 1117.1 1070.8 1132.7 1070.8 1132.7L1077 1131.7Z" fill="#E31368"/>
<path d="M1079 1179.2C1081.7 1181.2 1085.5 1180.6 1087.4 1177.9C1089.4 1175.2 1088.8 1171.4 1086.1 1169.5C1083.4 1167.5 1079.6 1168.1 1077.7 1170.8C1075.8 1173.5 1076.3 1177.2 1079 1179.2Z" fill="white"/>
<path d="M1085.7 1194.2C1086.2 1193.7 1086.6 1193.1 1086.8 1192.4C1088.1 1190.8 1090.4 1189.2 1093.8 1191.8C1094 1191.9 1094.1 1192.1 1094.3 1192.2C1097.6 1194.6 1102.3 1193.9 1104.8 1190.6C1106.9 1187.7 1106.7 1183.8 1104.3 1181.1C1104.1 1180.9 1103.9 1180.7 1103.6 1180.5C1102.1 1179.1 1101 1177.4 1101 1174.4C1100.9 1170.9 1104.4 1168.8 1104.4 1168.8C1107.2 1167.3 1108.2 1163.9 1106.7 1161.2C1105.2 1158.4 1101.8 1157.4 1099.1 1158.8C1096.4 1160.2 1095.3 1163.7 1096.8 1166.4C1096.9 1166.6 1097 1166.7 1097.1 1166.9C1097.3 1167.2 1097.5 1167.5 1097.8 1167.7C1098.7 1168.9 1100.1 1171.3 1099.5 1174.2C1099 1176.5 1097.3 1178.2 1095.9 1179.3C1095.2 1179.6 1094.5 1180 1093.8 1180.6C1092.5 1181.7 1091.7 1183.3 1091.4 1184.9C1091.4 1184.9 1090.2 1189.9 1085.4 1188L1085.3 1187.9C1083.4 1186.5 1080.8 1186.9 1079.5 1188.8C1078.1 1190.7 1078.5 1193.3 1080.4 1194.6C1082 1195.7 1084.2 1195.6 1085.7 1194.2Z" fill="white"/>
<path d="M950.3 1225.6C950.3 1225.6 925.7 1254.3 928.5 1262.3C931.3 1270.2 974.8 1335.7 980.6 1348.1C986.4 1360.5 984.7 1367.9 984.7 1367.9L962.6 1378.7C962.6 1378.7 961.4 1361.2 956.6 1356C951.8 1350.9 878.6 1275.4 880.3 1251.5C882 1227.7 915.6 1191.2 915.6 1191.2L950.3 1225.6Z" fill="#CF997A"/>
<path d="M972.499 1335.2C972.499 1335.2 991.699 1362.2 989.799 1368.4C987.799 1374.7 979.599 1392.3 978.999 1395.4C978.399 1398.5 978.699 1415.2 976.999 1417.8C975.299 1420.4 971.199 1399.9 971.199 1399.9C971.199 1399.9 972.199 1417.9 969.099 1419C965.999 1420.1 963.199 1400.9 963.199 1400.9C963.199 1400.9 964.799 1419.1 961.799 1419.2C958.699 1419.3 956.9 1401.7 956.9 1401.7C956.9 1401.7 957.999 1415.8 955.499 1415.9C953.099 1415.9 947.6 1392.8 952.4 1384.7C963.7 1365.5 960.4 1355.2 960.4 1355.2L972.499 1335.2Z" fill="#CF997A"/>
<path d="M984.899 1354.6C984.899 1354.6 994.399 1370.6 994.599 1376.7C994.699 1382.8 996.499 1395.2 993.899 1395.2C991.299 1395.2 987.699 1378 985.799 1377.3C983.899 1376.6 983.899 1368.8 983.899 1368.8L984.899 1354.6Z" fill="#CF997A"/>
<path d="M1034.1 1245.5C1012.8 1245.5 1003.9 1224.2 1003.9 1224C1003.7 1223.6 1003.9 1223.1 1004.3 1223C1004.7 1222.8 1005.2 1223 1005.3 1223.4C1005.4 1223.6 1013.9 1243.9 1034.1 1243.9C1054.4 1243.9 1062.2 1229.2 1062.3 1229C1062.5 1228.6 1063 1228.5 1063.4 1228.7C1063.8 1228.9 1063.9 1229.4 1063.7 1229.8C1063.5 1229.9 1055.3 1245.5 1034.1 1245.5Z" fill="#C40A5F"/>
<path d="M1129.4 1217.2C1129 1217.2 1128.7 1216.9 1128.6 1216.5C1128.6 1216.4 1126.8 1202.1 1115.8 1191.8C1115.5 1191.5 1115.5 1191 1115.8 1190.7C1116.1 1190.4 1116.6 1190.4 1116.9 1190.7C1128.3 1201.4 1130.2 1215.8 1130.2 1216.4C1130.3 1216.8 1130 1217.2 1129.4 1217.2C1129.5 1217.2 1129.5 1217.2 1129.4 1217.2Z" fill="#C40A5F"/>
<path d="M1067.5 1346.9C1059.8 1346.9 1053.6 1340.7 1053.6 1333C1053.6 1325.3 1059.8 1319.1 1067.5 1319.1C1075.2 1319.1 1081.4 1325.3 1081.4 1333C1081.4 1340.7 1075.1 1346.9 1067.5 1346.9ZM1067.5 1325.5C1063.3 1325.5 1059.9 1328.9 1059.9 1333.1C1059.9 1337.3 1063.3 1340.7 1067.5 1340.7C1071.7 1340.7 1075.1 1337.3 1075.1 1333.1C1075.1 1328.9 1071.7 1325.5 1067.5 1325.5Z" fill="#BDD1F9"/>
<path d="M1034.6 973.1C1008.7 977.3 989.699 1000.6 990.799 1026.9C991.199 1035.5 993.599 1043.5 997.499 1050.5C1006.4 1067.9 1013.7 1082 1022.1 1091.9C1030.6 1102 1035.3 1114.7 1034.7 1127.9L1034.5 1133.2C1034.3 1138.2 1037.6 1142.7 1042.4 1143.9C1057.3 1147.8 1066.9 1144.8 1072.2 1141.6C1075.6 1139.6 1077.5 1135.7 1077.2 1131.8L1074.8 1106.8C1107.2 1099.8 1097 1039.7 1095.3 1021.9H1095.2C1095.2 1021.2 1095.1 1020.6 1095.1 1019.9C1092.2 989.8 1064.7 968.2 1034.6 973.1Z" fill="#CF997A"/>
<path d="M1087.1 1046.8C1087.1 1044.3 1085.1 1042.2 1082.5 1042.2C1080 1042.2 1077.9 1044.2 1077.9 1046.8C1077.9 1049.3 1079.9 1051.4 1082.5 1051.4C1085 1051.3 1087.1 1049.3 1087.1 1046.8Z" fill="#050521"/>
<path d="M1044.6 1055.7C1044.6 1053.2 1042.6 1051.1 1040 1051.1C1037.5 1051.1 1035.4 1053.1 1035.4 1055.7C1035.4 1058.2 1037.4 1060.3 1040 1060.3C1042.6 1060.2 1044.6 1058.2 1044.6 1055.7Z" fill="#050521"/>
<path d="M1080.3 1080.6C1080.3 1080.6 1076 1078.4 1073.8 1079.4C1071.6 1080.4 1070.7 1083.4 1070.7 1083.4C1070.7 1083.4 1068.9 1080.8 1066.1 1081.2C1063.3 1081.6 1055.8 1084.9 1055.8 1084.9C1055.8 1084.9 1064.9 1095.7 1072.9 1092.4C1080.9 1089.1 1080.2 1081.1 1080.2 1081.1L1080.3 1080.6Z" fill="#DD4E4E"/>
<path d="M1073.2 1086.6C1063.9 1090.1 1053.5 1084.4 1053.3 1084.3C1053 1084.1 1052.9 1083.7 1053.1 1083.4C1053.3 1083.1 1053.7 1083 1054 1083.2C1054.7 1083.6 1070.9 1092.4 1080.1 1079.6C1080.3 1079.3 1080.7 1079.2 1081 1079.5C1081.3 1079.7 1081.4 1080.1 1081.1 1080.4C1078.8 1083.6 1076 1085.5 1073.2 1086.6Z" fill="#050521"/>
<path d="M1029.1 1050.6C1028.6 1050.6 1028 1050.4 1027.6 1050C1026.9 1049.2 1027 1048 1027.7 1047.3C1027.9 1047.1 1033.5 1042.1 1042 1042.2C1043 1042.2 1043.9 1043.1 1043.9 1044.1C1043.9 1045.1 1043 1046 1042 1046C1034.9 1046 1030.3 1050.1 1030.2 1050.2C1029.9 1050.4 1029.5 1050.6 1029.1 1050.6Z" fill="#2A282B"/>
<path d="M1074.5 1038.3C1074 1038.2 1073.5 1037.9 1073.2 1037.4C1072.6 1036.5 1072.9 1035.3 1073.8 1034.8C1074.1 1034.6 1080.4 1030.8 1088.8 1032.3C1089.8 1032.5 1090.5 1033.5 1090.3 1034.5C1090.1 1035.5 1089.1 1036.2 1088.1 1036C1081.1 1034.7 1075.8 1037.9 1075.8 1038C1075.4 1038.3 1075 1038.4 1074.5 1038.3Z" fill="#2A282B"/>
<path d="M1068.4 1069.5C1067.3 1070.1 1065.8 1070.5 1063.9 1070.5C1063.5 1070.5 1063.2 1070.2 1063.2 1069.9C1063.2 1069.5 1063.5 1069.2 1063.8 1069.2C1070.3 1068.9 1071 1064.6 1071.1 1063.5C1065.3 1057.4 1064.9 1048.4 1064.9 1048C1064.9 1047.6 1065.2 1047.3 1065.6 1047.3C1066 1047.3 1066.3 1047.6 1066.3 1048C1066.3 1048.1 1066.6 1057.1 1072.3 1062.8C1072.4 1062.9 1072.5 1063.1 1072.5 1063.3C1072.4 1063.2 1072.5 1067.4 1068.4 1069.5Z" fill="#C98463"/>
<path d="M1014.8 1063.5C1013.8 1061.9 1012.2 1060.8 1010.4 1060.2C1006.7 1059.1 1000.2 1058.1 996.199 1062.9C990.399 1069.9 1004.9 1085.6 1016.8 1076C1016.8 1076 1020.1 1072 1014.8 1063.5Z" fill="#CF997A"/>
<path d="M1090.7 1029.2C1096.1 1047.1 1096.2 1070.7 1092.6 1089.1C1088.8 1108.4 1085.6 1118.9 1085.9 1135.5C1086.3 1156.7 1098.5 1177.3 1095.2 1198.3C1106.7 1201.3 1118.6 1191.8 1122.5 1180.6C1126.4 1169.3 1126.5 1156.9 1124.6 1145.1C1121.6 1127.2 1121.9 1107.4 1118.9 1089.4C1114.8 1064.5 1103.2 1041.4 1099.1 1016.5C1096.1 998.5 1082.5 978.1 1065.3 971.9C1063.3 971.2 1050.6 969.1 1037.4 971.3C1025.8 973.2 1015.1 978.9 1005.6 985.8C995.9 992.9 991.2 1001.9 989.2 1013.8C987.2 1025.7 984.6 1029.2 985.7 1041.2C988 1064.9 990.2 1088.6 992.5 1112.3C993.5 1123 994.5 1133.8 995.6 1144.5C996.5 1153.5 997.3 1162.6 1000.4 1171.1C1008.5 1193.4 1032.8 1208.5 1056.4 1205.9C1048.4 1201.1 1040.3 1196.3 1032.3 1191.6C1043.7 1194.8 1056.6 1192.7 1066.4 1186.1C1047.6 1185.4 1030.7 1169.1 1029.3 1150.4C1028.4 1138.1 1033.3 1126.1 1033.1 1113.8C1032.9 1094.6 1030 1077.9 1020.6 1061.1C1011.2 1044.3 1013.4 1038.4 1027 1024.8C1040.8 1011.2 1051.3 1011.4 1063.2 1000.9C1063 1000.8 1085.3 1011.3 1090.7 1029.2Z" fill="#2A282B"/>
<path d="M469.8 1891.9C469.3 1891.9 468.7 1891.8 468.2 1891.7C464.5 1890.8 462.3 1887.1 463.2 1883.5L489.4 1776.6C490.3 1773 494 1770.7 497.6 1771.6C501.3 1772.5 503.5 1776.2 502.6 1779.8L476.4 1886.7C475.7 1889.8 472.9 1891.9 469.8 1891.9Z" fill="#0B0755"/>
<path d="M322.7 1891.9C322.2 1891.9 321.6 1891.8 321.1 1891.7C317.4 1890.8 315.2 1887.1 316.1 1883.5L354 1728.5C354.9 1724.8 358.6 1722.6 362.2 1723.5C365.9 1724.4 368.1 1728.1 367.2 1731.7L329.3 1886.7C328.5 1889.8 325.8 1891.9 322.7 1891.9Z" fill="#0B0755"/>
<path d="M381.4 1332.4C642.7 1332.4 592.5 1601.2 674.9 1596.5C757.3 1591.9 795.5 1786 496 1786C196.5 1786 140.9 1332.4 381.4 1332.4Z" fill="#E31368"/>
<path d="M751.1 1833.8C751.1 1833.8 750.4 1880 750.8 1880.6C751.2 1881.3 747.4 1887 747.4 1887L732.8 1889.6L719.5 1883.5C719.5 1883.5 720.7 1840.6 719.3 1833.8C718 1827.2 751.1 1833.8 751.1 1833.8Z" fill="#E4B8B1"/>
<path d="M719.6 1883.6C719.6 1883.6 736.4 1889.5 750.7 1879.8C750.7 1879.8 806.6 1900.8 804.9 1916.7C804.9 1916.7 807.3 1921.4 783.1 1920.4C758.9 1919.4 721.2 1918.3 720.2 1917.7C719.2 1917.2 714.5 1919.7 719.6 1883.6Z" fill="#0B0755"/>
<path d="M610.1 1833.8C610.1 1833.8 609.4 1880 609.8 1880.6C610.2 1881.3 606.4 1887 606.4 1887L591.8 1889.6L578.5 1883.5C578.5 1883.5 579.7 1840.6 578.3 1833.8C576.9 1827.2 610.1 1833.8 610.1 1833.8Z" fill="#E4B8B1"/>
<path d="M578.5 1883.6C578.5 1883.6 595.3 1889.5 609.6 1879.8C609.6 1879.8 665.5 1900.8 663.8 1916.7C663.8 1916.7 666.2 1921.4 642 1920.4C617.8 1919.4 580.1 1918.3 579.1 1917.7C578.1 1917.2 573.4 1919.7 578.5 1883.6Z" fill="#0B0755"/>
<path d="M479 1288.2C479 1288.2 483.3 1282.2 486.4 1284.9C494.3 1291.6 485.8 1299.4 480.3 1301L479 1288.2Z" fill="#D8A198"/>
<path d="M481.7 1265.7C481.7 1265.1 481.8 1264.4 481.8 1263.8C482.9 1235.1 459.6 1211.1 430.4 1211.8C406.1 1212.4 385.5 1231 382.3 1255.1C381.1 1264.1 382.3 1272.7 385.4 1280.4C389.6 1292.3 393.3 1302.4 397.2 1310.9C403.8 1324.9 405.4 1340.8 402.3 1356L400.2 1366C430.3 1383.6 444.5 1370.8 444.5 1370.8L445.9 1348.8C446.1 1345.9 448.4 1343.7 451.3 1343.6C451.3 1343.6 451.3 1343.6 451.4 1343.6C489.5 1342.6 481 1282.8 481.7 1265.7Z" fill="#E4B8B1"/>
<path d="M453.6 1324.9C443.9 1327 434.5 1320 434.4 1319.9C434.1 1319.7 434.1 1319.3 434.3 1319C434.5 1318.7 434.9 1318.7 435.2 1318.9C435.8 1319.4 450.6 1330.4 461.4 1319C461.6 1318.7 462 1318.7 462.3 1319C462.6 1319.2 462.6 1319.6 462.3 1319.9C459.6 1322.8 456.6 1324.3 453.6 1324.9Z" fill="#050521"/>
<path d="M429.2 1289.9C429.3 1287.3 427.3 1285.2 424.7 1285.1C422.1 1285 420 1287 419.9 1289.6C419.8 1292.2 421.8 1294.3 424.4 1294.4C426.9 1294.5 429.1 1292.5 429.2 1289.9Z" fill="#01011C"/>
<path d="M470.8 1283.2C470.9 1280.6 468.9 1278.5 466.3 1278.4C463.7 1278.3 461.6 1280.3 461.5 1282.9C461.4 1285.5 463.4 1287.6 466 1287.7C468.6 1287.8 470.7 1285.8 470.8 1283.2Z" fill="#01011C"/>
<path d="M412.8 1282C412.3 1282 411.8 1281.8 411.4 1281.6C410.1 1280.8 409.8 1279.1 410.6 1277.8C413.1 1274 420.5 1268.3 430.7 1273.9C432 1274.6 432.5 1276.3 431.8 1277.6C431.1 1278.9 429.4 1279.4 428.1 1278.7C419.7 1274.1 415.4 1280.5 415.2 1280.8C414.6 1281.6 413.7 1282 412.8 1282Z" fill="#331B19"/>
<path d="M456.7 1276.4C456.2 1276.4 455.7 1276.2 455.3 1276C454 1275.2 453.7 1273.5 454.5 1272.2C457 1268.4 464.4 1262.7 474.6 1268.3C475.9 1269 476.4 1270.7 475.7 1272C475 1273.3 473.3 1273.8 472 1273.1C463.6 1268.5 459.3 1274.9 459.1 1275.2C458.5 1276 457.6 1276.5 456.7 1276.4Z" fill="#331B19"/>
<path d="M400 1295C399.3 1293.4 397.9 1292.1 396.2 1291.3C392.8 1289.8 386.8 1288 382.4 1292C376 1297.9 387.7 1314.7 400.3 1307C400.4 1307.1 404 1303.7 400 1295Z" fill="#E4B8B1"/>
<path d="M452.4 1307.7C447.8 1309.7 444 1307.1 443.9 1307.1C443.5 1306.9 443.4 1306.3 443.7 1306C443.9 1305.6 444.5 1305.5 444.8 1305.8C445 1305.9 449.3 1308.7 453.9 1304.9C454.6 1304.3 455 1303.8 455.1 1303.4C455.1 1302.8 454.5 1302.1 453.6 1301.1C451.6 1298.7 448.2 1294.8 447.4 1286.1C447.4 1285.7 447.7 1285.3 448.1 1285.2C448.5 1285.2 448.9 1285.5 449 1285.9C449.7 1294.1 452.8 1297.6 454.8 1300C455.9 1301.3 456.8 1302.3 456.7 1303.5C456.6 1304.4 456.1 1305.2 454.9 1306.1C454.1 1306.8 453.2 1307.3 452.4 1307.7Z" fill="#D8A198"/>
<path d="M401.7 1296.8C401.7 1296.7 400.7 1297 400.6 1297C402.2 1320.5 415.2 1330.3 428.1 1339.3C433.8 1343.3 440.2 1346.5 447.2 1347.4C454.1 1348.3 461.7 1347.1 467.1 1342.3C474.1 1336.1 476.6 1327.5 479.2 1317.4C480.9 1310.8 481.3 1305.9 481.9 1298.9L482 1296.6C479.1 1303.2 480.1 1310.8 475 1317.1C473.8 1318.5 471.5 1320.3 469.7 1320.4C467.5 1320.6 466.1 1318.1 465.7 1316C465.3 1313.8 465.3 1311.4 463.8 1309.8C462 1308 458.9 1308.4 456.5 1309.5C454.1 1310.6 452 1312.2 449.4 1312.6C447.3 1312.9 445.3 1312.4 443.3 1311.8C441.3 1311.2 439.3 1310.6 437.2 1310.7C435.1 1310.8 433 1312 432.3 1313.9C431.8 1315.3 431.4 1318.2 430.3 1319.1C428.7 1320.4 426.3 1319.6 424.5 1318.6C415.9 1313.9 404 1306.1 401.7 1296.8ZM437.3 1315.9C438.4 1315.1 439.8 1316 441.1 1316.4C447.2 1318.1 452.9 1319.5 460.4 1315.1C462.5 1313.9 461.9 1320 461.8 1322.5C461.7 1325 461 1328.3 458.5 1328.9C453.7 1330.1 454.6 1327.7 450.4 1327.7C445.8 1327.7 448 1330.6 441.2 1328C438 1326.8 437.1 1325.4 436.7 1322C436.6 1320.1 435.6 1317 437.3 1315.9Z" fill="#4D2822"/>
<path d="M481.9 1285.5C480.6 1275.7 479.6 1266.4 478.3 1256.7C477.7 1252.6 476 1249 473.4 1245.8C471 1242.8 468.4 1240.5 464.8 1239.4C460.1 1237.9 455.1 1236.9 450.3 1237.7C445.4 1238.5 440.7 1241.2 438.4 1245.6C432.8 1241.4 425.1 1240.3 418.5 1242.7C411.9 1245.1 409 1250 401.8 1255.8C403.5 1251.6 403.7 1250.8 404.7 1249.1C397.7 1253.9 396.3 1261.9 394.6 1270.3C392.9 1278.7 396.9 1294.7 391.7 1297.1C388.7 1288.4 383.3 1282.1 381.4 1273.1C380 1266.7 381 1256.5 381.7 1249.9C383 1238.3 390.2 1227.8 399.7 1221.1C409.2 1214.4 420.8 1211 432.4 1209.9C439.1 1209.3 446.1 1209.4 452.2 1212.2C465.7 1218.4 458.3 1220.5 463.1 1220.9C465.5 1221.1 469.4 1223.6 472 1226.8C478.1 1234.5 483.8 1248.6 484.7 1258.3C485.7 1268 483 1277 482.1 1286.7L481.9 1285.5Z" fill="#402D27"/>
<path d="M692.4 1604.3C692.4 1604.3 746.5 1608.7 763.9 1677.6C774 1717.7 770 1848.1 770 1848.1L699.9 1859.1C699.9 1859.1 706.2 1713.4 651.9 1668.4C651.9 1668.4 662.9 1698 623.1 1866.4H571L553.6 1694C553.6 1694 431.1 1698.1 394.4 1667.5C357.7 1636.9 354 1600.2 354 1600.2L527.1 1573.9L692.4 1604.3Z" fill="#91B5F8"/>
<path d="M381.4 1370C381.4 1370 384.8 1343.8 390.2 1345.2C395.6 1346.6 444 1355.3 448.7 1354.4C453.5 1353.4 448.7 1376.5 448.7 1376.5C448.7 1376.5 503.1 1381.4 516.7 1404.6C530.3 1427.7 562 1515.6 573.5 1523.1C585.1 1530.6 607.9 1551.4 607.9 1551.4L513.8 1604.3L424.7 1600.1C424.7 1600.1 360.2 1638.7 309.9 1608.7C259.5 1578.6 268.4 1420.7 316 1392.8C363.7 1364.9 381.4 1370 381.4 1370Z" fill="#222638"/>
<path d="M539.8 1580.2C539.7 1580.2 539.6 1580.2 539.5 1580.1C512.4 1568.2 497.8 1451.1 497.2 1446.1C497.2 1445.7 497.4 1445.4 497.8 1445.3C498.2 1445.3 498.5 1445.5 498.6 1445.9C498.7 1447.1 513.7 1567.3 540.1 1578.8C540.4 1579 540.6 1579.4 540.5 1579.7C540.3 1580.1 540.1 1580.2 539.8 1580.2Z" fill="#0B0755"/>
<path d="M424.8 1600.8C424.5 1600.8 424.3 1600.6 424.2 1600.4C424.1 1600.1 424.2 1599.7 424.6 1599.5L444.2 1590.9L441.4 1556.7C435.5 1555.5 380.3 1544.8 353.9 1541.7C353.6 1541.7 353.3 1541.4 353.3 1541C353.3 1538.4 352.3 1476.2 356.4 1467C356.6 1466.7 357 1466.5 357.3 1466.7C357.6 1466.9 357.8 1467.3 357.6 1467.6C353.8 1476.1 354.5 1533.9 354.6 1540.4C382.6 1543.7 441.5 1555.3 442.1 1555.4C442.4 1555.5 442.6 1555.7 442.6 1556L445.4 1591.2C445.4 1591.5 445.3 1591.8 445 1591.9L424.9 1600.7C425 1600.8 424.9 1600.8 424.8 1600.8Z" fill="#0B0755"/>
<path d="M651.8 1669.1C651.5 1669.1 651.2 1668.9 651.1 1668.5C651 1667.9 638.6 1608 540.6 1600.9C540.2 1600.9 539.9 1600.5 540 1600.2C540 1599.8 540.3 1599.5 540.7 1599.6C592.4 1603.3 620.1 1621.8 634.1 1636.6C649.4 1652.7 652.4 1668.1 652.4 1668.3C652.5 1668.7 652.2 1669 651.9 1669.1H651.8Z" fill="#0B0755"/>
<path d="M460.5 1561C460.5 1561 461.9 1561 464.1 1561.1C475.3 1561.4 508.7 1562.6 512.6 1564C517.3 1565.6 503.2 1594.8 503.2 1594.8C503.2 1594.8 463 1597 450.1 1588.4C437.2 1579.7 460.5 1561 460.5 1561Z" fill="#E4B8B1"/>
<path d="M497.9 1594.9C497.9 1594.9 520.3 1605 522.3 1602.8C524.3 1600.6 504.8 1589.3 504.8 1589.3L497.9 1594.9Z" fill="#E4B8B1"/>
<path d="M504 1587.8C504 1587.8 537.2 1601.4 539.7 1596.9C542.2 1592.3 505.5 1580.5 505.5 1580.5L504 1587.8Z" fill="#E4B8B1"/>
<path d="M508.4 1579.7C508.4 1579.7 542.6 1590.4 544.7 1585.6C546.8 1580.8 509.2 1572.2 509.2 1572.2L508.4 1579.7Z" fill="#E4B8B1"/>
<path d="M510.2 1571.1C510.2 1571.1 542.2 1581.5 544.2 1576.7C546.2 1571.9 511.1 1563.6 511.1 1563.6L510.2 1571.1Z" fill="#E4B8B1"/>
<path d="M468.1 1561.9L442.9 1558.8L445.2 1587.3L458.2 1590.2L468.1 1561.9Z" fill="#E4B8B1"/>
<path d="M753.8 1473.7L569.2 1473.4L511.1 1608.4L695.8 1608.7L753.8 1473.7Z" fill="#050521"/>
<path d="M547.307 1600.29L423.707 1600.11L423.695 1608.31L547.295 1608.49L547.307 1600.29Z" fill="#050521"/>
<path d="M642.6 1539.1C642.6 1534.6 646.2 1531 650.7 1530.9C655.2 1530.9 658.8 1534.5 658.9 1539C658.9 1543.5 655.3 1547.1 650.8 1547.2C646.3 1547.2 642.7 1543.6 642.6 1539.1Z" fill="white"/>
<path d="M461.601 1435.7C463.401 1437.4 466.201 1437.2 467.901 1435.4C469.601 1433.6 469.401 1430.8 467.601 1429.1C465.801 1427.4 463.001 1427.6 461.301 1429.4C459.701 1431.3 459.801 1434.1 461.601 1435.7Z" fill="#E31368"/>
<path d="M465.301 1447.3C465.701 1447 466.101 1446.5 466.301 1446C467.401 1445 469.201 1444 471.501 1446.2C471.601 1446.3 471.701 1446.4 471.801 1446.5C474.101 1448.6 477.501 1448.4 479.601 1446.2C481.401 1444.3 481.501 1441.3 480.001 1439.2C479.901 1439 479.701 1438.8 479.601 1438.7C478.701 1437.5 478.001 1436.3 478.201 1434C478.401 1431.4 481.201 1430.2 481.201 1430.2C483.301 1429.4 484.401 1426.9 483.501 1424.8C482.701 1422.7 480.201 1421.6 478.101 1422.4C476.001 1423.2 474.901 1425.7 475.801 1427.8C475.801 1427.9 475.901 1428 476.001 1428.2C476.101 1428.4 476.301 1428.7 476.401 1428.9C477.001 1429.9 477.801 1431.8 477.101 1433.8C476.601 1435.4 475.201 1436.5 474.001 1437.2C473.401 1437.4 472.901 1437.6 472.401 1438C471.401 1438.7 470.601 1439.8 470.301 1441C470.301 1441 469.001 1444.6 465.701 1442.8C465.701 1442.8 465.701 1442.8 465.601 1442.7C464.401 1441.5 462.401 1441.6 461.301 1442.9C460.201 1444.2 460.201 1446.1 461.501 1447.2C462.501 1448.1 464.101 1448.2 465.301 1447.3Z" fill="#E31368"/>
<path d="M2634 1834.8C2634 1834.8 2633 1904.8 2625.7 1912.5C2621.5 1916.9 2538 1926 2535.6 1914.9C2533.2 1903.7 2596.8 1888.4 2601.5 1867.8C2606.2 1847.2 2603.9 1827.8 2603.9 1827.8L2634 1834.8Z" fill="#B06C60"/>
<path d="M2407.9 1816.8C2407.9 1816.8 2391.1 1853.8 2387.7 1860.5C2384.3 1867.2 2381 1890.7 2374.3 1891.6C2367.6 1892.4 2295.3 1900 2293.7 1888.2C2292 1876.4 2357.5 1857.1 2361.7 1847.9C2365.9 1838.7 2381.9 1800 2381.9 1800L2407.9 1816.8Z" fill="#B06C60"/>
<path d="M2652.2 1332.9C2652.2 1332.9 2699.3 1411.6 2703.5 1452.4C2707.7 1493.2 2677.5 1645.7 2677.8 1655.5C2678.2 1665.3 2682.1 1687.8 2678 1703.3C2673.9 1718.8 2648.6 1765.1 2652.1 1777.8C2655.6 1790.4 2645.8 1850.9 2645.8 1850.9H2591C2591 1850.9 2598 1779.2 2591 1748.3C2584 1717.4 2584 1666.8 2584 1645.7C2584 1624.6 2584 1488.3 2584 1488.3C2584 1488.3 2550.3 1553 2548.9 1561.4C2547.5 1569.8 2546.1 1576.9 2534.8 1606.4C2523.6 1635.9 2498.3 1659.8 2494 1672.5C2489.8 1685.1 2488.4 1697.8 2481.4 1710.5C2474.4 1723.2 2457.5 1728.8 2450.5 1759.7C2443.5 1790.6 2415.4 1834.2 2415.4 1834.2L2355 1813.1C2355 1813.1 2400 1696.4 2400 1692.2C2400 1688 2421.1 1665.5 2421.1 1624.7C2421.1 1583.9 2446.4 1529.1 2453.4 1519.3C2460.4 1509.5 2525.1 1334.5 2551.1 1322.5C2577 1310.5 2652.2 1332.9 2652.2 1332.9Z" fill="#1E30C6"/>
<path d="M2623 1116.8C2651.5 1117.9 2695.7 1130.5 2721 1172.7C2746.3 1214.9 2757.9 1253.9 2757.9 1253.9L2696.8 1276L2690.5 1251.8C2690.5 1251.8 2674.7 1328.8 2658.9 1335.1C2643.1 1341.4 2632.5 1329.8 2623.1 1328.8C2613.6 1327.7 2583 1337.2 2557.7 1329.9C2532.4 1322.5 2531.3 1303.5 2528.2 1281.4C2525 1259.3 2520.8 1239.2 2520.8 1239.2L2511.3 1246.6L2462.4 1197.7C2462.4 1197.7 2519.7 1139 2551.3 1129.6C2582.9 1120 2623 1116.8 2623 1116.8Z" fill="#222638"/>
<path d="M2745.6 1258.4C2745.6 1258.4 2749.8 1323.9 2745.6 1355.5C2741.4 1387.1 2707.7 1455.3 2707.7 1455.3L2687.3 1434.2C2687.3 1434.2 2721.1 1339.8 2703.9 1273.5L2745.6 1258.4Z" fill="#B06C60"/>
<path d="M2631.7 1181.5C2633.5 1183.2 2636.3 1183 2638 1181.2C2639.7 1179.4 2639.5 1176.6 2637.7 1174.9C2635.9 1173.2 2633.1 1173.4 2631.4 1175.2C2629.8 1177 2629.9 1179.8 2631.7 1181.5Z" fill="#E31368"/>
<path d="M2635.4 1193.1C2635.8 1192.8 2636.2 1192.3 2636.4 1191.8C2637.5 1190.8 2639.3 1189.8 2641.6 1192C2641.7 1192.1 2641.8 1192.2 2641.9 1192.3C2644.2 1194.4 2647.6 1194.2 2649.7 1192C2651.5 1190.1 2651.6 1187.1 2650.1 1185C2650 1184.8 2649.8 1184.6 2649.7 1184.5C2648.8 1183.3 2648.1 1182.1 2648.3 1179.8C2648.5 1177.2 2651.3 1176 2651.3 1176C2653.4 1175.2 2654.5 1172.7 2653.6 1170.6C2652.8 1168.5 2650.3 1167.4 2648.2 1168.2C2646.1 1169 2645 1171.5 2645.9 1173.6C2645.9 1173.7 2646 1173.8 2646.1 1174C2646.2 1174.2 2646.4 1174.5 2646.5 1174.7C2647.1 1175.7 2647.9 1177.6 2647.2 1179.6C2646.7 1181.2 2645.3 1182.3 2644.1 1183C2643.5 1183.2 2643 1183.4 2642.5 1183.8C2641.5 1184.5 2640.7 1185.6 2640.4 1186.8C2640.4 1186.8 2639.1 1190.4 2635.8 1188.6C2635.8 1188.6 2635.8 1188.6 2635.7 1188.5C2634.5 1187.3 2632.5 1187.4 2631.4 1188.7C2630.3 1190 2630.3 1191.9 2631.6 1193C2632.5 1193.9 2634.2 1193.9 2635.4 1193.1Z" fill="#E31368"/>
<path d="M2520.7 1239.5C2520.5 1239.5 2520.4 1239.4 2520.3 1239.2C2518.4 1218.2 2534.6 1188.7 2534.8 1188.4C2534.9 1188.2 2535.1 1188.2 2535.3 1188.3C2535.5 1188.4 2535.5 1188.6 2535.4 1188.8C2535.2 1189.1 2519.1 1218.5 2521 1239.2C2521.1 1239.3 2521 1239.5 2520.7 1239.5C2520.8 1239.5 2520.8 1239.5 2520.7 1239.5Z" fill="#140C28"/>
<path d="M2637 1253.4C2619.1 1253.4 2604 1243.1 2603.8 1243C2603.6 1242.9 2603.6 1242.7 2603.7 1242.5C2603.8 1242.3 2604 1242.3 2604.2 1242.4C2604.5 1242.6 2633.1 1262.1 2657.9 1247C2658.1 1246.9 2658.3 1247 2658.4 1247.1C2658.5 1247.3 2658.5 1247.5 2658.3 1247.6C2651.3 1251.8 2643.9 1253.4 2637 1253.4Z" fill="#140C28"/>
<path d="M2631.5 1885.5C2588.8 1907.3 2574.5 1899.9 2569.8 1892.9C2552.3 1901.5 2534.4 1908.7 2535.7 1914.8C2538.1 1926 2621.6 1916.8 2625.8 1912.4C2628.4 1909.7 2630.2 1898.5 2631.5 1885.5Z" fill="#0B0755"/>
<path d="M2326 1866.9C2309.1 1874.4 2292.9 1882.3 2293.7 1888.2C2295.4 1900 2367.6 1892.4 2374.3 1891.6C2380.4 1890.8 2383.7 1871.4 2386.8 1862.8C2351 1882.8 2332.9 1872.8 2326 1866.9Z" fill="#0B0755"/>
<path d="M2692.7 1430C2692.7 1430 2673.6 1442.8 2667.7 1448.9C2661.8 1455.1 2651.5 1456.6 2653.7 1461.1C2655.9 1465.5 2671 1459.1 2671 1459.1C2671 1459.1 2666 1475.7 2663.7 1480.6C2661.4 1485.5 2659.5 1495.2 2662.9 1497.2C2666.3 1499.2 2675.8 1475 2675.8 1475C2675.8 1475 2669.9 1496.1 2672.6 1498.6C2675.4 1501.1 2686.9 1475.3 2686.9 1475.3C2686.9 1475.3 2679.5 1497.5 2680.4 1499.8C2681.3 1502.1 2684.3 1500.9 2688.8 1493.7C2693.3 1486.5 2696.1 1477.9 2696.1 1477.9C2696.1 1477.9 2692 1493.9 2692.2 1496C2692.4 1498.1 2694.2 1500.8 2699.8 1489.4C2705.4 1478 2713.5 1451.3 2712.1 1436.4L2692.7 1430Z" fill="#B06C60"/>
<path d="M2347.9 1180C2347.9 1180 2342.6 1157.6 2338.8 1150C2335.1 1142.3 2337.2 1132.2 2332.3 1132.7C2327.4 1133.2 2328.1 1149.6 2328.1 1149.6C2328.1 1149.6 2314.3 1139.2 2310.5 1135.3C2306.7 1131.4 2298.3 1126.3 2295.2 1128.8C2292.2 1131.3 2311.5 1148.6 2311.5 1148.6C2311.5 1148.6 2293.8 1135.7 2290.5 1137.4C2287.2 1139.1 2307.4 1158.9 2307.4 1158.9C2307.4 1158.9 2289.1 1144.2 2286.7 1144.3C2284.3 1144.4 2284.3 1147.5 2289.5 1154.3C2294.7 1161.1 2301.8 1166.6 2301.8 1166.6C2301.8 1166.6 2288.2 1157.2 2286.2 1156.7C2284.2 1156.1 2281 1156.9 2289.7 1166.1C2298.5 1175.3 2320.7 1192.1 2335.2 1196.1L2347.9 1180Z" fill="#B06C60"/>
<path d="M2501.3 1236.6C2501.3 1236.6 2455.1 1292 2417.4 1285.9C2379.7 1279.8 2328.5 1188.2 2328.5 1188.2L2346.7 1177.1C2346.7 1177.1 2403.5 1239.2 2423.3 1235.3C2443.1 1231.3 2471.2 1206.6 2471.2 1206.6L2501.3 1236.6Z" fill="#B06C60"/>
<path d="M2545 1093.8C2533.5 1094.9 2523.3 1086.4 2522.3 1074.9C2521.2 1063.4 2529.7 1053.2 2541.2 1052.2C2542 1052.1 2542.7 1052.7 2542.8 1053.5C2542.9 1054.3 2542.3 1055 2541.5 1055.1C2531.7 1056 2524.4 1064.8 2525.3 1074.6C2526.2 1084.4 2535 1091.7 2544.8 1090.8C2554.6 1089.9 2561.9 1081.1 2561 1071.3C2560.5 1066.2 2557.9 1061.6 2553.8 1058.6C2553.1 1058.1 2553 1057.2 2553.5 1056.5C2554 1055.8 2554.9 1055.7 2555.6 1056.2C2560.4 1059.7 2563.4 1065.2 2563.9 1071C2564.9 1082.5 2556.5 1092.7 2545 1093.8Z" fill="#FF6760"/>
<path d="M2544.8 1044.8C2544.8 1044.8 2540.3 1039.3 2537.4 1042C2530.1 1048.9 2539.5 1056.2 2544.9 1057.4L2544.8 1044.8Z" fill="#93544C"/>
<path d="M2587.3 968.1C2611.6 967.3 2633 985.1 2636.7 1009.2C2637.9 1017.1 2637.1 1024.8 2634.8 1031.8C2629.8 1049.2 2625.7 1063.3 2619.8 1073.8C2613.9 1084.5 2611.9 1096.9 2614.8 1108.7L2617.7 1120.7C2591 1137.5 2577.6 1127 2577.6 1127L2574.6 1096.6C2543.9 1096 2542.4 1039.6 2540.8 1023.1C2540.7 1022.5 2540.6 1021.9 2540.6 1021.2C2537.9 993.6 2559.1 969.1 2587.3 968.1Z" fill="#B06C60"/>
<path d="M2624.9 1043C2626.1 1043.7 2629.6 1055.6 2628.3 1056.8C2635.5 1050.1 2639.7 1040.7 2643 1031.4C2648.8 1015.3 2644.8 997.1 2634.5 983.7C2624.3 970.5 2608.7 964.7 2592.2 965C2574.5 965.3 2556 973.1 2546.8 988.7C2538.1 1003.4 2539.4 1020.8 2539.8 1037.2C2539.3 1018.8 2562.5 1002.8 2576.6 994.9C2576.2 995.1 2588.4 1011.6 2590.2 1010.5C2609.5 999.2 2604.7 1031.1 2624.9 1043Z" fill="#100259"/>
<path d="M2621.4 1046.8C2622 1045.2 2623.3 1043.8 2624.8 1043C2628 1041.3 2633.7 1039.3 2638.2 1042.9C2644.7 1048.2 2634.3 1065.1 2621.8 1058.5C2621.8 1058.5 2618.1 1055.5 2621.4 1046.8Z" fill="#B06C60"/>
<path d="M2552.8 1044.5C2552.3 1042.2 2553.8 1040 2556.1 1039.5C2558.4 1039 2560.6 1040.5 2561.1 1042.8C2561.6 1045.1 2560.1 1047.3 2557.8 1047.8C2555.5 1048.2 2553.2 1046.8 2552.8 1044.5Z" fill="#080435"/>
<path d="M2592.9 1045C2592.4 1042.7 2593.9 1040.5 2596.2 1040C2598.5 1039.5 2600.7 1041 2601.2 1043.3C2601.7 1045.6 2600.2 1047.8 2597.9 1048.3C2595.6 1048.8 2593.4 1047.3 2592.9 1045Z" fill="#080435"/>
<path d="M2561.7 1070.7C2561.7 1070.7 2567.2 1066.9 2569.4 1067.4C2571.6 1067.9 2572.9 1070.5 2572.9 1070.5C2572.9 1070.5 2574.1 1067.8 2576.7 1067.7C2579.3 1067.5 2588.3 1072.1 2588.3 1072.1C2588.3 1072.1 2580.5 1083.6 2572.5 1082.5C2564.3 1081.3 2561.7 1070.7 2561.7 1070.7Z" fill="#88332C"/>
<path d="M2606.4 1035.9C2606.9 1035.9 2607.4 1035.7 2607.7 1035.2C2608.3 1034.4 2608.2 1033.3 2607.4 1032.7C2607.2 1032.5 2601.7 1028.3 2593.9 1028.7C2592.9 1028.8 2592.2 1029.6 2592.3 1030.6C2592.4 1031.6 2593.3 1032.3 2594.2 1032.2C2600.7 1031.8 2605.3 1035.4 2605.3 1035.4C2605.6 1035.8 2606 1036 2606.4 1035.9Z" fill="#100259"/>
<path d="M2562.2 1029.7C2562.6 1029.4 2562.9 1029 2563 1028.4C2563.1 1027.4 2562.4 1026.6 2561.4 1026.5C2561.1 1026.5 2554.3 1025.8 2547.9 1030.4C2547.1 1031 2546.9 1032.1 2547.5 1032.9C2548.1 1033.7 2549.2 1033.8 2550 1033.3C2555.3 1029.4 2561 1030 2561.1 1030C2561.5 1030.1 2561.9 1029.9 2562.2 1029.7Z" fill="#100259"/>
<path d="M2575.6 1062.9C2570.6 1062.6 2568.5 1059.1 2568.2 1056.9C2568.1 1056.5 2568.2 1056.1 2568.4 1055.8C2572.3 1049.9 2571.1 1042 2571.1 1041.9C2571 1041.1 2571.5 1040.3 2572.3 1040.2C2573.1 1040.1 2573.9 1040.6 2574 1041.4C2574.1 1041.8 2575.4 1050.1 2571.2 1056.8C2571.6 1057.9 2573.1 1060.4 2577.8 1059.7C2578.6 1059.6 2579.4 1060.1 2579.5 1060.9C2579.6 1061.7 2579.1 1062.5 2578.3 1062.6C2577.2 1062.9 2576.4 1062.9 2575.6 1062.9Z" fill="#93544C"/>
<path d="M2588.2 1072C2588.2 1072 2572.1 1072 2561.7 1070.7C2561.7 1070.7 2566.8 1078.7 2573 1078.4C2579.1 1078.2 2588.2 1072 2588.2 1072Z" fill="white"/>
<path d="M2612.6 972.5C2612.6 972.5 2599.3 945.1 2576.6 946.4C2554 947.7 2555.8 964.6 2537.4 964.7C2519 964.8 2509.9 980.6 2512.6 991.5C2515.4 1002.4 2501.4 1013.5 2500.5 1025C2499.7 1036.5 2512.6 1037.4 2507.7 1048.2C2502.8 1059 2501.8 1075.8 2511.2 1080.5C2520.6 1085.2 2522.8 1100.3 2530.2 1101.6C2537.6 1102.9 2533.7 1093.5 2539.2 1086.6C2544.7 1079.7 2550.5 1077.8 2545 1069.5C2539.5 1061.2 2537.1 1057.1 2543.9 1052C2550.7 1046.9 2542.4 1037.2 2545.2 1027.8C2547.6 1019.6 2554.2 1016.1 2562 1017.6C2578.2 1020.5 2611.8 1005.8 2612.6 972.5Z" fill="#100259"/>
<path d="M2632.3 1092.5C2622.6 1093.4 2613.6 1086.3 2611.9 1076.1C2611.1 1071 2612.2 1065.8 2615.1 1061.6C2618 1057.4 2622.3 1054.6 2627.3 1053.8C2628 1053.7 2628.7 1054.2 2628.9 1054.9C2629 1055.6 2628.5 1056.3 2627.8 1056.5C2623.6 1057.2 2619.9 1059.6 2617.4 1063.2C2614.9 1066.8 2613.9 1071.3 2614.7 1075.7C2616.1 1084.5 2623.8 1090.6 2632.2 1089.9C2632.6 1089.9 2632.9 1089.8 2633.3 1089.8C2642 1088.4 2647.9 1079.8 2646.4 1070.6C2645.6 1065.9 2643 1061.7 2639.1 1059.1C2638.5 1058.7 2638.3 1057.8 2638.7 1057.2C2639.1 1056.6 2640 1056.4 2640.6 1056.8C2645.1 1059.8 2648.2 1064.7 2649.1 1070.1C2650.8 1080.7 2643.9 1090.7 2633.7 1092.4C2633.1 1092.4 2632.7 1092.5 2632.3 1092.5Z" fill="#FF6760"/>
<path d="M2158.72 391.287L1225.5 384.75C1223.57 384.75 1222.07 386.25 1222.07 388.179L1213.5 1610.13C1213.5 1612.06 1215 1613.56 1216.93 1613.56L2148.75 1620.1C2150.68 1620.1 2152.18 1618.6 2152.18 1616.67L2160.75 393.324C2160.75 392.252 2159.89 391.287 2158.72 391.287Z" fill="#060633"/>
<path d="M2125.6 416.903H1248.87V1577.34H2125.6V416.903Z" fill="white"/>
<path d="M1890.44 353.668L1750.68 352.703C1750.9 350.774 1751 348.952 1751 347.023C1751.22 312.511 1723.46 284.216 1688.84 284.001C1654.33 283.787 1626.03 311.546 1625.82 346.165C1625.82 348.095 1625.93 350.024 1626.03 351.846L1486.27 350.881C1459.58 350.667 1437.83 372.103 1437.72 398.79L1437.29 464.599C1437.29 470.708 1442.22 475.745 1448.33 475.852L1926.67 479.175C1932.78 479.175 1937.82 474.245 1937.93 468.136L1938.35 402.327C1938.57 375.64 1917.03 353.882 1890.44 353.668ZM1688.09 386.358C1666.12 386.25 1648.43 368.244 1648.54 346.273C1648.65 324.301 1666.65 306.616 1688.63 306.723C1710.6 306.83 1728.28 324.837 1728.17 346.808C1728.07 368.887 1710.17 386.572 1688.09 386.358Z" fill="#E31368"/>
<path d="M1907.92 587.855H1512.75C1512.53 587.855 1512.42 587.748 1512.42 587.533V578.101C1512.42 577.887 1512.53 577.78 1512.75 577.78H1907.92C1908.13 577.78 1908.24 577.887 1908.24 578.101V587.533C1908.24 587.64 1908.13 587.855 1907.92 587.855Z" fill="#BDD1F9"/>
<path d="M1907.92 668.347H1512.75C1512.53 668.347 1512.42 668.24 1512.42 668.025V658.593C1512.42 658.379 1512.53 658.272 1512.75 658.272H1907.92C1908.13 658.272 1908.24 658.379 1908.24 658.593V668.025C1908.24 668.132 1908.13 668.347 1907.92 668.347Z" fill="#BDD1F9"/>
<path d="M2058.82 628.047H1512.75C1512.53 628.047 1512.42 627.94 1512.42 627.726V618.294C1512.42 618.079 1512.53 617.972 1512.75 617.972H2058.82C2059.04 617.972 2059.15 618.079 2059.15 618.294V627.726C2059.15 627.94 2059.04 628.047 2058.82 628.047Z" fill="#BDD1F9"/>
<path d="M1468.91 679.6H1354.87C1352.4 679.6 1350.37 677.564 1350.37 675.099V560.953C1350.37 558.488 1352.4 556.451 1354.87 556.451H1468.91C1471.37 556.451 1473.41 558.488 1473.41 560.953V674.992C1473.41 677.564 1471.37 679.6 1468.91 679.6ZM1359.37 670.49H1464.3V565.561H1359.37V670.49Z" fill="#BDD1F9"/>
<path d="M1404.07 661.916C1403.96 661.916 1403.85 661.916 1403.74 661.916C1401.28 661.809 1399.14 660.201 1398.38 657.843C1391.2 637.158 1380.7 617.865 1366.98 600.395C1364.94 597.716 1365.37 593.964 1368.05 591.928C1370.73 589.891 1374.48 590.32 1376.52 593C1388.2 607.898 1397.63 623.975 1404.92 641.123C1425.39 603.396 1454.12 569.635 1488.63 542.84C1491.31 540.803 1495.06 541.232 1497.1 543.912C1499.13 546.591 1498.7 550.342 1496.03 552.379C1459.37 580.888 1429.47 617.544 1409.53 658.594C1408.57 660.63 1406.42 661.916 1404.07 661.916Z" fill="#00A295"/>
<path d="M1907.92 826.436H1512.75C1512.53 826.436 1512.42 826.329 1512.42 826.115V816.683C1512.42 816.468 1512.53 816.361 1512.75 816.361H1907.92C1908.13 816.361 1908.24 816.468 1908.24 816.683V826.115C1908.24 826.329 1908.13 826.436 1907.92 826.436Z" fill="#BDD1F9"/>
<path d="M2058.82 866.736H1512.75C1512.53 866.736 1512.42 866.629 1512.42 866.415V856.983C1512.42 856.768 1512.53 856.661 1512.75 856.661H2058.82C2059.04 856.661 2059.15 856.768 2059.15 856.983V866.415C2059.15 866.522 2059.04 866.736 2058.82 866.736Z" fill="#BDD1F9"/>
<path d="M1468.91 918.182H1354.87C1352.4 918.182 1350.37 916.146 1350.37 913.681V799.642C1350.37 797.176 1352.4 795.14 1354.87 795.14H1468.91C1471.37 795.14 1473.41 797.176 1473.41 799.642V913.681C1473.41 916.146 1471.37 918.182 1468.91 918.182ZM1359.37 909.072H1464.3V804.143H1359.37V909.072Z" fill="#BDD1F9"/>
<path d="M1401.28 900.605C1401.17 900.605 1401.06 900.605 1400.96 900.605C1398.71 900.497 1396.78 898.997 1396.03 896.853C1389.38 877.775 1379.63 859.876 1366.98 843.585C1365.05 841.12 1365.48 837.583 1367.95 835.654C1370.41 833.725 1373.95 834.153 1375.88 836.618C1386.7 850.445 1395.49 865.343 1402.14 881.205C1421.11 846.265 1447.79 814.968 1479.63 790.21C1482.09 788.281 1485.63 788.709 1487.56 791.174C1489.49 793.64 1489.06 797.176 1486.59 799.106C1452.62 825.472 1424.97 859.448 1406.42 897.389C1405.35 899.318 1403.42 900.605 1401.28 900.605Z" fill="#00A295"/>
<path d="M1907.92 1340.47H1512.75C1512.53 1340.47 1512.42 1340.36 1512.42 1340.15V1330.72C1512.42 1330.5 1512.53 1330.39 1512.75 1330.39H1907.92C1908.13 1330.39 1908.24 1330.5 1908.24 1330.72V1340.15C1908.24 1340.36 1908.13 1340.47 1907.92 1340.47Z" fill="#BDD1F9"/>
<path d="M1907.92 1420.96H1512.75C1512.53 1420.96 1512.42 1420.85 1512.42 1420.64V1411.21C1512.42 1410.99 1512.53 1410.89 1512.75 1410.89H1907.92C1908.13 1410.89 1908.24 1410.99 1908.24 1411.21V1420.64C1908.24 1420.85 1908.13 1420.96 1907.92 1420.96Z" fill="#BDD1F9"/>
<path d="M2058.82 1380.77H1512.75C1512.53 1380.77 1512.42 1380.66 1512.42 1380.45V1371.01C1512.42 1370.8 1512.53 1370.69 1512.75 1370.69H2058.82C2059.04 1370.69 2059.15 1370.8 2059.15 1371.01V1380.45C2059.15 1380.66 2059.04 1380.77 2058.82 1380.77Z" fill="#BDD1F9"/>
<path d="M1468.91 1432.32H1354.87C1352.4 1432.32 1350.37 1430.29 1350.37 1427.82V1313.78C1350.37 1311.32 1352.4 1309.28 1354.87 1309.28H1468.91C1471.37 1309.28 1473.41 1311.32 1473.41 1313.78V1427.82C1473.41 1430.18 1471.37 1432.32 1468.91 1432.32ZM1359.37 1423.21H1464.3V1318.28H1359.37V1423.21Z" fill="#BDD1F9"/>
<path d="M1404.07 1414.64C1403.96 1414.64 1403.85 1414.64 1403.74 1414.64C1401.28 1414.53 1399.14 1412.92 1398.38 1410.56C1391.2 1389.88 1380.7 1370.59 1366.98 1353.12C1364.94 1350.44 1365.37 1346.69 1368.05 1344.65C1370.73 1342.61 1374.48 1343.04 1376.52 1345.72C1388.2 1360.62 1397.63 1376.7 1404.92 1393.84C1425.39 1356.12 1454.12 1322.36 1488.63 1295.56C1491.31 1293.52 1495.06 1293.95 1497.1 1296.63C1499.13 1299.31 1498.7 1303.06 1496.03 1305.1C1459.37 1333.61 1429.47 1370.26 1409.53 1411.31C1408.57 1413.35 1406.42 1414.64 1404.07 1414.64Z" fill="#00A295"/>
<path d="M1907.91 1130.93H1512.74C1512.53 1130.93 1512.42 1130.83 1512.42 1130.61V1121.18C1512.42 1120.97 1512.53 1120.86 1512.74 1120.86H1907.91C1908.13 1120.86 1908.24 1120.97 1908.24 1121.18V1130.61C1908.24 1130.83 1908.13 1130.93 1907.91 1130.93Z" fill="#BDD1F9"/>
<path d="M2058.82 1090.74H1512.74C1512.53 1090.74 1512.42 1090.63 1512.42 1090.42V1080.99C1512.42 1080.77 1512.53 1080.67 1512.74 1080.67H2058.82C2059.04 1080.67 2059.15 1080.77 2059.15 1080.99V1090.42C2059.15 1090.53 2059.04 1090.74 2058.82 1090.74Z" fill="#BDD1F9"/>
<path d="M1468.91 1169.09H1354.87C1352.4 1169.09 1350.37 1167.05 1350.37 1164.59V1050.55C1350.37 1048.08 1352.4 1046.05 1354.87 1046.05H1468.91C1471.37 1046.05 1473.41 1048.08 1473.41 1050.55V1164.48C1473.41 1167.05 1471.37 1169.09 1468.91 1169.09ZM1359.37 1159.98H1464.3V1055.05H1359.37V1159.98Z" fill="#BDD1F9"/>
<path d="M1359.16 1044.76C1386.92 1025.68 1423.79 1020.86 1452.94 1040.26C1485.63 1062.12 1490.77 1104.25 1462.8 1132.54C1440.29 1155.37 1401.17 1165.12 1371.27 1153.23C1327.32 1135.76 1340.4 1081.2 1361.3 1050.87C1366.34 1043.58 1354.44 1036.62 1349.4 1043.9C1327.22 1076.27 1313.5 1133.72 1352.62 1159.34C1388.85 1183.13 1442.97 1171.98 1472.55 1142.29C1501.38 1113.25 1502.88 1068.77 1473.62 1039.62C1440.72 1006.71 1389.17 1007.46 1352.19 1032.86C1345.01 1037.9 1351.87 1049.8 1359.16 1044.76Z" fill="#F22800"/>
<path d="M1797.9 1289L1839.7 1282.9L1815.4 1260.2L1793.4 1253.1L1781.1 1265L1797.9 1289Z" fill="#E0B4AB"/>
<path d="M1976 1799.6C1976 1799.6 1965.9 1858.9 1965.5 1859.6C1965.1 1860.3 1969.2 1866.7 1969.2 1866.7L1985.2 1869.6L1999.8 1862.9C1999.8 1862.9 2008.2 1815.1 2009.8 1807.6C2011.3 1800.2 1976 1799.6 1976 1799.6Z" fill="#E0B4AB"/>
<path d="M1999.8 1862.9C1999.8 1862.9 1981.3 1869.4 1965.6 1858.7C1965.6 1858.7 1904.2 1881.7 1906 1899.2C1906 1899.2 1903.4 1904.4 1930 1903.3C1956.6 1902.2 1998 1901 1999.1 1900.4C2000.2 1899.7 2005.4 1902.6 1999.8 1862.9Z" fill="#131375"/>
<path d="M2158.4 1799.6C2158.4 1799.6 2174.1 1858.9 2173.7 1859.6C2173.3 1860.3 2177.4 1866.7 2177.4 1866.7L2193.4 1869.6L2208 1862.9C2208 1862.9 2200 1814.1 2201.6 1806.7C2203.1 1799.2 2158.4 1799.6 2158.4 1799.6Z" fill="#E0B4AB"/>
<path d="M2208 1862.9C2208 1862.9 2189.5 1869.4 2173.8 1858.7C2173.8 1858.7 2112.4 1881.7 2114.2 1899.2C2114.2 1899.2 2111.6 1904.4 2138.2 1903.3C2164.8 1902.2 2206.2 1901 2207.3 1900.4C2208.4 1899.7 2213.7 1902.6 2208 1862.9Z" fill="#131375"/>
<path d="M1992.5 1428.8L1960.4 1834.8H2015.6C2015.6 1834.8 2073.9 1514 2082.2 1512.6C2090.5 1511.2 2149.6 1834.8 2149.6 1834.8H2212.9L2180.5 1418.3L1992.5 1428.8Z" fill="#2F3DBC"/>
<path d="M2117 1112.5C2117 1112.5 2032.8 1122.4 2014.9 1134.6C1997.1 1146.8 1992.4 1347.5 1992.4 1347.5L1989.6 1436.6C1989.6 1436.6 2100.3 1474.1 2190.3 1436.6L2195 1347.5C2195 1347.5 2237.1 1144 2208 1135.7C2178.9 1127.3 2117 1112.5 2117 1112.5Z" fill="white"/>
<path d="M2074.6 1031.8C2074.6 1031.8 2071.5 1025.2 2068 1027.2C2059.1 1032.2 2065.9 1041.4 2070.9 1044L2074.6 1031.8Z" fill="#D39288"/>
<path d="M2076.4 1009.1C2076.5 1008.5 2076.6 1007.9 2076.7 1007.2C2080.9 979.2 2107.9 960.2 2136.1 966.3C2159.5 971.4 2176.1 993.2 2174.7 1017.1C2174.2 1026 2171.4 1034.1 2167 1041C2160.8 1051.7 2155.3 1060.9 2149.9 1068.4C2140.9 1080.8 2136.4 1095.8 2136.7 1111.1L2136.9 1121.2C2104.5 1132.7 2093.1 1117.7 2093.1 1117.7L2095.8 1096.1C2096.1 1093.3 2094.3 1090.7 2091.5 1090.1C2091.5 1090.1 2091.5 1090.1 2091.4 1090.1C2054.6 1082.2 2073.9 1025.9 2076.4 1009.1Z" fill="#E0B4AB"/>
<path d="M2092.4 1072C2101.4 1075.8 2111.8 1070.7 2112 1070.7C2112.3 1070.5 2112.4 1070.2 2112.3 1069.9C2112.1 1069.6 2111.8 1069.5 2111.5 1069.6C2110.8 1069.9 2094.5 1077.9 2086.1 1064.9C2085.9 1064.6 2085.5 1064.5 2085.2 1064.7C2084.9 1064.9 2084.8 1065.3 2085 1065.6C2087 1068.8 2089.7 1070.9 2092.4 1072Z" fill="#050521"/>
<path d="M2122.6 1042.6C2123 1040.1 2125.3 1038.4 2127.8 1038.7C2130.3 1039.1 2132 1041.4 2131.7 1043.9C2131.3 1046.4 2129 1048.1 2126.5 1047.8C2123.9 1047.5 2122.2 1045.1 2122.6 1042.6Z" fill="#01011C"/>
<path d="M2083.4 1028.5C2083.8 1026 2086.1 1024.3 2088.6 1024.6C2091.1 1025 2092.8 1027.3 2092.5 1029.8C2092.1 1032.3 2089.8 1034 2087.3 1033.7C2084.8 1033.3 2083 1031 2083.4 1028.5Z" fill="#01011C"/>
<path d="M2139.9 1038C2140.4 1038.1 2140.9 1038 2141.3 1037.8C2142.7 1037.2 2143.3 1035.7 2142.8 1034.3C2141.1 1030.2 2135 1023.3 2124.1 1026.8C2122.7 1027.3 2121.9 1028.8 2122.4 1030.2C2122.9 1031.6 2124.4 1032.4 2125.8 1031.9C2134.8 1029 2137.8 1036 2137.9 1036.3C2138.2 1037.2 2139 1037.8 2139.9 1038Z" fill="#3F2A29"/>
<path d="M2098.4 1024.5C2098.9 1024.6 2099.4 1024.5 2099.8 1024.3C2101.2 1023.7 2101.8 1022.2 2101.3 1020.8C2099.6 1016.7 2093.5 1009.8 2082.6 1013.3C2081.2 1013.8 2080.4 1015.3 2080.9 1016.7C2081.4 1018.1 2082.9 1018.9 2084.3 1018.4C2093.3 1015.5 2096.3 1022.5 2096.4 1022.8C2096.7 1023.8 2097.5 1024.4 2098.4 1024.5Z" fill="#3F2A29"/>
<path d="M2177 1029.8L2157 1058.3L2148.7 1054.6L2153.7 1013.3L2177 1029.8Z" fill="#3F2A29"/>
<path d="M2140.07 1045.75L2139.77 1047.01L2165.48 1053.04L2165.77 1051.77L2140.07 1045.75Z" fill="black"/>
<path d="M2149.8 1052.9C2150.8 1051.4 2152.4 1050.4 2154.1 1050C2157.7 1049.1 2163.8 1048.6 2167.3 1053.2C2172.4 1060.1 2158 1074.2 2147.2 1064.5C2147.3 1064.6 2144.4 1060.6 2149.8 1052.9Z" fill="#E0B4AB"/>
<path d="M2096.8 1055.6C2100.8 1058.4 2105.1 1056.6 2105.1 1056.6C2105.5 1056.4 2105.7 1056 2105.5 1055.6C2105.3 1055.2 2104.9 1055 2104.5 1055.2C2104.3 1055.3 2099.6 1057.2 2095.9 1052.6C2095.3 1051.9 2095 1051.3 2095 1050.9C2095.1 1050.4 2095.8 1049.8 2096.9 1048.9C2099.3 1047 2103.3 1043.8 2105.7 1035.5C2105.8 1035.1 2105.6 1034.6 2105.1 1034.5C2104.7 1034.4 2104.2 1034.6 2104.1 1035.1C2101.9 1042.9 2098.3 1045.8 2095.9 1047.7C2094.6 1048.7 2093.6 1049.5 2093.5 1050.8C2093.4 1051.7 2093.8 1052.6 2094.7 1053.7C2095.3 1054.4 2096 1055 2096.8 1055.6Z" fill="#D39288"/>
<path d="M2109.8 1039.1C2106.1 1035.4 2102.5 1036.3 2100.9 1036.6C2100.5 1036.7 2100.3 1036.7 2100.1 1036.7V1035.4C2100.2 1035.4 2100.4 1035.3 2100.6 1035.3C2102.2 1034.9 2106.5 1033.9 2110.7 1038.1L2109.8 1039.1Z" fill="black"/>
<path d="M2134.1 1054.2C2133.9 1054.2 2133.7 1054.1 2133.5 1054.1L2111.8 1047C2109.5 1046.2 2108.2 1043.7 2109 1041.4L2111.4 1034.2C2111.8 1033.1 2112.6 1032.2 2113.6 1031.6C2114.7 1031.1 2115.9 1031 2117 1031.3L2138.7 1038.4C2139.8 1038.8 2140.7 1039.6 2141.3 1040.6C2141.8 1041.7 2141.9 1042.9 2141.6 1044L2139.2 1051.2C2138.8 1052.3 2138 1053.2 2137 1053.8C2136 1054.3 2135 1054.4 2134.1 1054.2ZM2133.9 1052.9C2134.7 1053.2 2135.6 1053.1 2136.3 1052.7C2137.1 1052.3 2137.6 1051.7 2137.9 1050.9L2140.3 1043.7C2140.6 1042.9 2140.5 1042 2140.1 1041.3C2139.7 1040.5 2139.1 1040 2138.3 1039.7L2116.6 1032.6C2114.9 1032.1 2113.1 1033 2112.6 1034.6L2110.2 1041.8C2109.7 1043.5 2110.6 1045.3 2112.2 1045.8L2133.9 1052.9Z" fill="black"/>
<path d="M2094.7 1041.2C2094.5 1041.2 2094.3 1041.1 2094.1 1041.1L2072.4 1034C2071.3 1033.6 2070.4 1032.8 2069.8 1031.8C2069.3 1030.7 2069.2 1029.5 2069.5 1028.4L2071.9 1021.2C2072.3 1020.1 2073.1 1019.2 2074.1 1018.6C2075.1 1018 2076.4 1018 2077.5 1018.3L2099.2 1025.4C2101.5 1026.2 2102.8 1028.7 2102 1031L2099.6 1038.2C2099.1 1040.4 2096.9 1041.6 2094.7 1041.2ZM2094.6 1039.9C2096.3 1040.4 2098.1 1039.5 2098.6 1037.9L2101 1030.7C2101.5 1029 2100.6 1027.2 2099 1026.7L2077.3 1019.6C2076.5 1019.3 2075.6 1019.4 2074.9 1019.8C2074.1 1020.2 2073.6 1020.8 2073.3 1021.6L2070.9 1028.8C2070.4 1030.5 2071.3 1032.3 2072.9 1032.8L2094.6 1039.9Z" fill="black"/>
<path d="M2090.8 989C2090.8 989 2082.8 992 2074.2 1019.4C2074.2 1019.4 2079.6 987.8 2084 985.3C2088.5 982.8 2090.8 989 2090.8 989Z" fill="#3F2A29"/>
<path d="M2155.3 1017.1C2150.5 1015 2154.3 1008.3 2150.9 1004.7C2150.3 1004.1 2151 1004.8 2150.8 1004.6C2148.7 1001.9 2143 996.8 2139.7 995.4C2133.4 992.7 2125.7 992.3 2119.5 989.6C2116.9 988.5 2114 987.3 2111.3 988C2108.5 988.6 2106.2 991.9 2107.6 994.3C2106.1 994.4 2104.6 993.5 2104 992.1C2103.5 990.7 2104 989 2105.2 988.1C2101.9 989.2 2099.3 992.3 2098.8 995.8C2098.8 994 2098.8 992.2 2098.1 990.6C2097.4 989 2096 987.5 2094.2 987.5C2091.6 987.4 2090 990.7 2087.4 990.3C2085.6 990 2083.9 987.6 2083.8 985.8C2083.7 984 2084.5 982.2 2085.4 980.6C2089.8 973.2 2097.4 968 2105.7 965.6C2114 963.1 2122.8 963.2 2131.3 964.4C2138.4 965.4 2145.5 967.2 2151.8 970.6C2158.1 974 2163.7 979 2166.9 985.4C2168.1 987.7 2168.3 990.6 2169.7 992.8C2171 994.9 2173.5 996.2 2175 998.1C2182.8 1007.8 2182.7 1023 2174.9 1032.6L2155.3 1017.1Z" fill="#3F2A29"/>
<path d="M2024.7 1130C1982.1 1139.8 1952.1 1215.6 1935.6 1234.9C1919.1 1254.3 1815.4 1250.7 1815.4 1250.7L1839.1 1287.6C1839.1 1287.6 1953.1 1322.4 1990.1 1280C2026.9 1237.7 2024.7 1130 2024.7 1130Z" fill="#49C3F8"/>
<path d="M2093.4 1115.6C2093.4 1115.6 2058.5 1244.1 2047.4 1298.7C2036.4 1353.3 2019.8 1482.6 2019.8 1482.6H1969L1989.5 1244.5L2024.6 1130C2024.7 1130 2042.8 1121.4 2093.4 1115.6Z" fill="#49C3F8"/>
<path d="M2136.3 1117.5L2129.2 1489.2L2208 1488.2L2195 1347.5L2218.2 1225.4L2216.7 1142C2216.8 1142 2215.4 1127.7 2136.3 1117.5Z" fill="#49C3F8"/>
<path d="M1431.2 1110.6C1429.4 1113.8 1430.8 1117.8 1434.2 1119.2C1509.6 1150 2233.8 1437.3 2233.8 1437.3C2234.7 1437.6 2235.6 1437.2 2235.9 1436.3L2246.9 1407.3C2247.2 1406.4 2246.8 1405.5 2245.9 1405.2C2245.9 1405.2 1498 1129.9 1437.1 1108.4C1434.8 1107.5 1432.3 1108.5 1431.2 1110.6Z" fill="#050521"/>
<path d="M2206 1361.3C2206 1361.3 2183.3 1372.7 2175.5 1377.4C2167.7 1382.1 2156.7 1380.9 2157.8 1386.1C2158.9 1391.3 2176.2 1388.8 2176.2 1388.8C2176.2 1388.8 2166.5 1404.6 2162.8 1409C2159.1 1413.4 2154.4 1422.9 2157.4 1425.9C2160.4 1428.9 2176.8 1406.5 2176.8 1406.5C2176.8 1406.5 2164.9 1426.7 2167 1430C2169.2 1433.3 2188.1 1409.9 2188.1 1409.9C2188.1 1409.9 2174.3 1430.8 2174.7 1433.4C2175 1436 2178.4 1435.6 2185 1429.4C2191.7 1423.2 2196.9 1415.1 2196.9 1415.1C2196.9 1415.1 2188.3 1430.5 2187.9 1432.7C2187.5 1434.9 2188.6 1438.2 2197.5 1428C2206.4 1417.8 2221.9 1393.2 2224.6 1377.4L2206 1361.3Z" fill="#E0B4AB"/>
<path d="M2208 1135.6C2210.9 1137.5 2213.8 1139.6 2216.7 1142C2264.7 1180.2 2310.1 1269.2 2299.3 1293.6C2287.8 1319.5 2229 1385 2229 1385L2193.9 1366C2193.9 1366 2228.1 1303.4 2230.2 1285.5C2232.3 1267.6 2205.7 1233 2205.7 1233L2208 1135.6Z" fill="#49C3F8"/>
<path d="M1797.9 1289C1797.9 1289 1813.1 1264.3 1809.9 1261.7C1806.7 1259.1 1790.5 1275.5 1790.7 1275.2C1790.9 1274.9 1804.9 1255 1801.8 1250.1C1798.8 1245.2 1781 1265 1781 1265C1781 1265 1795.5 1247.3 1793.2 1244.1C1790.9 1240.9 1775.2 1256.3 1774.1 1255.2C1773 1254.1 1787.5 1241.9 1784.9 1237.8C1782.3 1233.7 1761.1 1250.1 1761.7 1255.6C1762.3 1261.1 1767.9 1261.7 1767.9 1261.7C1767.9 1261.7 1769.9 1270.8 1774.9 1272C1774.9 1272 1781.9 1282.7 1787.1 1280.6C1787.2 1280.6 1789 1291.7 1797.9 1289Z" fill="#E0B4AB"/>
</svg>
