<svg width="3000" height="2000" viewBox="0 0 3000 2000" fill="none" xmlns="http://www.w3.org/2000/svg">
<g opacity="0.2">
<path d="M2625.7 1896.5C2548.2 1907.5 273.1 1864 273.1 1864C68.6 1750 59.5 1410.3 142.7 1233.2C225.7 1056.4 396.3 1036.9 387.3 665C371.6 20.5 953.2 335 1163.3 179.8C1827 -310.4 1819.9 366.3 2343.3 335C3088.7 290.5 2675.2 984.6 2832.4 1233.1C3006 1507.7 2849.7 1864.8 2625.7 1896.5Z" fill="#37BCF5"/>
</g>
<path d="M2505.2 1657.7C2505.1 1657.7 2504.9 1657.6 2504.8 1657.6C2503.6 1657.1 2503.1 1655.8 2503.6 1654.6C2629.6 1350.5 2737.7 1137.8 2808.1 1055.6C2809.7 1053.8 2810.8 1052.5 2811.2 1051.8C2811.9 1050.7 2813.3 1050.5 2814.4 1051.2C2815.5 1051.9 2815.7 1053.3 2815 1054.4C2814.4 1055.3 2813.3 1056.6 2811.5 1058.7C2741.4 1140.6 2633.5 1352.9 2507.7 1656.5C2507.4 1657.3 2506.3 1657.9 2505.2 1657.7Z" fill="#09D0C4"/>
<path d="M2852.6 1043.8C2844.3 1053 2805.8 1067.5 2803.2 1065.1C2800.6 1062.7 2811 1023 2819.3 1013.8C2827.6 1004.6 2841.7 1003.9 2850.9 1012.2C2860.1 1020.4 2860.9 1034.6 2852.6 1043.8Z" fill="#09D0C4"/>
<path d="M2778.8 1066.8C2781.2 1079.2 2769.4 1119.6 2765.8 1120.3C2762.3 1121 2736.2 1087.9 2733.8 1075.5C2731.4 1063.1 2739.5 1051.1 2751.9 1048.6C2764.3 1046.2 2776.4 1054.3 2778.8 1066.8Z" fill="#09D0C4"/>
<path d="M2815.2 1143.2C2802.6 1142.7 2765.9 1122.1 2766 1118.5C2766.1 1114.9 2804.2 1096.9 2816.8 1097.4C2829.4 1097.9 2839.3 1108.5 2838.9 1121.1C2838.5 1133.7 2827.8 1143.6 2815.2 1143.2Z" fill="#09D0C4"/>
<path d="M2650.1 1263.8C2656.4 1284.1 2643.9 1353.6 2638.1 1355.4C2632.3 1357.2 2582.8 1306.7 2576.6 1286.4C2570.3 1266.1 2581.7 1244.6 2602 1238.3C2622.3 1232.1 2643.8 1243.5 2650.1 1263.8Z" fill="#09D0C4"/>
<path d="M2724.7 1384.7C2703.5 1386.2 2638.6 1358.4 2638.1 1352.4C2637.7 1346.4 2697.9 1309.5 2719.1 1308C2740.3 1306.5 2758.7 1322.4 2760.2 1343.6C2761.8 1364.7 2745.9 1383.1 2724.7 1384.7Z" fill="#09D0C4"/>
<path d="M2587.2 1336.6C2600.1 1359.1 2604 1445.5 2597.6 1449.2C2591.2 1452.9 2518.5 1406 2505.6 1383.5C2492.7 1361 2500.4 1332.2 2523 1319.2C2545.5 1306.3 2574.3 1314.1 2587.2 1336.6Z" fill="#09D0C4"/>
<path d="M2695.3 1495.9C2669.3 1495.1 2593.8 1453.1 2594 1445.7C2594.2 1438.3 2672.2 1401 2698.2 1401.8C2724.2 1402.6 2744.6 1424.3 2743.8 1450.3C2743 1476.3 2721.3 1496.7 2695.3 1495.9Z" fill="#09D0C4"/>
<path d="M2542.9 1435.5C2555.8 1458 2559.7 1544.4 2553.3 1548.1C2546.9 1551.8 2474.2 1504.9 2461.3 1482.4C2448.4 1459.9 2456.1 1431.1 2478.7 1418.1C2501.2 1405.1 2529.9 1412.9 2542.9 1435.5Z" fill="#09D0C4"/>
<path d="M2651 1594.7C2625 1593.9 2549.5 1551.9 2549.7 1544.5C2549.9 1537.1 2627.9 1499.8 2653.9 1500.6C2679.9 1501.4 2700.3 1523.1 2699.5 1549.1C2698.7 1575.1 2677 1595.5 2651 1594.7Z" fill="#09D0C4"/>
<path d="M2455.3 1556.4C2475.9 1572.3 2512.3 1650.7 2507.8 1656.6C2503.3 1662.5 2418.2 1646.8 2397.7 1630.9C2377.1 1615 2373.4 1585.4 2389.3 1564.9C2405.2 1544.3 2434.8 1540.5 2455.3 1556.4Z" fill="#09D0C4"/>
<path d="M2610.7 1692.8C2584.8 1695.2 2504.6 1663 2503.9 1655.6C2503.2 1648.2 2575.9 1601.5 2601.8 1599.1C2627.7 1596.7 2650.6 1615.7 2653.1 1641.5C2655.6 1667.4 2636.6 1690.4 2610.7 1692.8Z" fill="#09D0C4"/>
<path d="M2739 1128.1C2741.4 1140.7 2729.4 1181.8 2725.8 1182.5C2722.2 1183.2 2695.7 1149.6 2693.3 1137C2690.9 1124.4 2699.1 1112.2 2711.7 1109.7C2724.4 1107.3 2736.6 1115.5 2739 1128.1Z" fill="#09D0C4"/>
<path d="M2774.3 1206.4C2761.5 1205.9 2724.2 1185 2724.3 1181.3C2724.4 1177.6 2763.1 1159.4 2776 1159.9C2788.9 1160.4 2798.9 1171.2 2798.4 1184C2797.9 1196.8 2787.1 1206.8 2774.3 1206.4Z" fill="#09D0C4"/>
<path d="M2695 1184.4C2699.9 1202 2687.7 1261.5 2682.6 1262.9C2677.6 1264.3 2636.2 1219.8 2631.2 1202.3C2626.3 1184.7 2636.5 1166.5 2654.1 1161.5C2671.8 1156.6 2690.1 1166.8 2695 1184.4Z" fill="#09D0C4"/>
<path d="M2753.4 1296.5C2735.1 1295.8 2682.2 1266.1 2682.4 1260.8C2682.6 1255.6 2737.5 1229.7 2755.8 1230.3C2774.1 1231 2788.3 1246.3 2787.7 1264.5C2787 1282.9 2771.6 1297.1 2753.4 1296.5Z" fill="#09D0C4"/>
<path d="M2321.8 1842.8C2321.8 1842.8 2030.2 1607.8 2513.1 1179C2513.1 1179 2738 1805 2321.8 1842.8Z" fill="#7C9AF2"/>
<path d="M2513.5 1177.8L2290.7 1807.3C2230.9 1727.7 2137.7 1511.3 2513.5 1177.8Z" fill="#91B5F8"/>
<path d="M2300.5 1781.7C2300.3 1781.8 2300 1781.8 2299.8 1781.7C2299.2 1781.5 2298.9 1780.9 2299.1 1780.3L2512.4 1177.4C2512.6 1176.8 2513.2 1176.5 2513.8 1176.7C2514.4 1176.9 2514.7 1177.5 2514.5 1178.1L2301.2 1781C2301 1781.3 2300.8 1781.6 2300.5 1781.7Z" fill="#060633"/>
<path d="M2402.5 1493.5C2402 1493.7 2401.4 1493.5 2401.2 1493C2400.9 1492.5 2401.1 1491.8 2401.6 1491.5L2557.9 1407C2558.4 1406.7 2559.1 1406.9 2559.4 1407.4C2559.7 1407.9 2559.5 1408.6 2559 1408.9L2402.7 1493.4C2402.6 1493.5 2402.5 1493.5 2402.5 1493.5Z" fill="#060633"/>
<path d="M2356.8 1622.7C2356.7 1622.7 2356.7 1622.7 2356.6 1622.8C2356 1622.9 2355.4 1622.5 2355.4 1621.9L2327.3 1449.8C2327.2 1449.2 2327.6 1448.6 2328.2 1448.5C2328.8 1448.4 2329.4 1448.8 2329.4 1449.4L2357.5 1621.5C2357.6 1622 2357.3 1622.5 2356.8 1622.7Z" fill="#060633"/>
<path d="M595 1898.9C595 1898.9 879.3 1660 391.9 1244.8C391.9 1244.8 181.7 1869.9 595 1898.9Z" fill="#7C9AF2"/>
<path d="M391.5 1243.6L625.1 1863.1C682.8 1783 770.8 1566.6 391.5 1243.6Z" fill="#91B5F8"/>
<path d="M614.9 1837.9C615.1 1838 615.4 1838 615.6 1837.9C616.2 1837.7 616.4 1837.1 616.2 1836.5L392.5 1243.2C392.3 1242.6 391.7 1242.4 391.1 1242.6C390.5 1242.8 390.3 1243.4 390.5 1244L614.2 1837.3C614.4 1837.6 614.6 1837.8 614.9 1837.9Z" fill="#060633"/>
<path d="M508 1554.4C508.5 1554.6 509.1 1554.4 509.3 1553.9C509.6 1553.4 509.4 1552.7 508.8 1552.4L352.2 1471.8C351.7 1471.5 351 1471.7 350.7 1472.3C350.4 1472.8 350.6 1473.5 351.2 1473.8L507.8 1554.4C507.9 1554.3 507.9 1554.3 508 1554.4Z" fill="#060633"/>
<path d="M555.9 1681.4C556 1681.4 556 1681.4 556.1 1681.5C556.7 1681.6 557.2 1681.2 557.3 1680.6L581.6 1509.4C581.7 1508.8 581.3 1508.3 580.7 1508.2C580.1 1508.1 579.6 1508.5 579.5 1509.1L555.2 1680.3C555.1 1680.8 555.4 1681.3 555.9 1681.4Z" fill="#060633"/>
<path d="M476.1 1886.1C476.1 1886.1 617.5 1658.1 189.5 1482.8C189.5 1482.8 185.8 1959.2 476.1 1886.1Z" fill="#91B5F8"/>
<path d="M189.5 1482.8L476.1 1886.1C476.1 1886.1 210.3 1998.3 189.5 1482.8Z" fill="#7C9AF2"/>
<path d="M232.7 1625.3C232.8 1625.3 232.8 1625.4 232.9 1625.4L333.1 1680.1C333.9 1680.5 334.8 1680.2 335.2 1679.5C335.6 1678.7 335.3 1677.8 334.6 1677.4L234.4 1622.7C233.6 1622.3 232.7 1622.6 232.3 1623.3C231.9 1624 232.1 1624.8 232.7 1625.3Z" fill="#91B5F8"/>
<path d="M305.3 1785.6C305.4 1785.7 305.5 1785.7 305.6 1785.8L444.8 1844.5C445.6 1844.8 446.5 1844.5 446.8 1843.7C447.1 1842.9 446.8 1842 446 1841.6L306.8 1782.9C306 1782.6 305.1 1782.9 304.7 1783.7C304.5 1784.4 304.7 1785.1 305.3 1785.6Z" fill="#91B5F8"/>
<path d="M2434.9 1855.6C2434.9 1855.6 2311.2 1569.6 2833 1441C2833 1440.9 2756 1989 2434.9 1855.6Z" fill="#91B5F8"/>
<path d="M2833 1440.9L2434.9 1855.5C2434.9 1855.6 2721.2 2029.7 2833 1440.9Z" fill="#7C9AF2"/>
<path d="M2759 1597.3C2758.9 1597.3 2758.9 1597.4 2758.8 1597.4L2634.3 1643.2C2633.4 1643.5 2632.3 1643.1 2632 1642.1C2631.7 1641.2 2632.2 1640.1 2633.1 1639.8L2757.6 1594C2758.5 1593.7 2759.6 1594.1 2759.9 1595.1C2760.2 1596 2759.8 1596.9 2759 1597.3Z" fill="#91B5F8"/>
<path d="M2648.3 1769.1C2648.2 1769.2 2648.1 1769.2 2647.9 1769.2L2477.9 1812.9C2476.9 1813.2 2475.9 1812.6 2475.7 1811.6C2475.4 1810.6 2476 1809.6 2477 1809.4L2647 1765.7C2648 1765.5 2649 1766 2649.2 1767C2649.5 1767.9 2649.1 1768.7 2648.3 1769.1Z" fill="#91B5F8"/>
<path d="M1500 1999C2214.77 1999 2794.2 1950.15 2794.2 1889.9C2794.2 1829.65 2214.77 1780.8 1500 1780.8C785.233 1780.8 205.8 1829.65 205.8 1889.9C205.8 1950.15 785.233 1999 1500 1999Z" fill="#37BCF5"/>
<path d="M470.2 1887.7C470.3 1887.7 470.3 1887.7 470.4 1887.7C471 1887.6 471.4 1887 471.3 1886.4C442.5 1732 413 1622.1 388.3 1576.7C387.8 1575.7 387.4 1575 387.2 1574.6C387 1574 386.3 1573.8 385.8 1574C385.2 1574.2 385 1574.9 385.2 1575.4C385.4 1575.9 385.8 1576.6 386.4 1577.7C411 1622.8 440.4 1732.6 469.2 1886.7C469.2 1887.3 469.7 1887.7 470.2 1887.7Z" fill="#00A295"/>
<path d="M368.7 1566.8C371.7 1571.9 388.2 1582.5 389.7 1581.6C391.2 1580.8 390.2 1561.2 387.2 1556C384.2 1550.9 377.7 1549.2 372.6 1552.1C367.4 1555.2 365.7 1561.7 368.7 1566.8Z" fill="#00A295"/>
<path d="M400.8 1584.9C398.5 1590.5 400 1610.5 401.6 1611.2C403.2 1611.9 418.6 1599 421 1593.5C423.3 1587.9 420.7 1581.5 415.2 1579.2C409.6 1576.7 403.2 1579.3 400.8 1584.9Z" fill="#00A295"/>
<path d="M376.3 1616.9C382.2 1617.9 401.4 1611.9 401.7 1610.2C402 1608.5 386 1596.4 380 1595.3C374.1 1594.3 368.4 1598.2 367.4 1604.2C366.4 1610.2 370.3 1615.9 376.3 1616.9Z" fill="#00A295"/>
<path d="M441.5 1689.5C436.6 1698.4 435.5 1732 438.1 1733.5C440.6 1734.9 468.7 1716.2 473.6 1707.4C478.5 1698.5 475.3 1687.4 466.5 1682.4C457.6 1677.5 446.4 1680.7 441.5 1689.5Z" fill="#00A295"/>
<path d="M394.7 1738.6C404.4 1741.4 437.5 1734.8 438.3 1732.1C439.1 1729.3 414.6 1706.2 404.9 1703.4C395.2 1700.6 385 1706.2 382.2 1716C379.3 1725.6 385 1735.8 394.7 1738.6Z" fill="#00A295"/>
<path d="M463.6 1729.7C455.3 1738.9 445 1778.9 447.7 1781.2C450.3 1783.6 488.9 1768.8 497.1 1759.6C505.4 1750.4 504.6 1736.2 495.3 1727.9C486.1 1719.7 471.9 1720.5 463.6 1729.7Z" fill="#00A295"/>
<path d="M397.4 1793.4C409.6 1795.6 449 1783.4 449.6 1779.9C450.2 1776.4 417.5 1751.3 405.3 1749.1C393.1 1746.9 381.4 1755 379.2 1767.2C377.1 1779.6 385.2 1791.2 397.4 1793.4Z" fill="#00A295"/>
<path d="M474.5 1780.2C466.2 1789.4 455.9 1829.4 458.6 1831.7C461.2 1834.1 499.8 1819.3 508 1810.1C516.3 1800.9 515.5 1786.7 506.2 1778.4C497 1770.2 482.8 1771 474.5 1780.2Z" fill="#00A295"/>
<path d="M408.4 1843.9C420.6 1846.1 460 1833.9 460.6 1830.4C461.2 1826.9 428.5 1801.8 416.3 1799.6C404.1 1797.4 392.4 1805.5 390.2 1817.7C388 1830.1 396.2 1841.7 408.4 1843.9Z" fill="#00A295"/>
<path d="M503.5 1845.3C492.3 1850.7 467.6 1883.7 469.1 1886.9C470.6 1890.1 511.9 1891.2 523 1885.8C534.2 1880.4 538.8 1867 533.4 1855.8C528.1 1844.6 514.6 1839.9 503.5 1845.3Z" fill="#00A295"/>
<path d="M417.5 1893.7C429.3 1897.4 470 1890.3 471 1886.9C472.1 1883.5 442.7 1854.5 430.9 1850.8C419.1 1847.1 406.5 1853.7 402.8 1865.5C399.1 1877.4 405.7 1890 417.5 1893.7Z" fill="#00A295"/>
<path d="M413.3 1617.4C410.9 1623.1 412.5 1643.4 414.1 1644.1C415.7 1644.8 431.4 1631.7 433.8 1626.1C436.2 1620.4 433.5 1613.9 427.9 1611.5C422.2 1609.1 415.7 1611.8 413.3 1617.4Z" fill="#00A295"/>
<path d="M389.1 1650.5C395.1 1651.6 414.6 1645.4 414.9 1643.7C415.2 1642 398.9 1629.6 392.9 1628.6C386.9 1627.5 381.1 1631.6 380.1 1637.6C379.1 1643.7 383.1 1649.4 389.1 1650.5Z" fill="#00A295"/>
<path d="M428.3 1648C424.3 1655.7 424.1 1684.7 426.3 1685.9C428.5 1687.1 452.2 1670.4 456.3 1662.7C460.3 1655 457.3 1645.4 449.6 1641.4C441.9 1637.3 432.3 1640.3 428.3 1648Z" fill="#00A295"/>
<path d="M390 1694.6C398.6 1696.1 426.2 1687.4 426.7 1685C427.1 1682.5 404 1665 395.4 1663.5C386.8 1662 378.6 1667.8 377.1 1676.3C375.7 1684.9 381.4 1693.1 390 1694.6Z" fill="#00A295"/>
<path d="M1907.7 398.6H677.4V1537.8H1907.7V398.6Z" fill="white"/>
<path d="M1907.7 398.6H677.4V482.2H1907.7V398.6Z" fill="#3746F5"/>
<path d="M716.4 439.9C716.4 434.4 721.3 429.9 727.3 429.9C733.3 429.9 738.2 434.4 738.2 439.9C738.2 445.4 733.3 449.9 727.3 449.9C721.3 449.9 716.4 445.4 716.4 439.9Z" fill="#DDE7FE"/>
<path d="M762.1 439.9C762.1 434.4 767 429.9 773 429.9C779 429.9 783.9 434.4 783.9 439.9C783.9 445.4 779 449.9 773 449.9C767 449.9 762.1 445.4 762.1 439.9Z" fill="#DDE7FE"/>
<path d="M807.8 439.9C807.8 434.4 812.7 429.9 818.7 429.9C824.7 429.9 829.6 434.4 829.6 439.9C829.6 445.4 824.7 449.9 818.7 449.9C812.7 449.9 807.8 445.4 807.8 439.9Z" fill="#DDE7FE"/>
<path d="M1303.3 832.6H878.8V848.8H1303.3V832.6Z" fill="#BDD1F9"/>
<path d="M1456.8 832.6H1329.7V848.8H1456.8V832.6Z" fill="#BDD1F9"/>
<path d="M1051.7 882.8H878.8V899H1051.7V882.8Z" fill="#BDD1F9"/>
<path d="M1298.6 882.8H1069.2V899H1298.6V882.8Z" fill="#BDD1F9"/>
<path d="M1456.8 882.8H1329.7V899H1456.8V882.8Z" fill="#BDD1F9"/>
<path d="M1106.1 926.2H878.8V942.4H1106.1V926.2Z" fill="#BDD1F9"/>
<path d="M1501.1 926.2H1142.3V942.4H1501.1V926.2Z" fill="#BDD1F9"/>
<path d="M1297.3 1217.9H872.8V1234.1H1297.3V1217.9Z" fill="#E31368"/>
<path d="M1450.8 1217.9H1323.7V1234.1H1450.8V1217.9Z" fill="#E31368"/>
<path d="M1045.7 1268.1H872.8V1284.3H1045.7V1268.1Z" fill="#E31368"/>
<path d="M1292.6 1268.1H1063.2V1284.3H1292.6V1268.1Z" fill="#E31368"/>
<path d="M1450.8 1268.1H1323.7V1284.3H1450.8V1268.1Z" fill="#E31368"/>
<path d="M1100.1 1311.5H872.8V1327.7H1100.1V1311.5Z" fill="#E31368"/>
<path d="M1495.1 1311.5H1136.3V1327.7H1495.1V1311.5Z" fill="#E31368"/>
<path d="M781.7 756.3C781 756 780.5 755.6 780.2 755.2C779.9 754.8 779.8 754.1 779.8 753.3V746.7C779.8 745.9 779.9 745.3 780.2 744.8C780.5 744.4 781 744 781.7 743.7L830.2 721.9C830.6 721.8 831 721.7 831.2 721.7C832.2 721.7 832.6 722.2 832.6 723.2V735.3C832.6 736.2 832.5 736.8 832.2 737.1C831.9 737.4 831.4 737.7 830.7 738L801.8 749.8L830.7 761.6C831.4 761.9 831.9 762.2 832.2 762.5C832.5 762.8 832.6 763.4 832.6 764.3V776.6C832.6 777.6 832.1 778.1 831.2 778.1C830.8 778.1 830.4 778 830.2 777.9L781.7 756.3Z" fill="#3746F5"/>
<path d="M839.4 778.5C839.4 777.8 839.5 777.2 839.8 776.6L868.2 707.4C868.8 705.9 869.8 705.2 871.4 705.2H885C886.2 705.2 886.8 705.8 886.8 706.8C886.8 707.3 886.7 707.9 886.5 708.6L858.1 777.8C857.5 779.3 856.4 780 854.8 780H841.3C840 780.1 839.4 779.6 839.4 778.5Z" fill="#3746F5"/>
<path d="M894.9 778.3C894 778.3 893.6 777.8 893.6 776.8V765.5C893.6 764.7 893.7 764.1 894 763.7C894.3 763.3 894.8 763 895.5 762.7L925.1 749.9L895.5 737.1C894.8 736.8 894.3 736.5 894 736.1C893.7 735.7 893.6 735.1 893.6 734.3V723.2C893.6 722.2 894 721.7 894.9 721.7C895.1 721.7 895.4 721.8 895.9 721.9L944.5 743.7C945.2 744 945.6 744.4 945.9 744.8C946.2 745.2 946.3 745.9 946.3 746.7V753.3C946.3 754.1 946.2 754.7 945.9 755.2C945.6 755.6 945.1 756 944.5 756.3L895.9 778.1C895.5 778.2 895.1 778.3 894.9 778.3Z" fill="#3746F5"/>
<path d="M781.7 1136.8C781 1136.5 780.5 1136.1 780.2 1135.7C779.9 1135.3 779.8 1134.6 779.8 1133.8V1127.2C779.8 1126.4 779.9 1125.8 780.2 1125.3C780.5 1124.9 781 1124.5 781.7 1124.2L830.2 1102.4C830.6 1102.3 831 1102.2 831.2 1102.2C832.2 1102.2 832.6 1102.7 832.6 1103.7V1115.8C832.6 1116.7 832.5 1117.3 832.2 1117.6C831.9 1117.9 831.4 1118.2 830.7 1118.5L801.8 1130.3L830.7 1142.1C831.4 1142.4 831.9 1142.7 832.2 1143C832.5 1143.3 832.6 1143.9 832.6 1144.8V1157.1C832.6 1158.1 832.1 1158.6 831.2 1158.6C830.8 1158.6 830.4 1158.5 830.2 1158.4L781.7 1136.8Z" fill="#3746F5"/>
<path d="M839.4 1159C839.4 1158.3 839.5 1157.7 839.8 1157.1L868.2 1087.9C868.8 1086.4 869.8 1085.7 871.4 1085.7H885C886.2 1085.7 886.8 1086.3 886.8 1087.3C886.8 1087.8 886.7 1088.4 886.5 1089.1L858.1 1158.3C857.5 1159.8 856.4 1160.5 854.8 1160.5H841.3C840 1160.6 839.4 1160.1 839.4 1159Z" fill="#3746F5"/>
<path d="M894.9 1158.8C894 1158.8 893.6 1158.3 893.6 1157.3V1146C893.6 1145.2 893.7 1144.6 894 1144.2C894.3 1143.8 894.8 1143.5 895.5 1143.2L925.1 1130.4L895.5 1117.6C894.8 1117.3 894.3 1117 894 1116.6C893.7 1116.2 893.6 1115.6 893.6 1114.8V1103.7C893.6 1102.7 894 1102.2 894.9 1102.2C895.1 1102.2 895.4 1102.3 895.9 1102.4L944.5 1124.2C945.2 1124.5 945.6 1124.9 945.9 1125.3C946.2 1125.7 946.3 1126.4 946.3 1127.2V1133.8C946.3 1134.6 946.2 1135.2 945.9 1135.7C945.6 1136.1 945.1 1136.5 944.5 1136.8L895.9 1158.6C895.5 1158.7 895.1 1158.8 894.9 1158.8Z" fill="#3746F5"/>
<path d="M1682 1386.3H740.6V660H1682V1386.3ZM746 1381H1676.7V665.3H746V1381Z" fill="#5887DB"/>
<path d="M2337.4 978.6C2332.7 972.5 2327.2 967.4 2321 963.3L2327.8 934.3L2292.8 926.1L2286.7 952.2C2281.5 952 2276.2 952.4 2271 953.4L2259.7 930.7L2227.5 946.7L2238.8 969.4C2234.8 973 2231.3 976.9 2228.4 981.2L2203.9 970.3L2189.3 1003.2L2216.5 1015.3C2216 1022.7 2216.7 1030.2 2218.8 1037.6L2193.8 1050L2209.8 1082.2L2237.2 1068.5C2240.8 1071.9 2244.7 1074.9 2248.9 1077.5L2241.6 1108.5L2276.6 1116.7L2283.5 1087.3C2287.9 1087.3 2292.4 1086.9 2296.8 1086.1L2309.8 1112.1L2342 1096.1L2329 1070.1C2332.4 1067.1 2335.4 1063.8 2338 1060.2L2365.6 1072.4L2380.2 1039.5L2351.1 1026.6C2351.6 1021.7 2351.6 1016.8 2351 1011.9L2378.4 998.2L2362.4 966L2337.4 978.6ZM2315.5 1004.1C2324.2 1021.6 2317.1 1042.8 2299.6 1051.5C2282.1 1060.2 2260.9 1053.1 2252.2 1035.6C2243.5 1018.1 2250.6 996.9 2268.1 988.2C2285.6 979.5 2306.8 986.6 2315.5 1004.1Z" fill="#37BCF5"/>
<path d="M2222.5 498.3C2217.6 492 2211.8 486.6 2205.3 482.4L2212.4 452.2L2175.9 443.6L2169.5 470.9C2164.1 470.7 2158.6 471.1 2153.1 472.1L2141.3 448.4L2107.7 465.1L2119.5 488.8C2115.4 492.5 2111.7 496.7 2108.6 501.1L2083 489.8L2067.8 524.1L2096.2 536.7C2095.7 544.4 2096.4 552.3 2098.6 560L2072.5 573L2089.2 606.6L2117.8 592.4C2121.5 596 2125.6 599.1 2130 601.7L2122.4 634L2158.9 642.6L2166.1 611.9C2170.7 611.9 2175.4 611.5 2180 610.6L2193.5 637.8L2227.1 621.1L2213.6 593.9C2217.1 590.8 2220.2 587.3 2223 583.6L2251.8 596.4L2267 562.1L2236.7 548.7C2237.2 543.6 2237.2 538.5 2236.6 533.3L2265.2 519.1L2248.5 485.5L2222.5 498.3ZM2199.6 524.9C2208.7 543.1 2201.2 565.3 2183 574.3C2164.8 583.4 2142.6 575.9 2133.6 557.7C2124.5 539.5 2132 517.3 2150.2 508.3C2168.4 499.2 2190.6 506.6 2199.6 524.9Z" fill="#09D0C4"/>
<path d="M2572.7 707.6C2546.2 654.3 2481.5 632.6 2428.2 659.1C2374.9 685.6 2353.2 750.3 2379.7 803.6C2406.2 856.9 2470.9 878.6 2524.2 852.1C2577.5 825.7 2599.2 760.9 2572.7 707.6ZM2549.8 719C2569.4 758.5 2553.4 806.4 2513.9 826C2474.4 845.6 2426.5 829.6 2406.9 790.1C2387.3 750.6 2403.3 702.7 2442.8 683.1C2482.3 663.5 2530.2 679.6 2549.8 719Z" fill="white"/>
<path d="M2532.91 836.726L2506.59 849.821L2525.3 887.423L2551.62 874.329L2532.91 836.726Z" fill="white"/>
<path d="M2561.73 809.975L2543.41 832.975L2576.27 859.136L2594.58 836.137L2561.73 809.975Z" fill="white"/>
<path d="M2575.81 773.675L2568.1 802.046L2608.63 813.059L2616.34 784.688L2575.81 773.675Z" fill="white"/>
<path d="M2575.06 735.133L2576.51 764.498L2618.46 762.416L2617.01 733.051L2575.06 735.133Z" fill="white"/>
<path d="M2344.86 803.858L2357.96 830.18L2395.56 811.473L2382.46 785.151L2344.86 803.858Z" fill="white"/>
<path d="M2555.37 699.126L2568.47 725.448L2606.07 706.741L2592.98 680.419L2555.37 699.126Z" fill="white"/>
<path d="M2468.27 898.941L2497.67 898.211L2496.62 856.224L2467.23 856.954L2468.27 898.941Z" fill="white"/>
<path d="M2414.11 885.235L2441.39 896.204L2457.06 857.236L2429.78 846.267L2414.11 885.235Z" fill="white"/>
<path d="M2372.73 854.647L2395.27 873.524L2422.24 841.327L2399.7 822.449L2372.73 854.647Z" fill="white"/>
<path d="M2426.61 622.237L2400.29 635.332L2418.99 672.935L2445.32 659.84L2426.61 622.237Z" fill="white"/>
<path d="M2483.09 611.246L2453.7 611.977L2454.75 653.964L2484.14 653.234L2483.09 611.246Z" fill="white"/>
<path d="M2537.26 625.023L2509.99 614.054L2494.32 653.021L2521.59 663.99L2537.26 625.023Z" fill="white"/>
<path d="M2578.66 655.573L2556.12 636.696L2529.15 668.893L2551.69 687.771L2578.66 655.573Z" fill="white"/>
<path d="M2389.74 700.243L2408.05 677.243L2375.2 651.081L2356.88 674.081L2389.74 700.243Z" fill="white"/>
<path d="M2375.58 736.599L2383.29 708.228L2342.76 697.216L2335.05 725.587L2375.58 736.599Z" fill="white"/>
<path d="M2376.32 775.074L2374.87 745.709L2332.92 747.791L2334.37 777.156L2376.32 775.074Z" fill="white"/>
<path d="M1428.7 522.9C1525.13 522.9 1603.3 450.191 1603.3 360.5C1603.3 270.809 1525.13 198.1 1428.7 198.1C1332.27 198.1 1254.1 270.809 1254.1 360.5C1254.1 450.191 1332.27 522.9 1428.7 522.9Z" fill="#4C9EFB"/>
<path d="M1664.14 498.205C1710.42 451.928 1710.42 376.899 1664.14 330.622C1617.87 284.346 1542.84 284.346 1496.56 330.622C1450.28 376.899 1450.28 451.928 1496.56 498.205C1542.84 544.482 1617.87 544.482 1664.14 498.205Z" fill="#4C9EFB"/>
<path d="M1687.5 518.2C1723.9 518.2 1753.4 488.695 1753.4 452.3C1753.4 415.904 1723.9 386.4 1687.5 386.4C1651.1 386.4 1621.6 415.904 1621.6 452.3C1621.6 488.695 1651.1 518.2 1687.5 518.2Z" fill="#4C9EFB"/>
<path d="M1172 518.2C1208.4 518.2 1237.9 488.695 1237.9 452.3C1237.9 415.904 1208.4 386.4 1172 386.4C1135.6 386.4 1106.1 415.904 1106.1 452.3C1106.1 488.695 1135.6 518.2 1172 518.2Z" fill="#4C9EFB"/>
<path d="M1374.24 498.198C1420.52 451.921 1420.52 376.892 1374.24 330.615C1327.96 284.338 1252.94 284.338 1206.66 330.615C1160.38 376.892 1160.38 451.921 1206.66 498.198C1252.94 544.474 1327.96 544.474 1374.24 498.198Z" fill="#4C9EFB"/>
<path d="M1376.7 370.4L1431.4 427.6L1488.6 372.8L1463.9 373.4V241.4H1400.6V372L1376.7 370.4Z" fill="white"/>
<path d="M1536.1 441.1H1326.8V452H1536.1V441.1Z" fill="white"/>
<path d="M1959.4 1900.1C1960.3 1900.1 1961.2 1900 1962.2 1899.8C1968.4 1898.3 1972.2 1892 1970.7 1885.8L1926.2 1704.1C1924.7 1697.9 1918.4 1694.1 1912.2 1695.6C1906 1697.1 1902.2 1703.4 1903.7 1709.6L1948.2 1891.3C1949.4 1896.5 1954.2 1900.1 1959.4 1900.1Z" fill="#100259"/>
<path d="M2209.5 1900.1C2210.4 1900.1 2211.3 1900 2212.3 1899.8C2218.5 1898.3 2222.3 1892 2220.8 1885.8L2156.3 1622.2C2154.8 1616 2148.5 1612.2 2142.3 1613.7C2136.1 1615.2 2132.3 1621.5 2133.8 1627.7L2198.3 1891.3C2199.6 1896.5 2204.3 1900.1 2209.5 1900.1Z" fill="#100259"/>
<path d="M2109.7 948.8C1665.3 948.8 1766.7 1426.5 1626.7 1418.6C1486.7 1410.8 1405.7 1720.2 1915 1720.2C2424.3 1720.2 2518.6 948.8 2109.7 948.8Z" fill="#E31368"/>
<path d="M1481 1801.4C1481 1801.4 1482.1 1879.9 1481.5 1881.1C1480.9 1882.2 1487.2 1892.1 1487.2 1892.1L1512 1896.5L1534.6 1886.1C1534.6 1886.1 1532.6 1813.1 1535 1801.6C1537.4 1790 1481 1801.4 1481 1801.4Z" fill="#F9A58F"/>
<path d="M1534.7 1886.1C1534.7 1886.1 1506.1 1896.1 1481.7 1879.6C1481.7 1879.6 1386.6 1915.2 1389.5 1942.3C1389.5 1942.3 1385.5 1950.4 1426.6 1948.6C1467.8 1946.9 1531.8 1945 1533.5 1944.1C1535.3 1943.1 1543.4 1947.5 1534.7 1886.1Z" fill="#100259"/>
<path d="M1720.9 1801.4C1720.9 1801.4 1722 1879.9 1721.4 1881.1C1720.8 1882.2 1727.1 1892.1 1727.1 1892.1L1751.9 1896.5L1774.5 1886.1C1774.5 1886.1 1772.5 1813.1 1774.9 1801.6C1777.3 1790 1720.9 1801.4 1720.9 1801.4Z" fill="#F9A58F"/>
<path d="M1774.5 1886.1C1774.5 1886.1 1745.9 1896.1 1721.5 1879.6C1721.5 1879.6 1626.4 1915.2 1629.3 1942.3C1629.3 1942.3 1625.3 1950.4 1666.4 1948.6C1707.6 1946.9 1771.6 1945 1773.3 1944.1C1775.2 1943.1 1783.3 1947.5 1774.5 1886.1Z" fill="#100259"/>
<path d="M1580.9 1411.1C1580.9 1411.1 1488.9 1418.5 1459.4 1535.7C1442.3 1603.8 1449 1825.6 1449 1825.6L1568.3 1844.3C1568.3 1844.3 1557.6 1596.5 1650 1520.1C1650 1520.1 1631.3 1570.4 1699 1856.8H1787.5L1817 1563.5C1817 1563.5 2025.3 1570.4 2087.8 1518.4C2150.3 1466.3 2156.6 1404 2156.6 1404L1862.2 1359.3L1580.9 1411.1Z" fill="#6D76FF"/>
<path d="M1990.5 785.7C1972.1 798.5 1943.9 834.7 1945.5 855.4C1947.1 876.1 1947.1 876.1 1947.1 876.1C1947.1 876.1 1974.7 1057.5 1994.1 1058.8C2013.5 1060.1 2083.5 1067 2099.6 1051.2C2115.7 1035.4 2135.1 900.9 2131.5 894.2C2127.9 887.5 2073 783.7 2054 781.1C2034.9 778.4 1990.5 785.7 1990.5 785.7Z" fill="#B78F63"/>
<path d="M2045.3 732.7C2091.8 733.5 2131.1 769.7 2135.7 816C2137.2 831.2 2135 845.9 2129.8 859.1C2118.6 892 2109.3 918.4 2097.1 938C2084.7 957.8 2079.7 981.4 2084.2 1004.3L2086 1013.5C2087.7 1022.2 2083 1030.9 2074.8 1034.3C2049.6 1044.9 2032.1 1042.1 2021.9 1037.8C2015.4 1035.1 2011.1 1028.9 2010.7 1021.8L2008.6 977.2C1950 973 1952.6 865.1 1951.1 833.4H1951.2C1951.1 832.2 1951 831 1950.9 829.8C1948.4 776.6 1991.2 731.7 2045.3 732.7Z" fill="#F9A58F"/>
<path d="M1971.9 875.2C1971.3 870.8 1974.3 866.7 1978.7 866C1983.1 865.4 1987.2 868.4 1987.9 872.8C1988.5 877.2 1985.5 881.3 1981.1 882C1976.6 882.7 1972.5 879.6 1971.9 875.2Z" fill="#050521"/>
<path d="M2048.6 880.1C2048 875.7 2051 871.6 2055.4 870.9C2059.8 870.3 2063.9 873.3 2064.6 877.7C2065.2 882.1 2062.2 886.2 2057.8 886.9C2053.3 887.6 2049.2 884.5 2048.6 880.1Z" fill="#050521"/>
<path d="M1992.3 932.8C1992.3 932.8 1999.2 927.8 2003.3 929C2007.4 930.2 2009.7 935.2 2009.7 935.2C2009.7 935.2 2012.2 930.2 2017.2 930.2C2022.2 930.2 2036.3 934.1 2036.3 934.1C2036.3 934.1 2023.1 955.4 2008.1 951.6C1993.1 947.7 1992.5 933.6 1992.5 933.6L1992.3 932.8Z" fill="#DD4E4E"/>
<path d="M2006.3 941.6C2023.5 945.4 2040.4 932.8 2040.6 932.6C2041.1 932.2 2041.2 931.5 2040.8 931C2040.4 930.5 2039.7 930.4 2039.2 930.8C2038.1 931.6 2011.8 951.2 1992.4 931C1992 930.5 1991.2 930.5 1990.8 931C1990.3 931.4 1990.3 932.2 1990.8 932.6C1995.7 937.8 2001 940.5 2006.3 941.6Z" fill="#050521"/>
<path d="M2074.6 867.3C2075.6 867.2 2076.5 866.7 2077 865.8C2078 864.3 2077.6 862.2 2076.1 861.1C2075.6 860.8 2064.6 853.5 2049.7 855.7C2047.9 856 2046.6 857.7 2046.9 859.5C2047.2 861.3 2049 862.6 2050.7 862.3C2063.1 860.5 2072.3 866.6 2072.4 866.6C2073.1 867.2 2073.8 867.3 2074.6 867.3Z" fill="#684735"/>
<path d="M1991.7 857.2C1992.6 856.9 1993.4 856.3 1993.8 855.3C1994.5 853.6 1993.8 851.6 1992.1 850.9C1991.6 850.7 1979.5 845.5 1965.1 850.3C1963.3 850.9 1962.4 852.8 1963 854.6C1963.6 856.4 1965.6 857.3 1967.3 856.7C1979.2 852.7 1989.3 857 1989.4 857.1C1990.2 857.4 1991 857.4 1991.7 857.2Z" fill="#684735"/>
<path d="M2010.4 910.3C2012.5 911 2015.2 911.3 2018.5 911C2019.2 910.9 2019.6 910.4 2019.6 909.7C2019.5 909 2019 908.6 2018.3 908.6C2006.8 909.7 2004.5 902.4 2004.1 900.4C2012.8 888.3 2011.1 872.4 2011 871.7C2010.9 871 2010.3 870.6 2009.7 870.7C2009 870.8 2008.6 871.4 2008.7 872C2008.7 872.2 2010.4 888 2002 899.4C2001.8 899.6 2001.7 899.9 2001.8 900.3C2001.7 900.4 2002.7 907.8 2010.4 910.3Z" fill="#E08370"/>
<path d="M2102.9 886.3C2104.3 883.2 2106.7 880.8 2109.8 879.4C2116.1 876.5 2127.2 873.2 2135.3 880.5C2147.2 891.3 2125.8 922.6 2102.5 908.7C2102.5 908.8 2095.7 902.6 2102.9 886.3Z" fill="#F9A58F"/>
<path d="M2109.7 1012.8C2109.7 1012.8 2103.9 968.3 2094.7 970.6C2085.4 972.9 2003.3 987.9 1995.2 986.2C1987.1 984.5 1995.2 1023.9 1995.2 1023.9C1995.2 1023.9 1902.7 1032.3 1879.6 1071.7C1856.5 1111 1802.6 1260.4 1783 1273.2C1763.3 1285.9 1724.5 1321.3 1724.5 1321.3L1884.5 1411.3L2036.1 1404.2C2036.1 1404.2 2145.7 1469.9 2231.4 1418.7C2317 1367.5 2302 1099.1 2221 1051.7C2139.8 1004.1 2109.7 1012.8 2109.7 1012.8Z" fill="#222638"/>
<path d="M2012.7 732.9C2005.4 729.1 1996.3 729.6 1988.7 732.8C1981.1 736 1974.8 741.7 1969.3 747.9C1945 775.3 1935.8 813.4 1936.1 849.9C1936.4 886.5 1945.2 922.4 1952.9 958.1C1956.5 974.8 1959.9 992.3 1955.2 1008.8C1950.5 1025.2 1935.2 1040 1918.2 1037.9C1930.3 1043 1944 1044.6 1956.9 1042.3C1949.5 1051.1 1939.9 1057.9 1929.2 1062C1947.8 1064.8 1967.6 1055 1976.7 1038.7C1985.8 1022.5 1984.4 1002.2 1978.9 984.4C1973.4 966.6 1970.9 951.7 1964.8 934.1C1957 911.6 1952.4 889.9 1953.8 861.2C1955 837.4 1968.7 816.7 1986.8 801.2C1992.3 796.5 2003.2 789.7 2005.8 789.6C2008.9 789.4 2022.3 797.5 2028.7 803.3C2053.5 826 2070.2 856.5 2095.3 878.9C2101.8 884.7 2109 890.2 2112.4 898.1C2117.4 909.4 2113.4 922.5 2110.4 934.5C2105.1 955.7 2102.9 977.6 2103.9 999.4C2104.5 1013.1 2106.6 1027.3 2114 1038.9C2121.4 1050.5 2135.3 1058.8 2148.8 1056C2143.4 1047.2 2139.5 1037.5 2137.1 1027.4C2145.3 1031.8 2154.5 1034.3 2163.8 1034.7C2165.9 1034.8 2168.4 1034.6 2169.6 1032.8C2171 1030.7 2169.4 1027.7 2167.2 1026.4C2165 1025.1 2162.4 1024.7 2160.1 1023.6C2153.9 1020.4 2152.4 1012.3 2151.5 1005.3C2146.3 960.4 2141.1 915.2 2145.1 870.2C2146.7 852.4 2144.4 833.5 2141.9 815.8C2136.4 776.8 2107.7 719.9 2056.5 723.5C2039.6 724.8 2012.7 732.9 2012.7 732.9Z" fill="#C69C68"/>
<path d="M1840.4 1370.2C1840.6 1370.2 1840.7 1370.2 1840.9 1370.1C1887 1349.9 1911.8 1150.7 1912.8 1142.2C1912.9 1141.6 1912.4 1141 1911.8 1140.9C1911.1 1140.8 1910.6 1141.3 1910.5 1141.9C1910.2 1144 1884.9 1348.3 1839.9 1367.9C1839.3 1368.2 1839 1368.8 1839.3 1369.4C1839.5 1369.9 1839.9 1370.2 1840.4 1370.2Z" fill="black"/>
<path d="M2036 1405.2C2036.4 1405.2 2036.9 1404.9 2037.1 1404.5C2037.4 1403.9 2037.1 1403.2 2036.5 1403L2003.1 1388.4L2007.8 1330.2C2017.8 1328.2 2111.7 1309.9 2156.5 1304.7C2157.1 1304.6 2157.5 1304.1 2157.5 1303.6C2157.6 1299.1 2159.2 1193.5 2152.2 1177.8C2151.9 1177.2 2151.3 1177 2150.7 1177.2C2150.1 1177.5 2149.9 1178.1 2150.1 1178.7C2156.5 1193.1 2155.4 1291.4 2155.2 1302.5C2107.5 1308.2 2007.5 1327.9 2006.5 1328.1C2006 1328.2 2005.6 1328.6 2005.6 1329.1L2000.8 1389C2000.8 1389.5 2001 1390 2001.5 1390.2L2035.6 1405.1C2035.7 1405.2 2035.8 1405.2 2036 1405.2Z" fill="black"/>
<path d="M1650 1521.3C1650.5 1521.3 1651 1520.9 1651.1 1520.4C1651.3 1519.4 1672.4 1417.5 1839 1405.5C1839.6 1405.5 1840.1 1404.9 1840.1 1404.3C1840.1 1403.7 1839.5 1403.1 1838.9 1403.2C1750.9 1409.6 1704 1440.9 1680 1466.1C1654 1493.5 1648.9 1519.7 1648.8 1520C1648.7 1520.6 1649.1 1521.2 1649.7 1521.4C1649.8 1521.3 1649.9 1521.3 1650 1521.3Z" fill="#100259"/>
<path d="M1975.2 1337.4C1975.2 1337.4 1972.9 1337.5 1969 1337.6C1950 1338.2 1893.2 1340.1 1886.6 1342.5C1878.7 1345.3 1902.5 1394.9 1902.5 1394.9C1902.5 1394.9 1970.8 1398.6 1992.8 1384C2014.8 1369.3 1975.2 1337.4 1975.2 1337.4Z" fill="#F9A58F"/>
<path d="M1911.6 1395.2C1911.6 1395.2 1873.5 1412.4 1870.1 1408.7C1866.7 1404.9 1899.9 1385.7 1899.9 1385.7L1911.6 1395.2Z" fill="#F9A58F"/>
<path d="M1901.2 1383C1901.2 1383 1844.8 1406.2 1840.5 1398.4C1836.2 1390.6 1898.6 1370.5 1898.6 1370.5L1901.2 1383Z" fill="#F9A58F"/>
<path d="M1893.7 1369.3C1893.7 1369.3 1835.5 1387.5 1831.9 1379.4C1828.3 1371.3 1892.3 1356.7 1892.3 1356.7L1893.7 1369.3Z" fill="#F9A58F"/>
<path d="M1890.8 1354.6C1890.8 1354.6 1836.4 1372.4 1833 1364.2C1829.6 1356 1889.3 1341.9 1889.3 1341.9L1890.8 1354.6Z" fill="#F9A58F"/>
<path d="M1962.2 1339.1L2005.1 1333.7L2001.2 1382.2L1979.1 1387.1L1962.2 1339.1Z" fill="#F9A58F"/>
<path d="M1476.4 1189L1790.4 1188.5L1889.2 1418.1L1575.2 1418.6L1476.4 1189Z" fill="#060423"/>
<path d="M1827.53 1418.19L2037.73 1417.89L2037.71 1403.99L1827.51 1404.29L1827.53 1418.19Z" fill="#060423"/>
<path d="M1649.1 1296.5C1654.2 1299.8 1659.7 1299.6 1661.3 1296C1662.9 1292.4 1660.1 1286.8 1654.9 1283.4C1649.7 1280 1644.3 1280.2 1642.7 1283.9C1641.1 1287.5 1644 1293.1 1649.1 1296.5Z" fill="#E50D74"/>
<path d="M1666.9 1319.3C1667.5 1318.7 1667.7 1317.8 1667.7 1316.9C1668.8 1314.9 1671.5 1313 1678 1317.3C1678.3 1317.5 1678.6 1317.7 1678.9 1317.9C1685.2 1322 1691.9 1321.8 1694 1317.4C1695.8 1313.6 1693.5 1307.9 1688.6 1303.6C1688.2 1303.2 1687.7 1302.9 1687.3 1302.5C1684.4 1300.2 1681.8 1297.6 1680.2 1293.1C1678.4 1288 1682.6 1285.4 1682.6 1285.4C1686.1 1283.7 1686 1278.8 1682.4 1274.5C1678.7 1270.1 1672.9 1267.9 1669.4 1269.6C1665.9 1271.3 1666 1276.2 1669.7 1280.6C1669.9 1280.9 1670.1 1281.1 1670.4 1281.4C1670.4 1281.4 1670.4 1281.4 1670.5 1281.4C1671 1281.9 1671.4 1282.3 1672 1282.8C1674 1284.8 1677.3 1288.6 1677.9 1292.6C1678.3 1295.8 1676.6 1298 1674.9 1299.4C1673.9 1299.7 1673.1 1300.2 1672.4 1300.9C1671 1302.3 1670.5 1304.4 1670.9 1306.8C1670.9 1306.8 1671.6 1313.9 1663.4 1310.2C1663.3 1310.2 1663.3 1310.1 1663.2 1310.1C1659.7 1307.8 1655.9 1307.9 1654.8 1310.4C1653.7 1312.8 1655.7 1316.6 1659.2 1318.9C1662.1 1320.8 1665.4 1321 1666.9 1319.3Z" fill="#E50D74"/>
<path d="M2134.8 1114.3C2134.8 1116.5 2133.9 1118.4 2132.4 1119.9C2131.8 1120.5 2131.1 1121 2130.3 1121.3C2130.3 1121.3 2130.2 1121.3 2130.2 1121.4C2126.8 1123 2124.4 1126.5 2124.4 1130.5C2124.4 1133.1 2125.4 1135.5 2127 1137.3C2127.1 1137.4 2127.1 1137.4 2127.1 1137.5C2127.4 1137.8 2127.6 1138.1 2127.8 1138.4C2129.1 1140.1 2129.8 1142.2 2129.8 1144.5C2129.8 1150.2 2125.2 1154.8 2119.5 1154.8C2116.8 1154.8 2114.3 1153.7 2112.4 1152C2112.1 1151.8 2111.9 1151.5 2111.7 1151.3C2110.6 1150 2108.9 1149.2 2107.1 1149.2C2104.9 1149.2 2103 1150.3 2101.9 1152C2101.9 1152 2101.9 1152.1 2101.8 1152.1C2101.4 1152.7 2101 1153.2 2100.5 1153.6C2099.5 1154.4 2098.3 1154.8 2097 1154.8C2093.8 1154.8 2091.3 1152.2 2091.3 1149.1C2091.3 1146.2 2093.4 1143.8 2096.2 1143.4C2096.5 1143.4 2096.8 1143.3 2097 1143.3C2098.2 1143.3 2099.4 1143.7 2100.3 1144.3C2101.3 1145 2102.5 1145.4 2103.8 1145.4C2106.5 1145.4 2108.8 1143.7 2109.6 1141.3C2109.6 1141.2 2109.6 1141.2 2109.7 1141.2C2109.8 1140.9 2109.9 1140.6 2110 1140.3C2111 1138.1 2112.7 1136.3 2114.9 1135.2C2115.1 1135.1 2115.4 1135 2115.6 1134.9C2119.6 1133.3 2122.4 1129.4 2122.4 1124.9C2122.4 1122.7 2121.7 1120.6 2120.6 1118.9L2120.4 1118.6C2120 1118 2119.7 1117.4 2119.5 1116.7C2119.2 1115.9 2119.1 1115.1 2119.1 1114.3C2119.1 1110 2122.6 1106.6 2126.8 1106.6C2131.3 1106.6 2134.8 1110 2134.8 1114.3Z" fill="#E31368"/>
<path d="M2099.2 1134.2C2103.78 1134.2 2107.5 1130.48 2107.5 1125.9C2107.5 1121.32 2103.78 1117.6 2099.2 1117.6C2094.62 1117.6 2090.9 1121.32 2090.9 1125.9C2090.9 1130.48 2094.62 1134.2 2099.2 1134.2Z" fill="#E31368"/>
</svg>
